solid OpenSCAD_Model
  facet normal 0.309014 -0.951057 0
    outer loop
      vertex -1.21352 55.8817 -46
      vertex 0.463525 56.4266 -45
      vertex -1.21352 55.8817 -45
    endloop
  endfacet
  facet normal 0.309014 -0.951057 0
    outer loop
      vertex 0.463525 56.4266 -45
      vertex -1.21352 55.8817 -46
      vertex 0.463525 56.4266 -46
    endloop
  endfacet
  facet normal 0.309014 0.951057 -0
    outer loop
      vertex 0.463525 53.5734 -46
      vertex -1.21352 54.1183 -45
      vertex 0.463525 53.5734 -45
    endloop
  endfacet
  facet normal 0.309014 0.951057 0
    outer loop
      vertex -1.21352 54.1183 -45
      vertex 0.463525 53.5734 -46
      vertex -1.21352 54.1183 -46
    endloop
  endfacet
  facet normal -0.80902 0.587781 0
    outer loop
      vertex 0.463525 53.5734 -46
      vertex 1.5 55 -45
      vertex 1.5 55 -46
    endloop
  endfacet
  facet normal -0.80902 0.587781 0
    outer loop
      vertex 1.5 55 -45
      vertex 0.463525 53.5734 -46
      vertex 0.463525 53.5734 -45
    endloop
  endfacet
  facet normal 1 -0 0
    outer loop
      vertex -1.21352 54.1183 -45
      vertex -1.21352 55.8817 -46
      vertex -1.21352 55.8817 -45
    endloop
  endfacet
  facet normal 1 0 0
    outer loop
      vertex -1.21352 55.8817 -46
      vertex -1.21352 54.1183 -45
      vertex -1.21352 54.1183 -46
    endloop
  endfacet
  facet normal -0.80902 -0.587781 0
    outer loop
      vertex 1.5 55 -46
      vertex 0.463525 56.4266 -45
      vertex 0.463525 56.4266 -46
    endloop
  endfacet
  facet normal -0.80902 -0.587781 0
    outer loop
      vertex 0.463525 56.4266 -45
      vertex 1.5 55 -46
      vertex 1.5 55 -45
    endloop
  endfacet
  facet normal 0.309014 -0.951057 0
    outer loop
      vertex -1.21352 24.8817 -46
      vertex 0.463525 25.4266 -45
      vertex -1.21352 24.8817 -45
    endloop
  endfacet
  facet normal 0.309014 -0.951057 0
    outer loop
      vertex 0.463525 25.4266 -45
      vertex -1.21352 24.8817 -46
      vertex 0.463525 25.4266 -46
    endloop
  endfacet
  facet normal 0.309014 0.951057 -0
    outer loop
      vertex 0.463525 22.5734 -46
      vertex -1.21352 23.1183 -45
      vertex 0.463525 22.5734 -45
    endloop
  endfacet
  facet normal 0.309014 0.951057 0
    outer loop
      vertex -1.21352 23.1183 -45
      vertex 0.463525 22.5734 -46
      vertex -1.21352 23.1183 -46
    endloop
  endfacet
  facet normal -0.80902 0.587781 0
    outer loop
      vertex 0.463525 22.5734 -46
      vertex 1.5 24 -45
      vertex 1.5 24 -46
    endloop
  endfacet
  facet normal -0.80902 0.587781 0
    outer loop
      vertex 1.5 24 -45
      vertex 0.463525 22.5734 -46
      vertex 0.463525 22.5734 -45
    endloop
  endfacet
  facet normal 1 -0 0
    outer loop
      vertex -1.21352 23.1183 -45
      vertex -1.21352 24.8817 -46
      vertex -1.21352 24.8817 -45
    endloop
  endfacet
  facet normal 1 0 0
    outer loop
      vertex -1.21352 24.8817 -46
      vertex -1.21352 23.1183 -45
      vertex -1.21352 23.1183 -46
    endloop
  endfacet
  facet normal -0.80902 -0.587781 0
    outer loop
      vertex 1.5 24 -46
      vertex 0.463525 25.4266 -45
      vertex 0.463525 25.4266 -46
    endloop
  endfacet
  facet normal -0.80902 -0.587781 0
    outer loop
      vertex 0.463525 25.4266 -45
      vertex 1.5 24 -46
      vertex 1.5 24 -45
    endloop
  endfacet
  facet normal 0.30902 -0.951056 0
    outer loop
      vertex -1.21352 -6.11832 -46
      vertex 0.463525 -5.57341 -45
      vertex -1.21352 -6.11832 -45
    endloop
  endfacet
  facet normal 0.30902 -0.951056 0
    outer loop
      vertex 0.463525 -5.57341 -45
      vertex -1.21352 -6.11832 -46
      vertex 0.463525 -5.57341 -46
    endloop
  endfacet
  facet normal 0.309014 0.951057 -0
    outer loop
      vertex 0.463525 -8.42658 -46
      vertex -1.21352 -7.88168 -45
      vertex 0.463525 -8.42658 -45
    endloop
  endfacet
  facet normal 0.309014 0.951057 0
    outer loop
      vertex -1.21352 -7.88168 -45
      vertex 0.463525 -8.42658 -46
      vertex -1.21352 -7.88168 -46
    endloop
  endfacet
  facet normal -0.809016 0.587787 0
    outer loop
      vertex 0.463525 -8.42658 -46
      vertex 1.5 -7 -45
      vertex 1.5 -7 -46
    endloop
  endfacet
  facet normal -0.809016 0.587787 0
    outer loop
      vertex 1.5 -7 -45
      vertex 0.463525 -8.42658 -46
      vertex 0.463525 -8.42658 -45
    endloop
  endfacet
  facet normal 1 -0 0
    outer loop
      vertex -1.21352 -7.88168 -45
      vertex -1.21352 -6.11832 -46
      vertex -1.21352 -6.11832 -45
    endloop
  endfacet
  facet normal 1 0 0
    outer loop
      vertex -1.21352 -6.11832 -46
      vertex -1.21352 -7.88168 -45
      vertex -1.21352 -7.88168 -46
    endloop
  endfacet
  facet normal -0.809018 -0.587784 0
    outer loop
      vertex 1.5 -7 -46
      vertex 0.463525 -5.57341 -45
      vertex 0.463525 -5.57341 -46
    endloop
  endfacet
  facet normal -0.809018 -0.587784 0
    outer loop
      vertex 0.463525 -5.57341 -45
      vertex 1.5 -7 -46
      vertex 1.5 -7 -45
    endloop
  endfacet
  facet normal 0.309014 -0.951057 0
    outer loop
      vertex -1.21352 -37.1183 -46
      vertex 0.463525 -36.5734 -45
      vertex -1.21352 -37.1183 -45
    endloop
  endfacet
  facet normal 0.309014 -0.951057 0
    outer loop
      vertex 0.463525 -36.5734 -45
      vertex -1.21352 -37.1183 -46
      vertex 0.463525 -36.5734 -46
    endloop
  endfacet
  facet normal 0.309014 0.951057 -0
    outer loop
      vertex 0.463525 -39.4266 -46
      vertex -1.21352 -38.8817 -45
      vertex 0.463525 -39.4266 -45
    endloop
  endfacet
  facet normal 0.309014 0.951057 0
    outer loop
      vertex -1.21352 -38.8817 -45
      vertex 0.463525 -39.4266 -46
      vertex -1.21352 -38.8817 -46
    endloop
  endfacet
  facet normal -0.80902 0.587781 0
    outer loop
      vertex 0.463525 -39.4266 -46
      vertex 1.5 -38 -45
      vertex 1.5 -38 -46
    endloop
  endfacet
  facet normal -0.80902 0.587781 0
    outer loop
      vertex 1.5 -38 -45
      vertex 0.463525 -39.4266 -46
      vertex 0.463525 -39.4266 -45
    endloop
  endfacet
  facet normal 1 -0 0
    outer loop
      vertex -1.21352 -38.8817 -45
      vertex -1.21352 -37.1183 -46
      vertex -1.21352 -37.1183 -45
    endloop
  endfacet
  facet normal 1 0 0
    outer loop
      vertex -1.21352 -37.1183 -46
      vertex -1.21352 -38.8817 -45
      vertex -1.21352 -38.8817 -46
    endloop
  endfacet
  facet normal -0.80902 -0.587781 0
    outer loop
      vertex 1.5 -38 -46
      vertex 0.463525 -36.5734 -45
      vertex 0.463525 -36.5734 -46
    endloop
  endfacet
  facet normal -0.80902 -0.587781 0
    outer loop
      vertex 0.463525 -36.5734 -45
      vertex 1.5 -38 -46
      vertex 1.5 -38 -45
    endloop
  endfacet
  facet normal -0.308855 -0.951109 0
    outer loop
      vertex 144.536 56.4266 -46
      vertex 146.214 55.8817 -45
      vertex 144.536 56.4266 -45
    endloop
  endfacet
  facet normal -0.308855 -0.951109 -0
    outer loop
      vertex 146.214 55.8817 -45
      vertex 144.536 56.4266 -46
      vertex 146.214 55.8817 -46
    endloop
  endfacet
  facet normal -0.308855 0.951109 0
    outer loop
      vertex 146.214 54.1183 -46
      vertex 144.536 53.5734 -45
      vertex 146.214 54.1183 -45
    endloop
  endfacet
  facet normal -0.308855 0.951109 0
    outer loop
      vertex 144.536 53.5734 -45
      vertex 146.214 54.1183 -46
      vertex 144.536 53.5734 -46
    endloop
  endfacet
  facet normal 0.809148 0.587605 0
    outer loop
      vertex 144.536 53.5734 -45
      vertex 143.5 55 -46
      vertex 143.5 55 -45
    endloop
  endfacet
  facet normal 0.809148 0.587605 0
    outer loop
      vertex 143.5 55 -46
      vertex 144.536 53.5734 -45
      vertex 144.536 53.5734 -46
    endloop
  endfacet
  facet normal -1 0 0
    outer loop
      vertex 146.214 54.1183 -46
      vertex 146.214 55.8817 -45
      vertex 146.214 55.8817 -46
    endloop
  endfacet
  facet normal -1 -0 0
    outer loop
      vertex 146.214 55.8817 -45
      vertex 146.214 54.1183 -46
      vertex 146.214 54.1183 -45
    endloop
  endfacet
  facet normal 0.809148 -0.587605 0
    outer loop
      vertex 143.5 55 -45
      vertex 144.536 56.4266 -46
      vertex 144.536 56.4266 -45
    endloop
  endfacet
  facet normal 0.809148 -0.587605 0
    outer loop
      vertex 144.536 56.4266 -46
      vertex 143.5 55 -45
      vertex 143.5 55 -46
    endloop
  endfacet
  facet normal -0.308855 -0.951109 0
    outer loop
      vertex 144.536 25.4266 -46
      vertex 146.214 24.8817 -45
      vertex 144.536 25.4266 -45
    endloop
  endfacet
  facet normal -0.308855 -0.951109 -0
    outer loop
      vertex 146.214 24.8817 -45
      vertex 144.536 25.4266 -46
      vertex 146.214 24.8817 -46
    endloop
  endfacet
  facet normal -0.308855 0.951109 0
    outer loop
      vertex 146.214 23.1183 -46
      vertex 144.536 22.5734 -45
      vertex 146.214 23.1183 -45
    endloop
  endfacet
  facet normal -0.308855 0.951109 0
    outer loop
      vertex 144.536 22.5734 -45
      vertex 146.214 23.1183 -46
      vertex 144.536 22.5734 -46
    endloop
  endfacet
  facet normal 0.809148 0.587605 0
    outer loop
      vertex 144.536 22.5734 -45
      vertex 143.5 24 -46
      vertex 143.5 24 -45
    endloop
  endfacet
  facet normal 0.809148 0.587605 0
    outer loop
      vertex 143.5 24 -46
      vertex 144.536 22.5734 -45
      vertex 144.536 22.5734 -46
    endloop
  endfacet
  facet normal -1 0 0
    outer loop
      vertex 146.214 23.1183 -46
      vertex 146.214 24.8817 -45
      vertex 146.214 24.8817 -46
    endloop
  endfacet
  facet normal -1 -0 0
    outer loop
      vertex 146.214 24.8817 -45
      vertex 146.214 23.1183 -46
      vertex 146.214 23.1183 -45
    endloop
  endfacet
  facet normal 0.809148 -0.587605 0
    outer loop
      vertex 143.5 24 -45
      vertex 144.536 25.4266 -46
      vertex 144.536 25.4266 -45
    endloop
  endfacet
  facet normal 0.809148 -0.587605 0
    outer loop
      vertex 144.536 25.4266 -46
      vertex 143.5 24 -45
      vertex 143.5 24 -46
    endloop
  endfacet
  facet normal -0.30886 -0.951107 0
    outer loop
      vertex 144.536 -5.57341 -46
      vertex 146.214 -6.11832 -45
      vertex 144.536 -5.57341 -45
    endloop
  endfacet
  facet normal -0.30886 -0.951107 -0
    outer loop
      vertex 146.214 -6.11832 -45
      vertex 144.536 -5.57341 -46
      vertex 146.214 -6.11832 -46
    endloop
  endfacet
  facet normal -0.308855 0.951109 0
    outer loop
      vertex 146.214 -7.88168 -46
      vertex 144.536 -8.42658 -45
      vertex 146.214 -7.88168 -45
    endloop
  endfacet
  facet normal -0.308855 0.951109 0
    outer loop
      vertex 144.536 -8.42658 -45
      vertex 146.214 -7.88168 -46
      vertex 144.536 -8.42658 -46
    endloop
  endfacet
  facet normal 0.809144 0.58761 0
    outer loop
      vertex 144.536 -8.42658 -45
      vertex 143.5 -7 -46
      vertex 143.5 -7 -45
    endloop
  endfacet
  facet normal 0.809144 0.58761 0
    outer loop
      vertex 143.5 -7 -46
      vertex 144.536 -8.42658 -45
      vertex 144.536 -8.42658 -46
    endloop
  endfacet
  facet normal -1 0 0
    outer loop
      vertex 146.214 -7.88168 -46
      vertex 146.214 -6.11832 -45
      vertex 146.214 -6.11832 -46
    endloop
  endfacet
  facet normal -1 -0 0
    outer loop
      vertex 146.214 -6.11832 -45
      vertex 146.214 -7.88168 -46
      vertex 146.214 -7.88168 -45
    endloop
  endfacet
  facet normal 0.809146 -0.587608 0
    outer loop
      vertex 143.5 -7 -45
      vertex 144.536 -5.57341 -46
      vertex 144.536 -5.57341 -45
    endloop
  endfacet
  facet normal 0.809146 -0.587608 0
    outer loop
      vertex 144.536 -5.57341 -46
      vertex 143.5 -7 -45
      vertex 143.5 -7 -46
    endloop
  endfacet
  facet normal -0.308855 -0.951109 0
    outer loop
      vertex 144.536 -36.5734 -46
      vertex 146.214 -37.1183 -45
      vertex 144.536 -36.5734 -45
    endloop
  endfacet
  facet normal -0.308855 -0.951109 -0
    outer loop
      vertex 146.214 -37.1183 -45
      vertex 144.536 -36.5734 -46
      vertex 146.214 -37.1183 -46
    endloop
  endfacet
  facet normal -0.308855 0.951109 0
    outer loop
      vertex 146.214 -38.8817 -46
      vertex 144.536 -39.4266 -45
      vertex 146.214 -38.8817 -45
    endloop
  endfacet
  facet normal -0.308855 0.951109 0
    outer loop
      vertex 144.536 -39.4266 -45
      vertex 146.214 -38.8817 -46
      vertex 144.536 -39.4266 -46
    endloop
  endfacet
  facet normal 0.809148 0.587605 0
    outer loop
      vertex 144.536 -39.4266 -45
      vertex 143.5 -38 -46
      vertex 143.5 -38 -45
    endloop
  endfacet
  facet normal 0.809148 0.587605 0
    outer loop
      vertex 143.5 -38 -46
      vertex 144.536 -39.4266 -45
      vertex 144.536 -39.4266 -46
    endloop
  endfacet
  facet normal -1 0 0
    outer loop
      vertex 146.214 -38.8817 -46
      vertex 146.214 -37.1183 -45
      vertex 146.214 -37.1183 -46
    endloop
  endfacet
  facet normal -1 -0 0
    outer loop
      vertex 146.214 -37.1183 -45
      vertex 146.214 -38.8817 -46
      vertex 146.214 -38.8817 -45
    endloop
  endfacet
  facet normal 0.809148 -0.587605 0
    outer loop
      vertex 143.5 -38 -45
      vertex 144.536 -36.5734 -46
      vertex 144.536 -36.5734 -45
    endloop
  endfacet
  facet normal 0.809148 -0.587605 0
    outer loop
      vertex 144.536 -36.5734 -46
      vertex 143.5 -38 -45
      vertex 143.5 -38 -46
    endloop
  endfacet
  facet normal 1 -0 0
    outer loop
      vertex 140 -43 -42
      vertex 140 60 -45
      vertex 140 60 -42
    endloop
  endfacet
  facet normal 1 0 0
    outer loop
      vertex 140 60 -45
      vertex 140 -43 -42
      vertex 140 -43 -45
    endloop
  endfacet
  facet normal -0 0 1
    outer loop
      vertex 0.463525 -8.42658 -45
      vertex 1.5 -38 -45
      vertex 1.5 -7 -45
    endloop
  endfacet
  facet normal 0 0 1
    outer loop
      vertex 0.463525 -8.42658 -45
      vertex 0.463525 -36.5734 -45
      vertex 1.5 -38 -45
    endloop
  endfacet
  facet normal 0 0 1
    outer loop
      vertex -1.21352 -7.88168 -45
      vertex 0.463525 -36.5734 -45
      vertex 0.463525 -8.42658 -45
    endloop
  endfacet
  facet normal 0 0 1
    outer loop
      vertex 0.463525 -36.5734 -45
      vertex -1.21352 -7.88168 -45
      vertex -1.21352 -37.1183 -45
    endloop
  endfacet
  facet normal -0 0 1
    outer loop
      vertex 0.463525 22.5734 -45
      vertex 1.5 -7 -45
      vertex 1.5 24 -45
    endloop
  endfacet
  facet normal 0 0 1
    outer loop
      vertex 0.463525 22.5734 -45
      vertex 0.463525 -5.57341 -45
      vertex 1.5 -7 -45
    endloop
  endfacet
  facet normal 0 0 1
    outer loop
      vertex -1.21352 23.1183 -45
      vertex 0.463525 -5.57341 -45
      vertex 0.463525 22.5734 -45
    endloop
  endfacet
  facet normal 0 0 1
    outer loop
      vertex 0.463525 -5.57341 -45
      vertex -1.21352 23.1183 -45
      vertex -1.21352 -6.11832 -45
    endloop
  endfacet
  facet normal -0 0 1
    outer loop
      vertex 0.463525 53.5734 -45
      vertex 1.5 24 -45
      vertex 1.5 55 -45
    endloop
  endfacet
  facet normal 0 0 1
    outer loop
      vertex 0.463525 53.5734 -45
      vertex 0.463525 25.4266 -45
      vertex 1.5 24 -45
    endloop
  endfacet
  facet normal 0 0 1
    outer loop
      vertex -1.21352 54.1183 -45
      vertex 0.463525 25.4266 -45
      vertex 0.463525 53.5734 -45
    endloop
  endfacet
  facet normal 0 0 1
    outer loop
      vertex 0.463525 25.4266 -45
      vertex -1.21352 54.1183 -45
      vertex -1.21352 24.8817 -45
    endloop
  endfacet
  facet normal 0 0 1
    outer loop
      vertex 1.5 24 -45
      vertex 5 60 -45
      vertex 1.5 55 -45
    endloop
  endfacet
  facet normal 0 0 1
    outer loop
      vertex 5 60 -45
      vertex 0.463525 56.4266 -45
      vertex 1.5 55 -45
    endloop
  endfacet
  facet normal -0 0 1
    outer loop
      vertex -5 60 -45
      vertex 0.463525 56.4266 -45
      vertex 5 60 -45
    endloop
  endfacet
  facet normal 0 0 1
    outer loop
      vertex -5 60 -45
      vertex -1.21352 54.1183 -45
      vertex -1.21352 55.8817 -45
    endloop
  endfacet
  facet normal 0 0 1
    outer loop
      vertex -1.21352 54.1183 -45
      vertex -5 60 -45
      vertex -1.21352 24.8817 -45
    endloop
  endfacet
  facet normal 0 0 1
    outer loop
      vertex -1.21352 24.8817 -45
      vertex -5 60 -45
      vertex -1.21352 23.1183 -45
    endloop
  endfacet
  facet normal 0 0 1
    outer loop
      vertex -1.21352 23.1183 -45
      vertex -5 60 -45
      vertex -1.21352 -6.11832 -45
    endloop
  endfacet
  facet normal 0 0 1
    outer loop
      vertex -5 -43 -45
      vertex -1.21352 -6.11832 -45
      vertex -5 60 -45
    endloop
  endfacet
  facet normal 0 0 1
    outer loop
      vertex -1.21352 -6.11832 -45
      vertex -5 -43 -45
      vertex -1.21352 -7.88168 -45
    endloop
  endfacet
  facet normal 0 0 1
    outer loop
      vertex -1.21352 -7.88168 -45
      vertex -5 -43 -45
      vertex -1.21352 -37.1183 -45
    endloop
  endfacet
  facet normal 0 0 1
    outer loop
      vertex 0.463525 56.4266 -45
      vertex -5 60 -45
      vertex -1.21352 55.8817 -45
    endloop
  endfacet
  facet normal 0 0 1
    outer loop
      vertex 5 60 -45
      vertex 1.5 24 -45
      vertex 5 -43 -45
    endloop
  endfacet
  facet normal -0 0 1
    outer loop
      vertex 1.5 -7 -45
      vertex 5 -43 -45
      vertex 1.5 24 -45
    endloop
  endfacet
  facet normal -0 0 1
    outer loop
      vertex 1.5 -38 -45
      vertex 5 -43 -45
      vertex 1.5 -7 -45
    endloop
  endfacet
  facet normal -0 0 1
    outer loop
      vertex 0.463525 -39.4266 -45
      vertex 5 -43 -45
      vertex 1.5 -38 -45
    endloop
  endfacet
  facet normal 0 0 1
    outer loop
      vertex -5 -43 -45
      vertex 0.463525 -39.4266 -45
      vertex -1.21352 -38.8817 -45
    endloop
  endfacet
  facet normal 0 0 1
    outer loop
      vertex 0.463525 -39.4266 -45
      vertex -5 -43 -45
      vertex 5 -43 -45
    endloop
  endfacet
  facet normal 0 0 1
    outer loop
      vertex -1.21352 -37.1183 -45
      vertex -5 -43 -45
      vertex -1.21352 -38.8817 -45
    endloop
  endfacet
  facet normal -0 0 1
    outer loop
      vertex 144.536 -8.42658 -45
      vertex 146.214 -37.1183 -45
      vertex 146.214 -7.88168 -45
    endloop
  endfacet
  facet normal 0 0 1
    outer loop
      vertex 144.536 -8.42658 -45
      vertex 144.536 -36.5734 -45
      vertex 146.214 -37.1183 -45
    endloop
  endfacet
  facet normal 0 0 1
    outer loop
      vertex 143.5 -7 -45
      vertex 144.536 -36.5734 -45
      vertex 144.536 -8.42658 -45
    endloop
  endfacet
  facet normal 0 0 1
    outer loop
      vertex 144.536 -36.5734 -45
      vertex 143.5 -7 -45
      vertex 143.5 -38 -45
    endloop
  endfacet
  facet normal -0 0 1
    outer loop
      vertex 144.536 22.5734 -45
      vertex 146.214 -6.11832 -45
      vertex 146.214 23.1183 -45
    endloop
  endfacet
  facet normal 0 0 1
    outer loop
      vertex 144.536 22.5734 -45
      vertex 144.536 -5.57341 -45
      vertex 146.214 -6.11832 -45
    endloop
  endfacet
  facet normal 0 0 1
    outer loop
      vertex 143.5 24 -45
      vertex 144.536 -5.57341 -45
      vertex 144.536 22.5734 -45
    endloop
  endfacet
  facet normal 0 0 1
    outer loop
      vertex 144.536 -5.57341 -45
      vertex 143.5 24 -45
      vertex 143.5 -7 -45
    endloop
  endfacet
  facet normal -0 0 1
    outer loop
      vertex 144.536 53.5734 -45
      vertex 146.214 24.8817 -45
      vertex 146.214 54.1183 -45
    endloop
  endfacet
  facet normal 0 0 1
    outer loop
      vertex 144.536 53.5734 -45
      vertex 144.536 25.4266 -45
      vertex 146.214 24.8817 -45
    endloop
  endfacet
  facet normal 0 0 1
    outer loop
      vertex 143.5 55 -45
      vertex 144.536 25.4266 -45
      vertex 144.536 53.5734 -45
    endloop
  endfacet
  facet normal 0 0 1
    outer loop
      vertex 144.536 25.4266 -45
      vertex 143.5 55 -45
      vertex 143.5 24 -45
    endloop
  endfacet
  facet normal 0 0 1
    outer loop
      vertex 146.214 54.1183 -45
      vertex 150 60 -45
      vertex 146.214 55.8817 -45
    endloop
  endfacet
  facet normal 0 0 1
    outer loop
      vertex 150 60 -45
      vertex 144.536 56.4266 -45
      vertex 146.214 55.8817 -45
    endloop
  endfacet
  facet normal 0 0 1
    outer loop
      vertex 140 60 -45
      vertex 143.5 24 -45
      vertex 143.5 55 -45
    endloop
  endfacet
  facet normal 0 0 1
    outer loop
      vertex 143.5 24 -45
      vertex 140 60 -45
      vertex 143.5 -7 -45
    endloop
  endfacet
  facet normal 0 0 1
    outer loop
      vertex 140 -43 -45
      vertex 143.5 -7 -45
      vertex 140 60 -45
    endloop
  endfacet
  facet normal 0 0 1
    outer loop
      vertex 144.536 56.4266 -45
      vertex 140 60 -45
      vertex 143.5 55 -45
    endloop
  endfacet
  facet normal -0 0 1
    outer loop
      vertex 140 60 -45
      vertex 144.536 56.4266 -45
      vertex 150 60 -45
    endloop
  endfacet
  facet normal 0 0 1
    outer loop
      vertex 146.214 24.8817 -45
      vertex 150 60 -45
      vertex 146.214 54.1183 -45
    endloop
  endfacet
  facet normal 0 0 1
    outer loop
      vertex 146.214 23.1183 -45
      vertex 150 60 -45
      vertex 146.214 24.8817 -45
    endloop
  endfacet
  facet normal 0 0 1
    outer loop
      vertex 150 60 -45
      vertex 146.214 23.1183 -45
      vertex 150 -43 -45
    endloop
  endfacet
  facet normal -0 0 1
    outer loop
      vertex 146.214 -6.11832 -45
      vertex 150 -43 -45
      vertex 146.214 23.1183 -45
    endloop
  endfacet
  facet normal -0 0 1
    outer loop
      vertex 146.214 -7.88168 -45
      vertex 150 -43 -45
      vertex 146.214 -6.11832 -45
    endloop
  endfacet
  facet normal -0 0 1
    outer loop
      vertex 146.214 -37.1183 -45
      vertex 150 -43 -45
      vertex 146.214 -7.88168 -45
    endloop
  endfacet
  facet normal -0 0 1
    outer loop
      vertex 146.214 -38.8817 -45
      vertex 150 -43 -45
      vertex 146.214 -37.1183 -45
    endloop
  endfacet
  facet normal -0 0 1
    outer loop
      vertex 144.536 -39.4266 -45
      vertex 150 -43 -45
      vertex 146.214 -38.8817 -45
    endloop
  endfacet
  facet normal 0 0 1
    outer loop
      vertex 144.536 -39.4266 -45
      vertex 140 -43 -45
      vertex 150 -43 -45
    endloop
  endfacet
  facet normal 0 0 1
    outer loop
      vertex 143.5 -38 -45
      vertex 140 -43 -45
      vertex 144.536 -39.4266 -45
    endloop
  endfacet
  facet normal 0 0 1
    outer loop
      vertex 143.5 -7 -45
      vertex 140 -43 -45
      vertex 143.5 -38 -45
    endloop
  endfacet
  facet normal -0 0 1
    outer loop
      vertex 10 55 -45
      vertex 135 -38 -45
      vertex 135 55 -45
    endloop
  endfacet
  facet normal 0 0 1
    outer loop
      vertex 135 -38 -45
      vertex 10 55 -45
      vertex 10 -38 -45
    endloop
  endfacet
  facet normal 0 0 1
    outer loop
      vertex 140 60 -42
      vertex 135 55 -42
      vertex 140 -43 -42
    endloop
  endfacet
  facet normal 0 0 1
    outer loop
      vertex 140 60 -42
      vertex 10 55 -42
      vertex 135 55 -42
    endloop
  endfacet
  facet normal 0 0 1
    outer loop
      vertex 10 55 -42
      vertex 5 60 -42
      vertex 10 -38 -42
    endloop
  endfacet
  facet normal -0 0 1
    outer loop
      vertex 5 60 -42
      vertex 10 55 -42
      vertex 140 60 -42
    endloop
  endfacet
  facet normal -0 0 1
    outer loop
      vertex 135 -38 -42
      vertex 140 -43 -42
      vertex 135 55 -42
    endloop
  endfacet
  facet normal -0 0 1
    outer loop
      vertex 10 -38 -42
      vertex 140 -43 -42
      vertex 135 -38 -42
    endloop
  endfacet
  facet normal 0 0 1
    outer loop
      vertex 10 -38 -42
      vertex 5 -43 -42
      vertex 140 -43 -42
    endloop
  endfacet
  facet normal 0 0 1
    outer loop
      vertex 5 -43 -42
      vertex 10 -38 -42
      vertex 5 60 -42
    endloop
  endfacet
  facet normal -1 0 0
    outer loop
      vertex 5 -43 -45
      vertex 5 60 -42
      vertex 5 60 -45
    endloop
  endfacet
  facet normal -1 -0 0
    outer loop
      vertex 5 60 -42
      vertex 5 -43 -45
      vertex 5 -43 -42
    endloop
  endfacet
  facet normal 0 -1 0
    outer loop
      vertex -5 -43 -46
      vertex 5 -43 -45
      vertex -5 -43 -45
    endloop
  endfacet
  facet normal 0 -1 -0
    outer loop
      vertex 5 -43 -45
      vertex -5 -43 -46
      vertex 140 -43 -45
    endloop
  endfacet
  facet normal 0 -1 0
    outer loop
      vertex 150 -43 -46
      vertex 140 -43 -45
      vertex -5 -43 -46
    endloop
  endfacet
  facet normal 0 -1 0
    outer loop
      vertex 140 -43 -45
      vertex 150 -43 -46
      vertex 150 -43 -45
    endloop
  endfacet
  facet normal 0 -1 0
    outer loop
      vertex 5 -43 -45
      vertex 140 -43 -42
      vertex 5 -43 -42
    endloop
  endfacet
  facet normal 0 -1 -0
    outer loop
      vertex 140 -43 -42
      vertex 5 -43 -45
      vertex 140 -43 -45
    endloop
  endfacet
  facet normal 0 1 -0
    outer loop
      vertex 150 60 -46
      vertex 140 60 -45
      vertex 150 60 -45
    endloop
  endfacet
  facet normal 0 1 0
    outer loop
      vertex 140 60 -45
      vertex 150 60 -46
      vertex 5 60 -45
    endloop
  endfacet
  facet normal 0 1 0
    outer loop
      vertex -5 60 -46
      vertex 5 60 -45
      vertex 150 60 -46
    endloop
  endfacet
  facet normal 0 1 0
    outer loop
      vertex 5 60 -45
      vertex -5 60 -46
      vertex -5 60 -45
    endloop
  endfacet
  facet normal 0 1 -0
    outer loop
      vertex 140 60 -45
      vertex 5 60 -42
      vertex 140 60 -42
    endloop
  endfacet
  facet normal 0 1 0
    outer loop
      vertex 5 60 -42
      vertex 140 60 -45
      vertex 5 60 -45
    endloop
  endfacet
  facet normal -1 0 0
    outer loop
      vertex 135 -38 -45
      vertex 135 55 -42
      vertex 135 55 -45
    endloop
  endfacet
  facet normal -1 -0 0
    outer loop
      vertex 135 55 -42
      vertex 135 -38 -45
      vertex 135 -38 -42
    endloop
  endfacet
  facet normal 1 -0 0
    outer loop
      vertex 10 -38 -42
      vertex 10 55 -45
      vertex 10 55 -42
    endloop
  endfacet
  facet normal 1 0 0
    outer loop
      vertex 10 55 -45
      vertex 10 -38 -42
      vertex 10 -38 -45
    endloop
  endfacet
  facet normal 0 1 -0
    outer loop
      vertex 135 -38 -45
      vertex 10 -38 -42
      vertex 135 -38 -42
    endloop
  endfacet
  facet normal 0 1 0
    outer loop
      vertex 10 -38 -42
      vertex 135 -38 -45
      vertex 10 -38 -45
    endloop
  endfacet
  facet normal 0 -1 0
    outer loop
      vertex 10 55 -45
      vertex 135 55 -42
      vertex 10 55 -42
    endloop
  endfacet
  facet normal 0 -1 -0
    outer loop
      vertex 135 55 -42
      vertex 10 55 -45
      vertex 135 55 -45
    endloop
  endfacet
  facet normal 1 -0 0
    outer loop
      vertex 150 -43 -45
      vertex 150 60 -46
      vertex 150 60 -45
    endloop
  endfacet
  facet normal 1 0 0
    outer loop
      vertex 150 60 -46
      vertex 150 -43 -45
      vertex 150 -43 -46
    endloop
  endfacet
  facet normal 0 0 -1
    outer loop
      vertex 0.463525 25.4266 -46
      vertex 1.5 55 -46
      vertex 1.5 24 -46
    endloop
  endfacet
  facet normal 0 0 -1
    outer loop
      vertex 0.463525 25.4266 -46
      vertex 0.463525 53.5734 -46
      vertex 1.5 55 -46
    endloop
  endfacet
  facet normal 0 0 -1
    outer loop
      vertex -1.21352 24.8817 -46
      vertex 0.463525 53.5734 -46
      vertex 0.463525 25.4266 -46
    endloop
  endfacet
  facet normal -0 0 -1
    outer loop
      vertex 0.463525 53.5734 -46
      vertex -1.21352 24.8817 -46
      vertex -1.21352 54.1183 -46
    endloop
  endfacet
  facet normal 0 0 -1
    outer loop
      vertex 0.463525 -5.57341 -46
      vertex 1.5 24 -46
      vertex 1.5 -7 -46
    endloop
  endfacet
  facet normal 0 0 -1
    outer loop
      vertex 0.463525 -5.57341 -46
      vertex 0.463525 22.5734 -46
      vertex 1.5 24 -46
    endloop
  endfacet
  facet normal 0 0 -1
    outer loop
      vertex -1.21352 -6.11832 -46
      vertex 0.463525 22.5734 -46
      vertex 0.463525 -5.57341 -46
    endloop
  endfacet
  facet normal -0 0 -1
    outer loop
      vertex 0.463525 22.5734 -46
      vertex -1.21352 -6.11832 -46
      vertex -1.21352 23.1183 -46
    endloop
  endfacet
  facet normal 0 0 -1
    outer loop
      vertex 0.463525 -36.5734 -46
      vertex 1.5 -7 -46
      vertex 1.5 -38 -46
    endloop
  endfacet
  facet normal 0 0 -1
    outer loop
      vertex 0.463525 -36.5734 -46
      vertex 0.463525 -8.42658 -46
      vertex 1.5 -7 -46
    endloop
  endfacet
  facet normal 0 0 -1
    outer loop
      vertex -1.21352 -37.1183 -46
      vertex 0.463525 -8.42658 -46
      vertex 0.463525 -36.5734 -46
    endloop
  endfacet
  facet normal -0 0 -1
    outer loop
      vertex 0.463525 -8.42658 -46
      vertex -1.21352 -37.1183 -46
      vertex -1.21352 -7.88168 -46
    endloop
  endfacet
  facet normal 0 0 -1
    outer loop
      vertex 144.536 25.4266 -46
      vertex 146.214 54.1183 -46
      vertex 146.214 24.8817 -46
    endloop
  endfacet
  facet normal 0 0 -1
    outer loop
      vertex 144.536 25.4266 -46
      vertex 144.536 53.5734 -46
      vertex 146.214 54.1183 -46
    endloop
  endfacet
  facet normal 0 0 -1
    outer loop
      vertex 143.5 24 -46
      vertex 144.536 53.5734 -46
      vertex 144.536 25.4266 -46
    endloop
  endfacet
  facet normal -0 0 -1
    outer loop
      vertex 144.536 53.5734 -46
      vertex 143.5 24 -46
      vertex 143.5 55 -46
    endloop
  endfacet
  facet normal 0 0 -1
    outer loop
      vertex 144.536 -5.57341 -46
      vertex 146.214 23.1183 -46
      vertex 146.214 -6.11832 -46
    endloop
  endfacet
  facet normal 0 0 -1
    outer loop
      vertex 144.536 -5.57341 -46
      vertex 144.536 22.5734 -46
      vertex 146.214 23.1183 -46
    endloop
  endfacet
  facet normal 0 0 -1
    outer loop
      vertex 143.5 -7 -46
      vertex 144.536 22.5734 -46
      vertex 144.536 -5.57341 -46
    endloop
  endfacet
  facet normal -0 0 -1
    outer loop
      vertex 144.536 22.5734 -46
      vertex 143.5 -7 -46
      vertex 143.5 24 -46
    endloop
  endfacet
  facet normal 0 0 -1
    outer loop
      vertex 144.536 -36.5734 -46
      vertex 146.214 -7.88168 -46
      vertex 146.214 -37.1183 -46
    endloop
  endfacet
  facet normal 0 0 -1
    outer loop
      vertex 144.536 -36.5734 -46
      vertex 144.536 -8.42658 -46
      vertex 146.214 -7.88168 -46
    endloop
  endfacet
  facet normal 0 0 -1
    outer loop
      vertex 143.5 -38 -46
      vertex 144.536 -8.42658 -46
      vertex 144.536 -36.5734 -46
    endloop
  endfacet
  facet normal -0 0 -1
    outer loop
      vertex 144.536 -8.42658 -46
      vertex 143.5 -38 -46
      vertex 143.5 -7 -46
    endloop
  endfacet
  facet normal 0 0 -1
    outer loop
      vertex 146.214 -37.1183 -46
      vertex 150 -43 -46
      vertex 146.214 -38.8817 -46
    endloop
  endfacet
  facet normal 0 0 -1
    outer loop
      vertex 150 -43 -46
      vertex 144.536 -39.4266 -46
      vertex 146.214 -38.8817 -46
    endloop
  endfacet
  facet normal 0 0 -1
    outer loop
      vertex 1.5 -7 -46
      vertex 143.5 -7 -46
      vertex 143.5 -38 -46
    endloop
  endfacet
  facet normal 0 0 -1
    outer loop
      vertex 143.5 -7 -46
      vertex 1.5 -7 -46
      vertex 143.5 24 -46
    endloop
  endfacet
  facet normal 0 0 -1
    outer loop
      vertex 1.5 -7 -46
      vertex 143.5 -38 -46
      vertex 1.5 -38 -46
    endloop
  endfacet
  facet normal 0 0 -1
    outer loop
      vertex 144.536 -39.4266 -46
      vertex 1.5 -38 -46
      vertex 143.5 -38 -46
    endloop
  endfacet
  facet normal 0 0 -1
    outer loop
      vertex 0.463525 -39.4266 -46
      vertex 144.536 -39.4266 -46
      vertex 150 -43 -46
    endloop
  endfacet
  facet normal 0 0 -1
    outer loop
      vertex 144.536 -39.4266 -46
      vertex 0.463525 -39.4266 -46
      vertex 1.5 -38 -46
    endloop
  endfacet
  facet normal 0 0 -1
    outer loop
      vertex -5 -43 -46
      vertex -1.21352 -37.1183 -46
      vertex -1.21352 -38.8817 -46
    endloop
  endfacet
  facet normal -0 0 -1
    outer loop
      vertex -1.21352 -37.1183 -46
      vertex -5 -43 -46
      vertex -1.21352 -7.88168 -46
    endloop
  endfacet
  facet normal -0 0 -1
    outer loop
      vertex -1.21352 -7.88168 -46
      vertex -5 -43 -46
      vertex -1.21352 -6.11832 -46
    endloop
  endfacet
  facet normal -0 0 -1
    outer loop
      vertex -1.21352 -6.11832 -46
      vertex -5 -43 -46
      vertex -1.21352 23.1183 -46
    endloop
  endfacet
  facet normal 0 0 -1
    outer loop
      vertex -5 60 -46
      vertex -1.21352 23.1183 -46
      vertex -5 -43 -46
    endloop
  endfacet
  facet normal 0 0 -1
    outer loop
      vertex -1.21352 23.1183 -46
      vertex -5 60 -46
      vertex -1.21352 24.8817 -46
    endloop
  endfacet
  facet normal 0 0 -1
    outer loop
      vertex -1.21352 24.8817 -46
      vertex -5 60 -46
      vertex -1.21352 54.1183 -46
    endloop
  endfacet
  facet normal -0 0 -1
    outer loop
      vertex 0.463525 -39.4266 -46
      vertex -5 -43 -46
      vertex -1.21352 -38.8817 -46
    endloop
  endfacet
  facet normal 0 0 -1
    outer loop
      vertex -5 -43 -46
      vertex 0.463525 -39.4266 -46
      vertex 150 -43 -46
    endloop
  endfacet
  facet normal 0 0 -1
    outer loop
      vertex 146.214 -7.88168 -46
      vertex 150 -43 -46
      vertex 146.214 -37.1183 -46
    endloop
  endfacet
  facet normal 0 0 -1
    outer loop
      vertex 146.214 -6.11832 -46
      vertex 150 -43 -46
      vertex 146.214 -7.88168 -46
    endloop
  endfacet
  facet normal 0 0 -1
    outer loop
      vertex 150 -43 -46
      vertex 146.214 -6.11832 -46
      vertex 150 60 -46
    endloop
  endfacet
  facet normal 0 0 -1
    outer loop
      vertex 146.214 23.1183 -46
      vertex 150 60 -46
      vertex 146.214 -6.11832 -46
    endloop
  endfacet
  facet normal 0 0 -1
    outer loop
      vertex 146.214 24.8817 -46
      vertex 150 60 -46
      vertex 146.214 23.1183 -46
    endloop
  endfacet
  facet normal 0 0 -1
    outer loop
      vertex 146.214 54.1183 -46
      vertex 150 60 -46
      vertex 146.214 24.8817 -46
    endloop
  endfacet
  facet normal 0 0 -1
    outer loop
      vertex 146.214 55.8817 -46
      vertex 150 60 -46
      vertex 146.214 54.1183 -46
    endloop
  endfacet
  facet normal 0 0 -1
    outer loop
      vertex 144.536 56.4266 -46
      vertex 150 60 -46
      vertex 146.214 55.8817 -46
    endloop
  endfacet
  facet normal 0 0 -1
    outer loop
      vertex 1.5 24 -46
      vertex 143.5 24 -46
      vertex 1.5 -7 -46
    endloop
  endfacet
  facet normal 0 0 -1
    outer loop
      vertex 143.5 24 -46
      vertex 1.5 24 -46
      vertex 143.5 55 -46
    endloop
  endfacet
  facet normal 0 0 -1
    outer loop
      vertex 1.5 55 -46
      vertex 143.5 55 -46
      vertex 1.5 24 -46
    endloop
  endfacet
  facet normal 0 0 -1
    outer loop
      vertex 143.5 55 -46
      vertex 1.5 55 -46
      vertex 144.536 56.4266 -46
    endloop
  endfacet
  facet normal 0 0 -1
    outer loop
      vertex 0.463525 56.4266 -46
      vertex 144.536 56.4266 -46
      vertex 1.5 55 -46
    endloop
  endfacet
  facet normal 0 0 -1
    outer loop
      vertex 144.536 56.4266 -46
      vertex 0.463525 56.4266 -46
      vertex 150 60 -46
    endloop
  endfacet
  facet normal 0 0 -1
    outer loop
      vertex 0.463525 56.4266 -46
      vertex -5 60 -46
      vertex 150 60 -46
    endloop
  endfacet
  facet normal 0 0 -1
    outer loop
      vertex -1.21352 55.8817 -46
      vertex -5 60 -46
      vertex 0.463525 56.4266 -46
    endloop
  endfacet
  facet normal 0 0 -1
    outer loop
      vertex -1.21352 54.1183 -46
      vertex -5 60 -46
      vertex -1.21352 55.8817 -46
    endloop
  endfacet
  facet normal -1 0 0
    outer loop
      vertex -5 -43 -46
      vertex -5 60 -45
      vertex -5 60 -46
    endloop
  endfacet
  facet normal -1 -0 0
    outer loop
      vertex -5 60 -45
      vertex -5 -43 -46
      vertex -5 -43 -45
    endloop
  endfacet
endsolid OpenSCAD_Model
