solid OpenSCAD_Model
  facet normal -0.994522 -0.104528 -2.30417e-16
    outer loop
      vertex 0.404269 14.6536 -13
      vertex 2.22267e-15 18.5 -10.01
      vertex 2.88658e-15 18.5 -13
    endloop
  endfacet
  facet normal -0.994522 -0.104528 0
    outer loop
      vertex 2.22267e-15 18.5 -10.01
      vertex 0.404269 14.6536 -13
      vertex 0.404269 14.6536 -10.01
    endloop
  endfacet
  facet normal -0.406736 -0.913546 0
    outer loop
      vertex 9.25 2.47853 -13
      vertex 9.44221 2.39295 -10.01
      vertex 9.25 2.47853 -10.01
    endloop
  endfacet
  facet normal -0.406737 -0.913545 3.92178e-08
    outer loop
      vertex 9.44221 2.39295 -10.01
      vertex 9.25 2.47853 -13
      vertex 9.49963 2.36739 -13
    endloop
  endfacet
  facet normal -0.587785 -0.809017 9.48885e-08
    outer loop
      vertex 9.25 2.47853 -13
      vertex 9.07978 2.6022 -10.01
      vertex 9.02893 2.63914 -13
    endloop
  endfacet
  facet normal -0.587786 -0.809016 0
    outer loop
      vertex 9.07978 2.6022 -10.01
      vertex 9.25 2.47853 -13
      vertex 9.25 2.47853 -10.01
    endloop
  endfacet
  facet normal -0.951057 -0.309017 0
    outer loop
      vertex 1.59941 10.9754 -13
      vertex 0.404269 14.6536 -10.01
      vertex 0.404269 14.6536 -13
    endloop
  endfacet
  facet normal -0.951057 -0.309017 0
    outer loop
      vertex 0.404269 14.6536 -10.01
      vertex 1.59941 10.9754 -13
      vertex 1.59941 10.9754 -10.01
    endloop
  endfacet
  facet normal -0.866025 -0.5 0
    outer loop
      vertex 3.53319 7.62597 -13
      vertex 1.59941 10.9754 -10.01
      vertex 1.59941 10.9754 -13
    endloop
  endfacet
  facet normal -0.866025 -0.5 0
    outer loop
      vertex 1.59941 10.9754 -10.01
      vertex 3.53319 7.62597 -13
      vertex 3.53319 7.62597 -10.01
    endloop
  endfacet
  facet normal -0.207912 -0.978148 0
    outer loop
      vertex 12.7832 0.905454 -13
      vertex 16.5662 0.101344 -10.01
      vertex 12.7832 0.905454 -10.01
    endloop
  endfacet
  facet normal -0.207912 -0.978148 -0
    outer loop
      vertex 16.5662 0.101344 -10.01
      vertex 12.7832 0.905454 -13
      vertex 16.5662 0.101344 -13
    endloop
  endfacet
  facet normal -2.22045e-16 0 1
    outer loop
      vertex 17.8889 16.7385 3.97214e-15
      vertex 10.9847 8.23153 2.43908e-15
      vertex 12.2315 6.98465 2.71595e-15
    endloop
  endfacet
  facet normal -2.22045e-16 0 1
    outer loop
      vertex 3.03721 18.9702 6.74397e-16
      vertex 13.158 23.25 2.92167e-15
      vertex 9.88433 30.6028 2.19476e-15
    endloop
  endfacet
  facet normal -2.22045e-16 0 1
    outer loop
      vertex 3.44148 15.1239 7.64163e-16
      vertex 13.158 23.25 2.92167e-15
      vertex 3.03721 18.9702 6.74397e-16
    endloop
  endfacet
  facet normal -2.22045e-16 0 1
    outer loop
      vertex 17.8889 16.7385 3.97214e-15
      vertex 3.44148 15.1239 7.64163e-16
      vertex 4.28027 12.5423 9.5041e-16
    endloop
  endfacet
  facet normal -2.22045e-16 0 1
    outer loop
      vertex 3.03721 18.9702 6.74397e-16
      vertex 9.88433 30.6028 2.19476e-15
      vertex 8.21091 38.4757 1.82319e-15
    endloop
  endfacet
  facet normal -2.22045e-16 0 1
    outer loop
      vertex 9.88433 54.3972 2.19476e-15
      vertex 3.03721 91.1352 6.74397e-16
      vertex 8.21091 46.5243 1.82319e-15
    endloop
  endfacet
  facet normal -2.22045e-16 0 1
    outer loop
      vertex 17.8889 16.7385 3.97214e-15
      vertex 4.28027 12.5423 9.5041e-16
      vertex 10.9847 8.23153 2.43908e-15
    endloop
  endfacet
  facet normal -2.22045e-16 0 1
    outer loop
      vertex 9.41349 7.43099 2.09021e-15
      vertex 5.87436 9.78375 1.30437e-15
      vertex 8.46226 6.90959 1.879e-15
    endloop
  endfacet
  facet normal -2.22045e-16 0 1
    outer loop
      vertex 3.03721 18.9702 6.74397e-16
      vertex 8.21091 46.5243 1.82319e-15
      vertex 3.03721 91.1352 6.74397e-16
    endloop
  endfacet
  facet normal -2.22045e-16 0 1
    outer loop
      vertex 10.9847 8.23153 2.43908e-15
      vertex 5.87436 9.78375 1.30437e-15
      vertex 9.41349 7.43099 2.09021e-15
    endloop
  endfacet
  facet normal -2.22045e-16 0 1
    outer loop
      vertex 5.86745 9.79326 1.30284e-15
      vertex 10.9847 8.23153 2.43908e-15
      vertex 4.28027 12.5423 9.5041e-16
    endloop
  endfacet
  facet normal -2.22045e-16 0 1
    outer loop
      vertex 8.21091 46.5243 1.82319e-15
      vertex 3.03721 18.9702 6.74397e-16
      vertex 8.21091 38.4757 1.82319e-15
    endloop
  endfacet
  facet normal -2.22045e-16 0 1
    outer loop
      vertex 5.87436 9.78375 1.30437e-15
      vertex 10.9847 8.23153 2.43908e-15
      vertex 5.86745 9.79326 1.30284e-15
    endloop
  endfacet
  facet normal -2.22045e-16 0 1
    outer loop
      vertex 9.6305 6.06082 2.1384e-15
      vertex 9.41349 7.43099 2.09021e-15
      vertex 8.46226 6.90959 1.879e-15
    endloop
  endfacet
  facet normal -2.22045e-16 0 1
    outer loop
      vertex 85.8081 3.15133 1.90532e-14
      vertex 83.1157 30.6028 1.84554e-14
      vertex 83.5865 7.43099 1.85599e-14
    endloop
  endfacet
  facet normal -2.22045e-16 0 1
    outer loop
      vertex 79.842 23.25 1.77285e-14
      vertex 83.5865 7.43099 1.85599e-14
      vertex 83.1157 30.6028 1.84554e-14
    endloop
  endfacet
  facet normal -2.22045e-16 0 1
    outer loop
      vertex 83.5865 7.43099 1.85599e-14
      vertex 79.842 23.25 1.77285e-14
      vertex 82.0154 8.23153 1.82111e-14
    endloop
  endfacet
  facet normal -2.22045e-16 0 1
    outer loop
      vertex 75.1111 16.7385 1.6678e-14
      vertex 82.0154 8.23153 1.82111e-14
      vertex 79.842 23.25 1.77285e-14
    endloop
  endfacet
  facet normal -2.22045e-16 0 1
    outer loop
      vertex 85.8081 81.8487 1.90532e-14
      vertex 84.7891 46.5243 1.8827e-14
      vertex 85.8081 3.15133 1.90532e-14
    endloop
  endfacet
  facet normal -2.22045e-16 0 1
    outer loop
      vertex 83.1157 54.3972 1.84554e-14
      vertex 85.8081 81.8487 1.90532e-14
      vertex 83.5865 77.569 1.85599e-14
    endloop
  endfacet
  facet normal -2.22045e-16 0 1
    outer loop
      vertex 85.8081 81.8487 1.90532e-14
      vertex 83.3107 79.3107 1.84987e-14
      vertex 83.5865 77.569 1.85599e-14
    endloop
  endfacet
  facet normal -2.22045e-16 0 1
    outer loop
      vertex 80.6277 81.8487 1.79029e-14
      vertex 83.3107 79.3107 1.84987e-14
      vertex 85.8081 81.8487 1.90532e-14
    endloop
  endfacet
  facet normal -2.22045e-16 0 1
    outer loop
      vertex 80.5783 81.379 1.7892e-14
      vertex 81.569 79.5865 1.8112e-14
      vertex 80.6277 81.8487 1.79029e-14
    endloop
  endfacet
  facet normal -2.22045e-16 0 1
    outer loop
      vertex 83.3107 79.3107 1.84987e-14
      vertex 80.6277 81.8487 1.79029e-14
      vertex 81.569 79.5865 1.8112e-14
    endloop
  endfacet
  facet normal -2.22045e-16 0 1
    outer loop
      vertex 84.7891 38.4757 1.8827e-14
      vertex 85.8081 3.15133 1.90532e-14
      vertex 84.7891 46.5243 1.8827e-14
    endloop
  endfacet
  facet normal -2.22045e-16 0 1
    outer loop
      vertex 83.1157 30.6028 1.84554e-14
      vertex 85.8081 3.15133 1.90532e-14
      vertex 84.7891 38.4757 1.8827e-14
    endloop
  endfacet
  facet normal -2.22045e-16 0 1
    outer loop
      vertex 83.3107 5.68934 1.84987e-14
      vertex 85.8081 3.15133 1.90532e-14
      vertex 83.5865 7.43099 1.85599e-14
    endloop
  endfacet
  facet normal -2.22045e-16 0 1
    outer loop
      vertex 81.569 5.41349 1.8112e-14
      vertex 85.8081 3.15133 1.90532e-14
      vertex 83.3107 5.68934 1.84987e-14
    endloop
  endfacet
  facet normal -2.22045e-16 0 1
    outer loop
      vertex 82.0154 8.23153 1.82111e-14
      vertex 75.1111 16.7385 1.6678e-14
      vertex 80.7685 6.98465 1.79342e-14
    endloop
  endfacet
  facet normal -2.22045e-16 0 1
    outer loop
      vertex 69.1297 11.3528 1.53499e-14
      vertex 80.7685 6.98465 1.79342e-14
      vertex 75.1111 16.7385 1.6678e-14
    endloop
  endfacet
  facet normal -2.22045e-16 0 1
    outer loop
      vertex 80.7685 6.98465 1.79342e-14
      vertex 69.1297 11.3528 1.53499e-14
      vertex 81.569 5.41349 1.8112e-14
    endloop
  endfacet
  facet normal -2.22045e-16 0 1
    outer loop
      vertex 62.1594 7.3285 1.38022e-14
      vertex 81.569 5.41349 1.8112e-14
      vertex 69.1297 11.3528 1.53499e-14
    endloop
  endfacet
  facet normal -2.22045e-16 0 1
    outer loop
      vertex 81.569 5.41349 1.8112e-14
      vertex 62.1594 7.3285 1.38022e-14
      vertex 85.8081 3.15133 1.90532e-14
    endloop
  endfacet
  facet normal -2.22045e-16 0 1
    outer loop
      vertex 54.5046 4.84132 1.21025e-14
      vertex 85.8081 3.15133 1.90532e-14
      vertex 62.1594 7.3285 1.38022e-14
    endloop
  endfacet
  facet normal -2.22045e-16 0 1
    outer loop
      vertex 46.5 4 1.03251e-14
      vertex 85.8081 3.15133 1.90532e-14
      vertex 54.5046 4.84132 1.21025e-14
    endloop
  endfacet
  facet normal -2.22045e-16 0 1
    outer loop
      vertex 46.5 4 1.03251e-14
      vertex 18.5547 3.15133 4.11997e-15
      vertex 85.8081 3.15133 1.90532e-14
    endloop
  endfacet
  facet normal -2.22045e-16 0 1
    outer loop
      vertex 38.4954 4.84132 8.5477e-15
      vertex 18.5547 3.15133 4.11997e-15
      vertex 46.5 4 1.03251e-14
    endloop
  endfacet
  facet normal -2.22045e-16 0 1
    outer loop
      vertex 30.8406 7.3285 6.848e-15
      vertex 18.5547 3.15133 4.11997e-15
      vertex 38.4954 4.84132 8.5477e-15
    endloop
  endfacet
  facet normal -2.22045e-16 0 1
    outer loop
      vertex 23.8703 11.3528 5.30026e-15
      vertex 18.5547 3.15133 4.11997e-15
      vertex 30.8406 7.3285 6.848e-15
    endloop
  endfacet
  facet normal -2.22045e-16 0 1
    outer loop
      vertex 23.8703 11.3528 5.30026e-15
      vertex 18.2428 3.25268 4.05071e-15
      vertex 18.5547 3.15133 4.11997e-15
    endloop
  endfacet
  facet normal -2.22045e-16 0 1
    outer loop
      vertex 12.2315 6.98465 2.71595e-15
      vertex 23.8703 11.3528 5.30026e-15
      vertex 17.8889 16.7385 3.97214e-15
    endloop
  endfacet
  facet normal -2.22045e-16 0 1
    outer loop
      vertex 23.8703 11.3528 5.30026e-15
      vertex 12.2315 6.98465 2.71595e-15
      vertex 18.2428 3.25268 4.05071e-15
    endloop
  endfacet
  facet normal -2.22045e-16 0 1
    outer loop
      vertex 18.2428 3.25268 4.05071e-15
      vertex 12.2315 6.98465 2.71595e-15
      vertex 16.3159 3.25268 3.62286e-15
    endloop
  endfacet
  facet normal -2.22045e-16 0 1
    outer loop
      vertex 3.44148 15.1239 7.64163e-16
      vertex 17.8889 16.7385 3.97214e-15
      vertex 13.158 23.25 2.92167e-15
    endloop
  endfacet
  facet normal -2.22045e-16 0 1
    outer loop
      vertex 16.3159 3.25268 3.62286e-15
      vertex 12.2315 6.98465 2.71595e-15
      vertex 13.2216 3.9104 2.93578e-15
    endloop
  endfacet
  facet normal -2.22045e-16 0 1
    outer loop
      vertex 12.2315 6.98465 2.71595e-15
      vertex 11.917 4.49122 2.64611e-15
      vertex 13.2216 3.9104 2.93578e-15
    endloop
  endfacet
  facet normal -2.22045e-16 0 1
    outer loop
      vertex 11.431 5.41349 2.53819e-15
      vertex 11.917 4.49122 2.64611e-15
      vertex 12.2315 6.98465 2.71595e-15
    endloop
  endfacet
  facet normal -2.22045e-16 0 1
    outer loop
      vertex 11.917 4.49122 2.64611e-15
      vertex 11.431 5.41349 2.53819e-15
      vertex 11.5912 4.6363 2.57376e-15
    endloop
  endfacet
  facet normal -2.22045e-16 0 1
    outer loop
      vertex 11.5912 4.6363 2.57376e-15
      vertex 11.431 5.41349 2.53819e-15
      vertex 10.2679 5.5977 2.27994e-15
    endloop
  endfacet
  facet normal -2.22045e-16 0 1
    outer loop
      vertex 85.8081 81.8487 1.90532e-14
      vertex 83.1157 54.3972 1.84554e-14
      vertex 84.7891 46.5243 1.8827e-14
    endloop
  endfacet
  facet normal -2.22045e-16 0 1
    outer loop
      vertex 79.842 61.75 1.77285e-14
      vertex 83.5865 77.569 1.85599e-14
      vertex 82.0154 76.7685 1.82111e-14
    endloop
  endfacet
  facet normal -2.22045e-16 0 1
    outer loop
      vertex 79.2217 77.2037 1.75907e-14
      vertex 82.0154 76.7685 1.82111e-14
      vertex 80.7685 78.0154 1.79342e-14
    endloop
  endfacet
  facet normal -2.22045e-16 0 1
    outer loop
      vertex 81.569 79.5865 1.8112e-14
      vertex 80.5783 81.379 1.7892e-14
      vertex 80.7685 78.0154 1.79342e-14
    endloop
  endfacet
  facet normal -2.22045e-16 0 1
    outer loop
      vertex 83.5865 77.569 1.85599e-14
      vertex 79.842 61.75 1.77285e-14
      vertex 83.1157 54.3972 1.84554e-14
    endloop
  endfacet
  facet normal -2.22045e-16 0 1
    outer loop
      vertex 79.2217 77.2037 1.75907e-14
      vertex 80.7685 78.0154 1.79342e-14
      vertex 80.5783 81.379 1.7892e-14
    endloop
  endfacet
  facet normal -2.22045e-16 0 1
    outer loop
      vertex 82.0154 76.7685 1.82111e-14
      vertex 79.2217 77.2037 1.75907e-14
      vertex 78.5187 75.5067 1.74347e-14
    endloop
  endfacet
  facet normal -2.22045e-16 0 1
    outer loop
      vertex 82.0154 76.7685 1.82111e-14
      vertex 78.5187 75.5067 1.74347e-14
      vertex 78.5187 75.5066 1.74347e-14
    endloop
  endfacet
  facet normal -2.22045e-16 0 1
    outer loop
      vertex 76.7189 72.3892 1.7035e-14
      vertex 82.0154 76.7685 1.82111e-14
      vertex 78.5187 75.5066 1.74347e-14
    endloop
  endfacet
  facet normal -2.22045e-16 0 1
    outer loop
      vertex 82.0154 76.7685 1.82111e-14
      vertex 76.7189 72.3892 1.7035e-14
      vertex 79.842 61.75 1.77285e-14
    endloop
  endfacet
  facet normal -2.22045e-16 0 1
    outer loop
      vertex 76.7189 72.3892 1.7035e-14
      vertex 76.3266 71.7097 1.69479e-14
      vertex 79.842 61.75 1.77285e-14
    endloop
  endfacet
  facet normal -2.22045e-16 0 1
    outer loop
      vertex 76.3266 71.7097 1.69479e-14
      vertex 75.1111 68.2615 1.6678e-14
      vertex 79.842 61.75 1.77285e-14
    endloop
  endfacet
  facet normal -2.22045e-16 0 1
    outer loop
      vertex 74.0868 69.2222 1.64506e-14
      vertex 75.1111 68.2615 1.6678e-14
      vertex 76.3266 71.7097 1.69479e-14
    endloop
  endfacet
  facet normal -2.22045e-16 0 1
    outer loop
      vertex 75.1111 68.2615 1.6678e-14
      vertex 74.0868 69.2222 1.64506e-14
      vertex 74.0677 69.201 1.64463e-14
    endloop
  endfacet
  facet normal -2.22045e-16 0 1
    outer loop
      vertex 15.128 83.692 3.3591e-15
      vertex 11.431 79.5865 2.53819e-15
      vertex 12.2315 78.0154 2.71595e-15
    endloop
  endfacet
  facet normal -2.22045e-16 0 1
    outer loop
      vertex 12.5691 84.5782 2.79089e-15
      vertex 9.68934 79.3107 2.15147e-15
      vertex 11.431 79.5865 2.53819e-15
    endloop
  endfacet
  facet normal -2.22045e-16 0 1
    outer loop
      vertex 8.56382 86.3614 1.90155e-15
      vertex 9.68934 79.3107 2.15147e-15
      vertex 9.2473 86.0571 2.05331e-15
    endloop
  endfacet
  facet normal -2.22045e-16 0 1
    outer loop
      vertex 9.2473 86.0571 2.05331e-15
      vertex 9.68934 79.3107 2.15147e-15
      vertex 12.5691 84.5782 2.79089e-15
    endloop
  endfacet
  facet normal -2.22045e-16 0 1
    outer loop
      vertex 28.0638 78.5672 6.23142e-15
      vertex 23.8703 73.6472 5.30026e-15
      vertex 30.5076 77.4792 6.77404e-15
    endloop
  endfacet
  facet normal -2.22045e-16 0 1
    outer loop
      vertex 26.6687 79.5808 5.92164e-15
      vertex 23.8703 73.6472 5.30026e-15
      vertex 28.0638 78.5672 6.23142e-15
    endloop
  endfacet
  facet normal -2.22045e-16 0 1
    outer loop
      vertex 22.9899 82.2536 5.10478e-15
      vertex 23.8703 73.6472 5.30026e-15
      vertex 26.6687 79.5808 5.92164e-15
    endloop
  endfacet
  facet normal -2.22045e-16 0 1
    outer loop
      vertex 18.5546 82.9637 4.11995e-15
      vertex 22.9899 82.2536 5.10478e-15
      vertex 22.3505 82.9637 4.96282e-15
    endloop
  endfacet
  facet normal -2.22045e-16 0 1
    outer loop
      vertex 22.9899 82.2536 5.10478e-15
      vertex 18.5546 82.9637 4.11995e-15
      vertex 23.8703 73.6472 5.30026e-15
    endloop
  endfacet
  facet normal -2.22045e-16 0 1
    outer loop
      vertex 12.2315 78.0154 2.71595e-15
      vertex 23.8703 73.6472 5.30026e-15
      vertex 18.5546 82.9637 4.11995e-15
    endloop
  endfacet
  facet normal -2.22045e-16 0 1
    outer loop
      vertex 12.2315 78.0154 2.71595e-15
      vertex 18.5546 82.9637 4.11995e-15
      vertex 15.128 83.692 3.3591e-15
    endloop
  endfacet
  facet normal -2.22045e-16 0 1
    outer loop
      vertex 11.431 79.5865 2.53819e-15
      vertex 15.128 83.692 3.3591e-15
      vertex 14.2661 83.8753 3.16772e-15
    endloop
  endfacet
  facet normal -2.22045e-16 0 1
    outer loop
      vertex 23.8703 73.6472 5.30026e-15
      vertex 12.2315 78.0154 2.71595e-15
      vertex 17.8889 68.2615 3.97214e-15
    endloop
  endfacet
  facet normal -2.22045e-16 0 1
    outer loop
      vertex 11.431 79.5865 2.53819e-15
      vertex 14.2661 83.8753 3.16772e-15
      vertex 12.5691 84.5782 2.79089e-15
    endloop
  endfacet
  facet normal -2.22045e-16 0 1
    outer loop
      vertex 10.9847 76.7685 2.43908e-15
      vertex 17.8889 68.2615 3.97214e-15
      vertex 12.2315 78.0154 2.71595e-15
    endloop
  endfacet
  facet normal -2.22045e-16 0 1
    outer loop
      vertex 17.8889 68.2615 3.97214e-15
      vertex 10.9847 76.7685 2.43908e-15
      vertex 13.158 61.75 2.92167e-15
    endloop
  endfacet
  facet normal -2.22045e-16 0 1
    outer loop
      vertex 9.41349 77.569 2.09021e-15
      vertex 13.158 61.75 2.92167e-15
      vertex 10.9847 76.7685 2.43908e-15
    endloop
  endfacet
  facet normal -2.22045e-16 0 1
    outer loop
      vertex 13.158 61.75 2.92167e-15
      vertex 9.41349 77.569 2.09021e-15
      vertex 9.88433 54.3972 2.19476e-15
    endloop
  endfacet
  facet normal -2.22045e-16 0 1
    outer loop
      vertex 6.39058 87.9404 1.41899e-15
      vertex 9.68934 79.3107 2.15147e-15
      vertex 8.56382 86.3614 1.90155e-15
    endloop
  endfacet
  facet normal -2.22045e-16 0 1
    outer loop
      vertex 5.01208 88.9419 1.1129e-15
      vertex 9.68934 79.3107 2.15147e-15
      vertex 6.39058 87.9404 1.41899e-15
    endloop
  endfacet
  facet normal -2.22045e-16 0 1
    outer loop
      vertex 9.68934 79.3107 2.15147e-15
      vertex 5.01208 88.9419 1.1129e-15
      vertex 9.41349 77.569 2.09021e-15
    endloop
  endfacet
  facet normal -2.22045e-16 0 1
    outer loop
      vertex 9.41349 77.569 2.09021e-15
      vertex 3.03721 91.1352 6.74397e-16
      vertex 9.88433 54.3972 2.19476e-15
    endloop
  endfacet
  facet normal -2.22045e-16 0 1
    outer loop
      vertex 3.03721 91.1352 6.74397e-16
      vertex 9.41349 77.569 2.09021e-15
      vertex 5.01208 88.9419 1.1129e-15
    endloop
  endfacet
  facet normal -0.406737 -0.913545 3.98368e-08
    outer loop
      vertex 9.49963 2.36739 -13
      vertex 12.7832 0.905454 -10.01
      vertex 9.44221 2.39295 -10.01
    endloop
  endfacet
  facet normal -0.406737 -0.913545 -0
    outer loop
      vertex 12.7832 0.905454 -10.01
      vertex 9.49963 2.36739 -13
      vertex 12.7832 0.905454 -13
    endloop
  endfacet
  facet normal -0.743145 -0.669131 0
    outer loop
      vertex 6.12108 4.75182 -13
      vertex 3.53319 7.62597 -10.01
      vertex 3.53319 7.62597 -13
    endloop
  endfacet
  facet normal -0.743145 -0.669131 0
    outer loop
      vertex 3.53319 7.62597 -10.01
      vertex 6.12108 4.75182 -13
      vertex 6.12108 4.75182 -10.01
    endloop
  endfacet
  facet normal -0.587785 -0.809017 0
    outer loop
      vertex 9.02893 2.63914 -13
      vertex 6.12108 4.75182 -10.01
      vertex 6.12108 4.75182 -13
    endloop
  endfacet
  facet normal -0.587785 -0.809017 9.36364e-08
    outer loop
      vertex 6.12108 4.75182 -10.01
      vertex 9.02893 2.63914 -13
      vertex 9.07978 2.6022 -10.01
    endloop
  endfacet
  facet normal 0 -1 0
    outer loop
      vertex 16.5662 0.101344 -13
      vertex 18.5 0.101344 -10.01
      vertex 16.5662 0.101344 -10.01
    endloop
  endfacet
  facet normal 0 -1 -0
    outer loop
      vertex 18.5 0.101344 -10.01
      vertex 16.5662 0.101344 -13
      vertex 18.5 0.101344 -13
    endloop
  endfacet
  facet normal -1 0 0
    outer loop
      vertex 18.5 0 -13
      vertex 18.5 0.101344 -10.01
      vertex 18.5 0.101344 -13
    endloop
  endfacet
  facet normal -1 -0 0
    outer loop
      vertex 18.5 0.101344 -10.01
      vertex 18.5 0 -13
      vertex 18.5 0 -10.01
    endloop
  endfacet
  facet normal 0 1 0
    outer loop
      vertex 5.55112e-15 107 -13
      vertex 2.22267e-15 107 -10.01
      vertex 4.22329e-15 107 -10.01
    endloop
  endfacet
  facet normal 0 1 0
    outer loop
      vertex 2.22267e-15 107 -10.01
      vertex 5.55112e-15 107 -13
      vertex 2.88658e-15 107 -13
    endloop
  endfacet
  facet normal -1 0 -2.22045e-16
    outer loop
      vertex 2.88658e-15 18.5 -13
      vertex 2.22267e-15 107 -10.01
      vertex 2.88658e-15 107 -13
    endloop
  endfacet
  facet normal -1 -0 -2.22045e-16
    outer loop
      vertex 2.22267e-15 107 -10.01
      vertex 2.88658e-15 18.5 -13
      vertex 2.22267e-15 18.5 -10.01
    endloop
  endfacet
  facet normal 1 -0 0
    outer loop
      vertex 89 0 -10.01
      vertex 89 85 -13
      vertex 89 85 -10.01
    endloop
  endfacet
  facet normal 1 0 0
    outer loop
      vertex 89 85 -13
      vertex 89 0 -10.01
      vertex 89 0 -13
    endloop
  endfacet
  facet normal 0 -1 0
    outer loop
      vertex 18.5 0 -13
      vertex 89 0 -10.01
      vertex 18.5 0 -10.01
    endloop
  endfacet
  facet normal 0 -1 -0
    outer loop
      vertex 89 0 -10.01
      vertex 18.5 0 -13
      vertex 89 0 -13
    endloop
  endfacet
  facet normal 0.994522 0.104529 4.73635e-16
    outer loop
      vertex 0.4589 102.634 -10.01
      vertex 5.55112e-15 107 -13
      vertex 4.22329e-15 107 -10.01
    endloop
  endfacet
  facet normal 0.994522 0.104529 0
    outer loop
      vertex 5.55112e-15 107 -13
      vertex 0.4589 102.634 -10.01
      vertex 0.4589 102.634 -13
    endloop
  endfacet
  facet normal 0 1 -0
    outer loop
      vertex 23.1951 86.115 -13
      vertex 18.8049 86.115 -10.01
      vertex 23.1951 86.115 -10.01
    endloop
  endfacet
  facet normal 0 1 0
    outer loop
      vertex 18.8049 86.115 -10.01
      vertex 23.1951 86.115 -13
      vertex 18.8049 86.115 -13
    endloop
  endfacet
  facet normal 0.207912 0.978148 -0
    outer loop
      vertex 18.8049 86.115 -13
      vertex 14.5106 87.0278 -10.01
      vertex 18.8049 86.115 -10.01
    endloop
  endfacet
  facet normal 0.207912 0.978148 0
    outer loop
      vertex 14.5106 87.0278 -10.01
      vertex 18.8049 86.115 -13
      vertex 14.5106 87.0278 -13
    endloop
  endfacet
  facet normal 0.406736 0.913546 -0
    outer loop
      vertex 14.5106 87.0278 -13
      vertex 10.5 88.8135 -10.01
      vertex 14.5106 87.0278 -10.01
    endloop
  endfacet
  facet normal 0.406736 0.913546 0
    outer loop
      vertex 10.5 88.8135 -10.01
      vertex 14.5106 87.0278 -13
      vertex 10.5 88.8135 -13
    endloop
  endfacet
  facet normal 0.587785 0.809017 -0
    outer loop
      vertex 10.5 88.8135 -13
      vertex 6.94826 91.394 -10.01
      vertex 10.5 88.8135 -10.01
    endloop
  endfacet
  facet normal 0.587785 0.809017 0
    outer loop
      vertex 6.94826 91.394 -10.01
      vertex 10.5 88.8135 -13
      vertex 6.94826 91.394 -13
    endloop
  endfacet
  facet normal 0.866026 0.5 0
    outer loop
      vertex 4.01064 94.6565 -10.01
      vertex 1.81555 98.4585 -13
      vertex 1.81555 98.4585 -10.01
    endloop
  endfacet
  facet normal 0.866026 0.5 0
    outer loop
      vertex 1.81555 98.4585 -13
      vertex 4.01064 94.6565 -10.01
      vertex 4.01064 94.6565 -13
    endloop
  endfacet
  facet normal 0.743145 0.669131 0
    outer loop
      vertex 6.94826 91.394 -10.01
      vertex 4.01064 94.6565 -13
      vertex 4.01064 94.6565 -10.01
    endloop
  endfacet
  facet normal 0.743145 0.669131 0
    outer loop
      vertex 4.01064 94.6565 -13
      vertex 6.94826 91.394 -10.01
      vertex 6.94826 91.394 -13
    endloop
  endfacet
  facet normal 0.951056 0.309017 0
    outer loop
      vertex 1.81555 98.4585 -10.01
      vertex 0.4589 102.634 -13
      vertex 0.4589 102.634 -10.01
    endloop
  endfacet
  facet normal 0.951056 0.309017 0
    outer loop
      vertex 0.4589 102.634 -13
      vertex 1.81555 98.4585 -10.01
      vertex 1.81555 98.4585 -13
    endloop
  endfacet
  facet normal 0.587785 0.809017 -0
    outer loop
      vertex 30 81.0192 -13
      vertex 24.9261 84.7057 -10.01
      vertex 30 81.0192 -10.01
    endloop
  endfacet
  facet normal 0.587785 0.809017 0
    outer loop
      vertex 24.9261 84.7057 -10.01
      vertex 30 81.0192 -13
      vertex 24.9261 84.7057 -13
    endloop
  endfacet
  facet normal 0.406737 0.913545 -0
    outer loop
      vertex 34.7015 78.926 -13
      vertex 30 81.0192 -10.01
      vertex 34.7015 78.926 -10.01
    endloop
  endfacet
  facet normal 0.406737 0.913545 0
    outer loop
      vertex 30 81.0192 -10.01
      vertex 34.7015 78.926 -13
      vertex 30 81.0192 -13
    endloop
  endfacet
  facet normal 0.743145 0.66913 0
    outer loop
      vertex 24.9261 84.7057 -10.01
      vertex 23.5829 86.1975 -13
      vertex 23.5829 86.1975 -10.01
    endloop
  endfacet
  facet normal 0.743145 0.66913 0
    outer loop
      vertex 23.5829 86.1975 -13
      vertex 24.9261 84.7057 -10.01
      vertex 24.9261 84.7057 -13
    endloop
  endfacet
  facet normal -0.994522 0.10453 0
    outer loop
      vertex 77.5411 81.8492 -13
      vertex 77.8723 85 -10.01
      vertex 77.8723 85 -13
    endloop
  endfacet
  facet normal -0.994522 0.10453 0
    outer loop
      vertex 77.8723 85 -10.01
      vertex 77.5411 81.8492 -13
      vertex 77.5411 81.8492 -10.01
    endloop
  endfacet
  facet normal -0.866025 0.500001 0
    outer loop
      vertex 73.9894 73.8719 -13
      vertex 76.1845 77.6739 -10.01
      vertex 76.1845 77.6739 -13
    endloop
  endfacet
  facet normal -0.866025 0.500001 0
    outer loop
      vertex 76.1845 77.6739 -10.01
      vertex 73.9894 73.8719 -13
      vertex 73.9894 73.8719 -10.01
    endloop
  endfacet
  facet normal -0.951057 0.309017 0
    outer loop
      vertex 76.1845 77.6739 -13
      vertex 77.5411 81.8492 -10.01
      vertex 77.5411 81.8492 -13
    endloop
  endfacet
  facet normal -0.951057 0.309017 0
    outer loop
      vertex 77.5411 81.8492 -10.01
      vertex 76.1845 77.6739 -13
      vertex 76.1845 77.6739 -10.01
    endloop
  endfacet
  facet normal -0.743146 0.669129 0
    outer loop
      vertex 71.7018 71.3313 -13
      vertex 73.9894 73.8719 -10.01
      vertex 73.9894 73.8719 -13
    endloop
  endfacet
  facet normal -0.743146 0.669129 0
    outer loop
      vertex 73.9894 73.8719 -10.01
      vertex 71.7018 71.3313 -13
      vertex 71.7018 71.3313 -10.01
    endloop
  endfacet
  facet normal -0.207912 0.978148 0
    outer loop
      vertex 23.5829 86.1975 -13
      vertex 23.1951 86.115 -10.01
      vertex 23.5829 86.1975 -10.01
    endloop
  endfacet
  facet normal -0.207912 0.978148 0
    outer loop
      vertex 23.1951 86.115 -10.01
      vertex 23.5829 86.1975 -13
      vertex 23.1951 86.115 -13
    endloop
  endfacet
  facet normal 0 1 -0
    outer loop
      vertex 89 85 -13
      vertex 77.8723 85 -10.01
      vertex 89 85 -10.01
    endloop
  endfacet
  facet normal 0 1 0
    outer loop
      vertex 77.8723 85 -10.01
      vertex 89 85 -13
      vertex 77.8723 85 -13
    endloop
  endfacet
  facet normal 0 0 -1
    outer loop
      vertex 16.5662 0.101344 -13
      vertex 11.431 5.41349 -13
      vertex 12.2315 6.98465 -13
    endloop
  endfacet
  facet normal 0 0 -1
    outer loop
      vertex 9.49963 2.36739 -13
      vertex 11.431 5.41349 -13
      vertex 12.7832 0.905454 -13
    endloop
  endfacet
  facet normal -0 0 -1
    outer loop
      vertex 11.431 5.41349 -13
      vertex 9.49963 2.36739 -13
      vertex 9.68934 5.68934 -13
    endloop
  endfacet
  facet normal 0 0 -1
    outer loop
      vertex 9.02893 2.63914 -13
      vertex 9.68934 5.68934 -13
      vertex 9.49963 2.36739 -13
    endloop
  endfacet
  facet normal 0 0 -1
    outer loop
      vertex 9.02893 2.63914 -13
      vertex 9.49963 2.36739 -13
      vertex 9.25 2.47853 -13
    endloop
  endfacet
  facet normal 0 0 -1
    outer loop
      vertex 89 85 -13
      vertex 83.1157 54.3972 -13
      vertex 83.5865 77.569 -13
    endloop
  endfacet
  facet normal 0 0 -1
    outer loop
      vertex 79.842 61.75 -13
      vertex 83.5865 77.569 -13
      vertex 83.1157 54.3972 -13
    endloop
  endfacet
  facet normal 0 0 -1
    outer loop
      vertex 83.5865 77.569 -13
      vertex 79.842 61.75 -13
      vertex 82.0154 76.7685 -13
    endloop
  endfacet
  facet normal 0 0 -1
    outer loop
      vertex 75.1111 68.2615 -13
      vertex 82.0154 76.7685 -13
      vertex 79.842 61.75 -13
    endloop
  endfacet
  facet normal 0 0 -1
    outer loop
      vertex 89 0 -13
      vertex 84.7891 38.4757 -13
      vertex 89 85 -13
    endloop
  endfacet
  facet normal 0 0 -1
    outer loop
      vertex 83.1157 30.6028 -13
      vertex 89 0 -13
      vertex 83.5865 7.43099 -13
    endloop
  endfacet
  facet normal 0 0 -1
    outer loop
      vertex 89 0 -13
      vertex 83.3107 5.68934 -13
      vertex 83.5865 7.43099 -13
    endloop
  endfacet
  facet normal 0 0 -1
    outer loop
      vertex 89 0 -13
      vertex 81.569 5.41349 -13
      vertex 83.3107 5.68934 -13
    endloop
  endfacet
  facet normal 0 0 -1
    outer loop
      vertex 82.0154 8.23153 -13
      vertex 75.1111 16.7385 -13
      vertex 79.842 23.25 -13
    endloop
  endfacet
  facet normal 0 0 -1
    outer loop
      vertex 69.1297 11.3528 -13
      vertex 80.7685 6.98465 -13
      vertex 81.569 5.41349 -13
    endloop
  endfacet
  facet normal 0 0 -1
    outer loop
      vertex 80.7685 6.98465 -13
      vertex 69.1297 11.3528 -13
      vertex 75.1111 16.7385 -13
    endloop
  endfacet
  facet normal 0 0 -1
    outer loop
      vertex 62.1594 7.3285 -13
      vertex 81.569 5.41349 -13
      vertex 89 0 -13
    endloop
  endfacet
  facet normal 0 0 -1
    outer loop
      vertex 81.569 5.41349 -13
      vertex 62.1594 7.3285 -13
      vertex 69.1297 11.3528 -13
    endloop
  endfacet
  facet normal 0 0 -1
    outer loop
      vertex 89 0 -13
      vertex 54.5046 4.84132 -13
      vertex 62.1594 7.3285 -13
    endloop
  endfacet
  facet normal 0 0 -1
    outer loop
      vertex 89 0 -13
      vertex 46.5 4 -13
      vertex 54.5046 4.84132 -13
    endloop
  endfacet
  facet normal 0 0 -1
    outer loop
      vertex 18.5 0 -13
      vertex 46.5 4 -13
      vertex 89 0 -13
    endloop
  endfacet
  facet normal 0 0 -1
    outer loop
      vertex 18.5 0 -13
      vertex 38.4954 4.84132 -13
      vertex 46.5 4 -13
    endloop
  endfacet
  facet normal 0 0 -1
    outer loop
      vertex 18.5 0 -13
      vertex 30.8406 7.3285 -13
      vertex 38.4954 4.84132 -13
    endloop
  endfacet
  facet normal 0 0 -1
    outer loop
      vertex 18.5 0.101344 -13
      vertex 30.8406 7.3285 -13
      vertex 18.5 0 -13
    endloop
  endfacet
  facet normal -0 0 -1
    outer loop
      vertex 30.8406 7.3285 -13
      vertex 18.5 0.101344 -13
      vertex 23.8703 11.3528 -13
    endloop
  endfacet
  facet normal 0 0 -1
    outer loop
      vertex 12.2315 6.98465 -13
      vertex 23.8703 11.3528 -13
      vertex 18.5 0.101344 -13
    endloop
  endfacet
  facet normal 0 0 -1
    outer loop
      vertex 12.2315 6.98465 -13
      vertex 18.5 0.101344 -13
      vertex 16.5662 0.101344 -13
    endloop
  endfacet
  facet normal -0 0 -1
    outer loop
      vertex 23.8703 11.3528 -13
      vertex 12.2315 6.98465 -13
      vertex 17.8889 16.7385 -13
    endloop
  endfacet
  facet normal 0 0 -1
    outer loop
      vertex 11.431 5.41349 -13
      vertex 16.5662 0.101344 -13
      vertex 12.7832 0.905454 -13
    endloop
  endfacet
  facet normal 0 0 -1
    outer loop
      vertex 10.9847 8.23153 -13
      vertex 17.8889 16.7385 -13
      vertex 12.2315 6.98465 -13
    endloop
  endfacet
  facet normal -0 0 -1
    outer loop
      vertex 17.8889 16.7385 -13
      vertex 10.9847 8.23153 -13
      vertex 13.158 23.25 -13
    endloop
  endfacet
  facet normal 0 0 -1
    outer loop
      vertex 0.404269 14.6536 -13
      vertex 13.158 23.25 -13
      vertex 10.9847 8.23153 -13
    endloop
  endfacet
  facet normal 0 0 -1
    outer loop
      vertex 1.59941 10.9754 -13
      vertex 10.9847 8.23153 -13
      vertex 9.41349 7.43099 -13
    endloop
  endfacet
  facet normal 0 0 -1
    outer loop
      vertex 6.12108 4.75182 -13
      vertex 9.68934 5.68934 -13
      vertex 9.02893 2.63914 -13
    endloop
  endfacet
  facet normal -0 0 -1
    outer loop
      vertex 9.68934 5.68934 -13
      vertex 6.12108 4.75182 -13
      vertex 9.41349 7.43099 -13
    endloop
  endfacet
  facet normal 0 0 -1
    outer loop
      vertex 3.53319 7.62597 -13
      vertex 9.41349 7.43099 -13
      vertex 6.12108 4.75182 -13
    endloop
  endfacet
  facet normal 0 0 -1
    outer loop
      vertex 2.88658e-15 18.5 -13
      vertex 8.21091 46.5243 -13
      vertex 8.21091 38.4757 -13
    endloop
  endfacet
  facet normal -0 0 -1
    outer loop
      vertex 9.88433 30.6028 -13
      vertex 2.88658e-15 18.5 -13
      vertex 8.21091 38.4757 -13
    endloop
  endfacet
  facet normal 0 0 -1
    outer loop
      vertex 1.59941 10.9754 -13
      vertex 9.41349 7.43099 -13
      vertex 3.53319 7.62597 -13
    endloop
  endfacet
  facet normal -0 0 -1
    outer loop
      vertex 8.21091 46.5243 -13
      vertex 2.88658e-15 18.5 -13
      vertex 1.81555 98.4585 -13
    endloop
  endfacet
  facet normal 0 0 -1
    outer loop
      vertex 10.9847 8.23153 -13
      vertex 1.59941 10.9754 -13
      vertex 0.404269 14.6536 -13
    endloop
  endfacet
  facet normal 0 0 -1
    outer loop
      vertex 8.21091 46.5243 -13
      vertex 4.01064 94.6565 -13
      vertex 6.94826 91.394 -13
    endloop
  endfacet
  facet normal 0 0 -1
    outer loop
      vertex 13.158 23.25 -13
      vertex 0.404269 14.6536 -13
      vertex 2.88658e-15 18.5 -13
    endloop
  endfacet
  facet normal 0 0 -1
    outer loop
      vertex 8.21091 46.5243 -13
      vertex 1.81555 98.4585 -13
      vertex 4.01064 94.6565 -13
    endloop
  endfacet
  facet normal -0 0 -1
    outer loop
      vertex 13.158 23.25 -13
      vertex 2.88658e-15 18.5 -13
      vertex 9.88433 30.6028 -13
    endloop
  endfacet
  facet normal -0 0 -1
    outer loop
      vertex 1.81555 98.4585 -13
      vertex 2.88658e-15 18.5 -13
      vertex 0.4589 102.634 -13
    endloop
  endfacet
  facet normal 0 0 -1
    outer loop
      vertex 2.88658e-15 107 -13
      vertex 0.4589 102.634 -13
      vertex 2.88658e-15 18.5 -13
    endloop
  endfacet
  facet normal 0 0 -1
    outer loop
      vertex 0.4589 102.634 -13
      vertex 2.88658e-15 107 -13
      vertex 5.55112e-15 107 -13
    endloop
  endfacet
  facet normal 0 0 -1
    outer loop
      vertex 84.7891 46.5243 -13
      vertex 89 85 -13
      vertex 84.7891 38.4757 -13
    endloop
  endfacet
  facet normal 0 0 -1
    outer loop
      vertex 83.1157 54.3972 -13
      vertex 89 85 -13
      vertex 84.7891 46.5243 -13
    endloop
  endfacet
  facet normal 0 0 -1
    outer loop
      vertex 83.3107 79.3107 -13
      vertex 89 85 -13
      vertex 83.5865 77.569 -13
    endloop
  endfacet
  facet normal 0 0 -1
    outer loop
      vertex 77.8723 85 -13
      vertex 83.3107 79.3107 -13
      vertex 81.569 79.5865 -13
    endloop
  endfacet
  facet normal 0 0 -1
    outer loop
      vertex 83.3107 79.3107 -13
      vertex 77.8723 85 -13
      vertex 89 85 -13
    endloop
  endfacet
  facet normal 0 0 -1
    outer loop
      vertex 77.5411 81.8492 -13
      vertex 81.569 79.5865 -13
      vertex 80.7685 78.0154 -13
    endloop
  endfacet
  facet normal 0 0 -1
    outer loop
      vertex 73.9894 73.8719 -13
      vertex 82.0154 76.7685 -13
      vertex 75.1111 68.2615 -13
    endloop
  endfacet
  facet normal 0 0 -1
    outer loop
      vertex 81.569 79.5865 -13
      vertex 77.5411 81.8492 -13
      vertex 77.8723 85 -13
    endloop
  endfacet
  facet normal -0 0 -1
    outer loop
      vertex 80.7685 78.0154 -13
      vertex 76.1845 77.6739 -13
      vertex 77.5411 81.8492 -13
    endloop
  endfacet
  facet normal 0 -0 -1
    outer loop
      vertex 76.1845 77.6739 -13
      vertex 82.0154 76.7685 -13
      vertex 73.9894 73.8719 -13
    endloop
  endfacet
  facet normal 0 0 -1
    outer loop
      vertex 82.0154 76.7685 -13
      vertex 76.1845 77.6739 -13
      vertex 80.7685 78.0154 -13
    endloop
  endfacet
  facet normal 0 -0 -1
    outer loop
      vertex 73.9894 73.8719 -13
      vertex 75.1111 68.2615 -13
      vertex 71.7018 71.3313 -13
    endloop
  endfacet
  facet normal 0 0 -1
    outer loop
      vertex 89 0 -13
      vertex 83.1157 30.6028 -13
      vertex 84.7891 38.4757 -13
    endloop
  endfacet
  facet normal 0 0 -1
    outer loop
      vertex 79.842 23.25 -13
      vertex 83.5865 7.43099 -13
      vertex 82.0154 8.23153 -13
    endloop
  endfacet
  facet normal 0 0 -1
    outer loop
      vertex 75.1111 16.7385 -13
      vertex 82.0154 8.23153 -13
      vertex 80.7685 6.98465 -13
    endloop
  endfacet
  facet normal 0 0 -1
    outer loop
      vertex 83.5865 7.43099 -13
      vertex 79.842 23.25 -13
      vertex 83.1157 30.6028 -13
    endloop
  endfacet
  facet normal 0 0 -1
    outer loop
      vertex 17.8889 68.2615 -13
      vertex 10.9847 76.7685 -13
      vertex 12.2315 78.0154 -13
    endloop
  endfacet
  facet normal 0 0 -1
    outer loop
      vertex 9.41349 77.569 -13
      vertex 13.158 61.75 -13
      vertex 9.88433 54.3972 -13
    endloop
  endfacet
  facet normal 0 0 -1
    outer loop
      vertex 13.158 61.75 -13
      vertex 9.41349 77.569 -13
      vertex 10.9847 76.7685 -13
    endloop
  endfacet
  facet normal 0 -0 -1
    outer loop
      vertex 9.41349 77.569 -13
      vertex 9.88433 54.3972 -13
      vertex 8.21091 46.5243 -13
    endloop
  endfacet
  facet normal 0 0 -1
    outer loop
      vertex 30.8406 77.6715 -13
      vertex 30 81.0192 -13
      vertex 34.7015 78.926 -13
    endloop
  endfacet
  facet normal 0 0 -1
    outer loop
      vertex 23.8703 73.6472 -13
      vertex 30 81.0192 -13
      vertex 30.8406 77.6715 -13
    endloop
  endfacet
  facet normal -0 0 -1
    outer loop
      vertex 30 81.0192 -13
      vertex 23.8703 73.6472 -13
      vertex 24.9261 84.7057 -13
    endloop
  endfacet
  facet normal 0 0 -1
    outer loop
      vertex 18.8049 86.115 -13
      vertex 24.9261 84.7057 -13
      vertex 23.8703 73.6472 -13
    endloop
  endfacet
  facet normal 0 0 -1
    outer loop
      vertex 24.9261 84.7057 -13
      vertex 23.1951 86.115 -13
      vertex 23.5829 86.1975 -13
    endloop
  endfacet
  facet normal 0 0 -1
    outer loop
      vertex 24.9261 84.7057 -13
      vertex 18.8049 86.115 -13
      vertex 23.1951 86.115 -13
    endloop
  endfacet
  facet normal 0 0 -1
    outer loop
      vertex 12.2315 78.0154 -13
      vertex 23.8703 73.6472 -13
      vertex 17.8889 68.2615 -13
    endloop
  endfacet
  facet normal 0 0 -1
    outer loop
      vertex 23.8703 73.6472 -13
      vertex 12.2315 78.0154 -13
      vertex 18.8049 86.115 -13
    endloop
  endfacet
  facet normal 0 0 -1
    outer loop
      vertex 10.9847 76.7685 -13
      vertex 17.8889 68.2615 -13
      vertex 13.158 61.75 -13
    endloop
  endfacet
  facet normal 0 0 -1
    outer loop
      vertex 11.431 79.5865 -13
      vertex 18.8049 86.115 -13
      vertex 12.2315 78.0154 -13
    endloop
  endfacet
  facet normal -0 0 -1
    outer loop
      vertex 18.8049 86.115 -13
      vertex 11.431 79.5865 -13
      vertex 14.5106 87.0278 -13
    endloop
  endfacet
  facet normal 0 0 -1
    outer loop
      vertex 11.431 79.5865 -13
      vertex 10.5 88.8135 -13
      vertex 14.5106 87.0278 -13
    endloop
  endfacet
  facet normal 0 0 -1
    outer loop
      vertex 9.68934 79.3107 -13
      vertex 10.5 88.8135 -13
      vertex 11.431 79.5865 -13
    endloop
  endfacet
  facet normal 0 0 -1
    outer loop
      vertex 6.94826 91.394 -13
      vertex 9.68934 79.3107 -13
      vertex 9.41349 77.569 -13
    endloop
  endfacet
  facet normal 0 0 -1
    outer loop
      vertex 9.68934 79.3107 -13
      vertex 6.94826 91.394 -13
      vertex 10.5 88.8135 -13
    endloop
  endfacet
  facet normal 0 0 -1
    outer loop
      vertex 6.94826 91.394 -13
      vertex 9.41349 77.569 -13
      vertex 8.21091 46.5243 -13
    endloop
  endfacet
  facet normal 0 0 1
    outer loop
      vertex 30 81.0192 -10.01
      vertex 30.8406 77.6715 -10.01
      vertex 34.7015 78.926 -10.01
    endloop
  endfacet
  facet normal -0 0 1
    outer loop
      vertex 28.0638 78.5672 -10.01
      vertex 30.8406 77.6715 -10.01
      vertex 30 81.0192 -10.01
    endloop
  endfacet
  facet normal 0 0 1
    outer loop
      vertex 30.8406 77.6715 -10.01
      vertex 28.0638 78.5672 -10.01
      vertex 30.5076 77.4792 -10.01
    endloop
  endfacet
  facet normal 0 0 1
    outer loop
      vertex 30 81.0192 -10.01
      vertex 26.6687 79.5808 -10.01
      vertex 28.0638 78.5672 -10.01
    endloop
  endfacet
  facet normal 0 0 1
    outer loop
      vertex 24.9261 84.7057 -10.01
      vertex 26.6687 79.5808 -10.01
      vertex 30 81.0192 -10.01
    endloop
  endfacet
  facet normal -0 0 1
    outer loop
      vertex 23.1951 86.115 -10.01
      vertex 24.9261 84.7057 -10.01
      vertex 23.5829 86.1975 -10.01
    endloop
  endfacet
  facet normal 0 0 1
    outer loop
      vertex 24.9261 84.7057 -10.01
      vertex 23.1951 86.115 -10.01
      vertex 22.3505 82.9637 -10.01
    endloop
  endfacet
  facet normal 0 0 1
    outer loop
      vertex 24.9261 84.7057 -10.01
      vertex 22.9899 82.2536 -10.01
      vertex 26.6687 79.5808 -10.01
    endloop
  endfacet
  facet normal 0 0 1
    outer loop
      vertex 24.9261 84.7057 -10.01
      vertex 22.3505 82.9637 -10.01
      vertex 22.9899 82.2536 -10.01
    endloop
  endfacet
  facet normal -0 0 1
    outer loop
      vertex 18.8049 86.115 -10.01
      vertex 22.3505 82.9637 -10.01
      vertex 23.1951 86.115 -10.01
    endloop
  endfacet
  facet normal 0 0 1
    outer loop
      vertex 18.8049 86.115 -10.01
      vertex 18.5546 82.9637 -10.01
      vertex 22.3505 82.9637 -10.01
    endloop
  endfacet
  facet normal 0 0 1
    outer loop
      vertex 18.8049 86.115 -10.01
      vertex 15.128 83.692 -10.01
      vertex 18.5546 82.9637 -10.01
    endloop
  endfacet
  facet normal 0 0 1
    outer loop
      vertex 14.5106 87.0278 -10.01
      vertex 15.128 83.692 -10.01
      vertex 18.8049 86.115 -10.01
    endloop
  endfacet
  facet normal 0 0 1
    outer loop
      vertex 14.5106 87.0278 -10.01
      vertex 14.2661 83.8753 -10.01
      vertex 15.128 83.692 -10.01
    endloop
  endfacet
  facet normal 0 0 1
    outer loop
      vertex 14.5106 87.0278 -10.01
      vertex 12.5691 84.5782 -10.01
      vertex 14.2661 83.8753 -10.01
    endloop
  endfacet
  facet normal 0 0 1
    outer loop
      vertex 10.5 88.8135 -10.01
      vertex 12.5691 84.5782 -10.01
      vertex 14.5106 87.0278 -10.01
    endloop
  endfacet
  facet normal 0 0 1
    outer loop
      vertex 10.5 88.8135 -10.01
      vertex 9.2473 86.0571 -10.01
      vertex 12.5691 84.5782 -10.01
    endloop
  endfacet
  facet normal 0 0 1
    outer loop
      vertex 10.5 88.8135 -10.01
      vertex 8.56382 86.3614 -10.01
      vertex 9.2473 86.0571 -10.01
    endloop
  endfacet
  facet normal 0 0 1
    outer loop
      vertex 6.39058 87.9404 -10.01
      vertex 10.5 88.8135 -10.01
      vertex 6.94826 91.394 -10.01
    endloop
  endfacet
  facet normal 0 0 1
    outer loop
      vertex 10.5 88.8135 -10.01
      vertex 6.39058 87.9404 -10.01
      vertex 8.56382 86.3614 -10.01
    endloop
  endfacet
  facet normal 0 0 1
    outer loop
      vertex 6.94826 91.394 -10.01
      vertex 5.01208 88.9419 -10.01
      vertex 6.39058 87.9404 -10.01
    endloop
  endfacet
  facet normal 0 0 1
    outer loop
      vertex 3.03721 91.1352 -10.01
      vertex 6.94826 91.394 -10.01
      vertex 4.01064 94.6565 -10.01
    endloop
  endfacet
  facet normal 0 0 1
    outer loop
      vertex 6.94826 91.394 -10.01
      vertex 3.03721 91.1352 -10.01
      vertex 5.01208 88.9419 -10.01
    endloop
  endfacet
  facet normal 0 0 1
    outer loop
      vertex 0.4589 102.634 -10.01
      vertex 3.03721 91.1352 -10.01
      vertex 1.81555 98.4585 -10.01
    endloop
  endfacet
  facet normal 0 0 1
    outer loop
      vertex 1.81555 98.4585 -10.01
      vertex 3.03721 91.1352 -10.01
      vertex 4.01064 94.6565 -10.01
    endloop
  endfacet
  facet normal 0 0 1
    outer loop
      vertex 89 85 -10.01
      vertex 85.8081 81.8487 -10.01
      vertex 89 0 -10.01
    endloop
  endfacet
  facet normal -0 0 1
    outer loop
      vertex 77.8723 85 -10.01
      vertex 85.8081 81.8487 -10.01
      vertex 89 85 -10.01
    endloop
  endfacet
  facet normal 0 0 1
    outer loop
      vertex 77.5411 81.8492 -10.01
      vertex 80.5783 81.379 -10.01
      vertex 80.6277 81.8487 -10.01
    endloop
  endfacet
  facet normal 0 0 1
    outer loop
      vertex 80.5783 81.379 -10.01
      vertex 77.5411 81.8492 -10.01
      vertex 79.2217 77.2037 -10.01
    endloop
  endfacet
  facet normal 0 0 1
    outer loop
      vertex 79.2217 77.2037 -10.01
      vertex 76.1845 77.6739 -10.01
      vertex 78.5187 75.5067 -10.01
    endloop
  endfacet
  facet normal 0 0 1
    outer loop
      vertex 85.8081 81.8487 -10.01
      vertex 77.8723 85 -10.01
      vertex 80.6277 81.8487 -10.01
    endloop
  endfacet
  facet normal -0 0 1
    outer loop
      vertex 77.5411 81.8492 -10.01
      vertex 80.6277 81.8487 -10.01
      vertex 77.8723 85 -10.01
    endloop
  endfacet
  facet normal 0 0 1
    outer loop
      vertex 79.2217 77.2037 -10.01
      vertex 77.5411 81.8492 -10.01
      vertex 76.1845 77.6739 -10.01
    endloop
  endfacet
  facet normal 0 0 1
    outer loop
      vertex 78.5187 75.5067 -10.01
      vertex 76.1845 77.6739 -10.01
      vertex 78.5187 75.5066 -10.01
    endloop
  endfacet
  facet normal 0 0 1
    outer loop
      vertex 73.9894 73.8719 -10.01
      vertex 78.5187 75.5066 -10.01
      vertex 76.1845 77.6739 -10.01
    endloop
  endfacet
  facet normal 0 0 1
    outer loop
      vertex 78.5187 75.5066 -10.01
      vertex 73.9894 73.8719 -10.01
      vertex 76.7189 72.3892 -10.01
    endloop
  endfacet
  facet normal 0 0 1
    outer loop
      vertex 76.7189 72.3892 -10.01
      vertex 73.9894 73.8719 -10.01
      vertex 76.3266 71.7097 -10.01
    endloop
  endfacet
  facet normal 0 0 1
    outer loop
      vertex 76.3266 71.7097 -10.01
      vertex 73.9894 73.8719 -10.01
      vertex 74.0868 69.2222 -10.01
    endloop
  endfacet
  facet normal -0 0 1
    outer loop
      vertex 71.7018 71.3313 -10.01
      vertex 74.0868 69.2222 -10.01
      vertex 73.9894 73.8719 -10.01
    endloop
  endfacet
  facet normal 0 0 1
    outer loop
      vertex 74.0868 69.2222 -10.01
      vertex 71.7018 71.3313 -10.01
      vertex 74.0677 69.201 -10.01
    endloop
  endfacet
  facet normal -0 0 1
    outer loop
      vertex 85.8081 3.15133 -10.01
      vertex 89 0 -10.01
      vertex 85.8081 81.8487 -10.01
    endloop
  endfacet
  facet normal 0 0 1
    outer loop
      vertex 18.5 0.101344 -10.01
      vertex 85.8081 3.15133 -10.01
      vertex 18.5547 3.15133 -10.01
    endloop
  endfacet
  facet normal 0 0 1
    outer loop
      vertex 18.5 0 -10.01
      vertex 85.8081 3.15133 -10.01
      vertex 18.5 0.101344 -10.01
    endloop
  endfacet
  facet normal 0 0 1
    outer loop
      vertex 85.8081 3.15133 -10.01
      vertex 18.5 0 -10.01
      vertex 89 0 -10.01
    endloop
  endfacet
  facet normal 0 0 1
    outer loop
      vertex 18.2428 3.25268 -10.01
      vertex 18.5 0.101344 -10.01
      vertex 18.5547 3.15133 -10.01
    endloop
  endfacet
  facet normal 0 0 1
    outer loop
      vertex 18.2428 3.25268 -10.01
      vertex 16.5662 0.101344 -10.01
      vertex 18.5 0.101344 -10.01
    endloop
  endfacet
  facet normal -0 0 1
    outer loop
      vertex 16.3159 3.25268 -10.01
      vertex 16.5662 0.101344 -10.01
      vertex 18.2428 3.25268 -10.01
    endloop
  endfacet
  facet normal 0 0 1
    outer loop
      vertex 12.7832 0.905454 -10.01
      vertex 16.3159 3.25268 -10.01
      vertex 13.2216 3.9104 -10.01
    endloop
  endfacet
  facet normal 0 0 1
    outer loop
      vertex 16.3159 3.25268 -10.01
      vertex 12.7832 0.905454 -10.01
      vertex 16.5662 0.101344 -10.01
    endloop
  endfacet
  facet normal 0 0 1
    outer loop
      vertex 11.917 4.49122 -10.01
      vertex 12.7832 0.905454 -10.01
      vertex 13.2216 3.9104 -10.01
    endloop
  endfacet
  facet normal 0 0 1
    outer loop
      vertex 9.44221 2.39295 -10.01
      vertex 11.917 4.49122 -10.01
      vertex 11.5912 4.6363 -10.01
    endloop
  endfacet
  facet normal 0 0 1
    outer loop
      vertex 9.07978 2.6022 -10.01
      vertex 11.5912 4.6363 -10.01
      vertex 10.2679 5.5977 -10.01
    endloop
  endfacet
  facet normal 0 0 1
    outer loop
      vertex 9.07978 2.6022 -10.01
      vertex 10.2679 5.5977 -10.01
      vertex 9.68934 5.68934 -10.01
    endloop
  endfacet
  facet normal 0 0 1
    outer loop
      vertex 11.917 4.49122 -10.01
      vertex 9.44221 2.39295 -10.01
      vertex 12.7832 0.905454 -10.01
    endloop
  endfacet
  facet normal 0 0 1
    outer loop
      vertex 8.46226 6.90959 -10.01
      vertex 9.68934 5.68934 -10.01
      vertex 9.6305 6.06082 -10.01
    endloop
  endfacet
  facet normal 0 0 1
    outer loop
      vertex 11.5912 4.6363 -10.01
      vertex 9.07978 2.6022 -10.01
      vertex 9.44221 2.39295 -10.01
    endloop
  endfacet
  facet normal 0 0 1
    outer loop
      vertex 9.44221 2.39295 -10.01
      vertex 9.07978 2.6022 -10.01
      vertex 9.25 2.47853 -10.01
    endloop
  endfacet
  facet normal 0 0 1
    outer loop
      vertex 9.68934 5.68934 -10.01
      vertex 8.46226 6.90959 -10.01
      vertex 6.12108 4.75182 -10.01
    endloop
  endfacet
  facet normal 0 0 1
    outer loop
      vertex 9.68934 5.68934 -10.01
      vertex 6.12108 4.75182 -10.01
      vertex 9.07978 2.6022 -10.01
    endloop
  endfacet
  facet normal -0 0 1
    outer loop
      vertex 3.53319 7.62597 -10.01
      vertex 8.46226 6.90959 -10.01
      vertex 5.87436 9.78375 -10.01
    endloop
  endfacet
  facet normal 0 0 1
    outer loop
      vertex 3.53319 7.62597 -10.01
      vertex 5.87436 9.78375 -10.01
      vertex 5.86745 9.79326 -10.01
    endloop
  endfacet
  facet normal -0 0 1
    outer loop
      vertex 1.59941 10.9754 -10.01
      vertex 5.86745 9.79326 -10.01
      vertex 4.28027 12.5423 -10.01
    endloop
  endfacet
  facet normal 0 0 1
    outer loop
      vertex 8.46226 6.90959 -10.01
      vertex 3.53319 7.62597 -10.01
      vertex 6.12108 4.75182 -10.01
    endloop
  endfacet
  facet normal -0 0 1
    outer loop
      vertex 0.404269 14.6536 -10.01
      vertex 4.28027 12.5423 -10.01
      vertex 3.44148 15.1239 -10.01
    endloop
  endfacet
  facet normal -0 0 1
    outer loop
      vertex 2.22267e-15 18.5 -10.01
      vertex 3.44148 15.1239 -10.01
      vertex 3.03721 18.9702 -10.01
    endloop
  endfacet
  facet normal 0 0 1
    outer loop
      vertex 5.86745 9.79326 -10.01
      vertex 1.59941 10.9754 -10.01
      vertex 3.53319 7.62597 -10.01
    endloop
  endfacet
  facet normal 0 0 1
    outer loop
      vertex 3.03721 91.1352 -10.01
      vertex 2.22267e-15 18.5 -10.01
      vertex 3.03721 18.9702 -10.01
    endloop
  endfacet
  facet normal 0 0 1
    outer loop
      vertex 3.03721 91.1352 -10.01
      vertex 0.4589 102.634 -10.01
      vertex 2.22267e-15 18.5 -10.01
    endloop
  endfacet
  facet normal 0 0 1
    outer loop
      vertex 3.44148 15.1239 -10.01
      vertex 2.22267e-15 18.5 -10.01
      vertex 0.404269 14.6536 -10.01
    endloop
  endfacet
  facet normal -0 0 1
    outer loop
      vertex 2.22267e-15 107 -10.01
      vertex 0.4589 102.634 -10.01
      vertex 4.22329e-15 107 -10.01
    endloop
  endfacet
  facet normal 0 0 1
    outer loop
      vertex 0.4589 102.634 -10.01
      vertex 2.22267e-15 107 -10.01
      vertex 2.22267e-15 18.5 -10.01
    endloop
  endfacet
  facet normal 0 0 1
    outer loop
      vertex 4.28027 12.5423 -10.01
      vertex 0.404269 14.6536 -10.01
      vertex 1.59941 10.9754 -10.01
    endloop
  endfacet
  facet normal -0.951057 -0.309017 0
    outer loop
      vertex 4.28027 12.5423 -10.01
      vertex 3.44148 15.1239 7.64163e-16
      vertex 3.44148 15.1239 -10.01
    endloop
  endfacet
  facet normal -0.951057 -0.309017 0
    outer loop
      vertex 3.44148 15.1239 7.64163e-16
      vertex 4.28027 12.5423 -10.01
      vertex 4.28027 12.5423 9.5041e-16
    endloop
  endfacet
  facet normal -0.743145 -0.669131 0
    outer loop
      vertex 8.46226 6.90959 -10.01
      vertex 5.87436 9.78375 1.30437e-15
      vertex 5.87436 9.78375 -10.01
    endloop
  endfacet
  facet normal -0.743145 -0.669131 0
    outer loop
      vertex 5.87436 9.78375 1.30437e-15
      vertex 8.46226 6.90959 -10.01
      vertex 8.46226 6.90959 1.879e-15
    endloop
  endfacet
  facet normal 0 -1 0
    outer loop
      vertex 18.5547 3.15133 -10.01
      vertex 85.8081 3.15133 1.90532e-14
      vertex 18.5547 3.15133 4.11997e-15
    endloop
  endfacet
  facet normal 0 -1 -0
    outer loop
      vertex 85.8081 3.15133 1.90532e-14
      vertex 18.5547 3.15133 -10.01
      vertex 85.8081 3.15133 -10.01
    endloop
  endfacet
  facet normal 0 -1 0
    outer loop
      vertex 16.3159 3.25268 -10.01
      vertex 18.2428 3.25268 4.05071e-15
      vertex 16.3159 3.25268 3.62286e-15
    endloop
  endfacet
  facet normal 0 -1 -0
    outer loop
      vertex 18.2428 3.25268 4.05071e-15
      vertex 16.3159 3.25268 -10.01
      vertex 18.2428 3.25268 -10.01
    endloop
  endfacet
  facet normal -0.309017 -0.951056 0
    outer loop
      vertex 18.2428 3.25268 -10.01
      vertex 18.5547 3.15133 4.11997e-15
      vertex 18.2428 3.25268 4.05071e-15
    endloop
  endfacet
  facet normal -0.309017 -0.951056 -0
    outer loop
      vertex 18.5547 3.15133 4.11997e-15
      vertex 18.2428 3.25268 -10.01
      vertex 18.5547 3.15133 -10.01
    endloop
  endfacet
  facet normal -0.406737 -0.913545 0
    outer loop
      vertex 11.917 4.49122 -10.01
      vertex 13.2216 3.9104 2.93578e-15
      vertex 11.917 4.49122 2.64611e-15
    endloop
  endfacet
  facet normal -0.406737 -0.913545 -0
    outer loop
      vertex 13.2216 3.9104 2.93578e-15
      vertex 11.917 4.49122 -10.01
      vertex 13.2216 3.9104 -10.01
    endloop
  endfacet
  facet normal -0.587785 -0.809017 0
    outer loop
      vertex 10.2679 5.5977 -10.01
      vertex 11.5912 4.6363 2.57376e-15
      vertex 10.2679 5.5977 2.27994e-15
    endloop
  endfacet
  facet normal -0.587785 -0.809017 -0
    outer loop
      vertex 11.5912 4.6363 2.57376e-15
      vertex 10.2679 5.5977 -10.01
      vertex 11.5912 4.6363 -10.01
    endloop
  endfacet
  facet normal -0.587785 -0.809017 0
    outer loop
      vertex 8.46226 6.90959 -10.01
      vertex 9.6305 6.06082 2.1384e-15
      vertex 8.46226 6.90959 1.879e-15
    endloop
  endfacet
  facet normal -0.587785 -0.809017 -0
    outer loop
      vertex 9.6305 6.06082 2.1384e-15
      vertex 8.46226 6.90959 -10.01
      vertex 9.6305 6.06082 -10.01
    endloop
  endfacet
  facet normal 0 1 -0
    outer loop
      vertex 85.8081 81.8487 -10.01
      vertex 80.6277 81.8487 1.79029e-14
      vertex 85.8081 81.8487 1.90532e-14
    endloop
  endfacet
  facet normal 0 1 0
    outer loop
      vertex 80.6277 81.8487 1.79029e-14
      vertex 85.8081 81.8487 -10.01
      vertex 80.6277 81.8487 -10.01
    endloop
  endfacet
  facet normal 0.743145 0.669131 0
    outer loop
      vertex 22.9899 82.2536 5.10478e-15
      vertex 22.3505 82.9637 -10.01
      vertex 22.3505 82.9637 4.96282e-15
    endloop
  endfacet
  facet normal 0.743145 0.669131 0
    outer loop
      vertex 22.3505 82.9637 -10.01
      vertex 22.9899 82.2536 5.10478e-15
      vertex 22.9899 82.2536 -10.01
    endloop
  endfacet
  facet normal 0.587785 0.809017 -0
    outer loop
      vertex 26.6687 79.5808 -10.01
      vertex 22.9899 82.2536 5.10478e-15
      vertex 26.6687 79.5808 5.92164e-15
    endloop
  endfacet
  facet normal 0.587785 0.809017 0
    outer loop
      vertex 22.9899 82.2536 5.10478e-15
      vertex 26.6687 79.5808 -10.01
      vertex 22.9899 82.2536 -10.01
    endloop
  endfacet
  facet normal 0.587786 0.809017 -0
    outer loop
      vertex 28.0638 78.5672 -10.01
      vertex 26.6687 79.5808 5.92164e-15
      vertex 28.0638 78.5672 6.23142e-15
    endloop
  endfacet
  facet normal 0.587786 0.809017 0
    outer loop
      vertex 26.6687 79.5808 5.92164e-15
      vertex 28.0638 78.5672 -10.01
      vertex 26.6687 79.5808 -10.01
    endloop
  endfacet
  facet normal 0.406736 0.913546 -0
    outer loop
      vertex 30.5076 77.4792 -10.01
      vertex 28.0638 78.5672 6.23142e-15
      vertex 30.5076 77.4792 6.77404e-15
    endloop
  endfacet
  facet normal 0.406736 0.913546 0
    outer loop
      vertex 28.0638 78.5672 6.23142e-15
      vertex 30.5076 77.4792 -10.01
      vertex 28.0638 78.5672 -10.01
    endloop
  endfacet
  facet normal 0.587786 0.809017 -0
    outer loop
      vertex 6.39058 87.9404 -10.01
      vertex 5.01208 88.9419 1.1129e-15
      vertex 6.39058 87.9404 1.41899e-15
    endloop
  endfacet
  facet normal 0.587786 0.809017 0
    outer loop
      vertex 5.01208 88.9419 1.1129e-15
      vertex 6.39058 87.9404 -10.01
      vertex 5.01208 88.9419 -10.01
    endloop
  endfacet
  facet normal 0.743145 0.66913 0
    outer loop
      vertex 5.01208 88.9419 1.1129e-15
      vertex 3.03721 91.1352 -0.90088
      vertex 3.03721 91.1352 6.74397e-16
    endloop
  endfacet
  facet normal 0.743145 0.66913 0
    outer loop
      vertex 3.03721 91.1352 -0.90088
      vertex 5.01208 88.9419 1.1129e-15
      vertex 5.01208 88.9419 -10.01
    endloop
  endfacet
  facet normal 0.743145 0.66913 0
    outer loop
      vertex 5.01208 88.9419 -10.01
      vertex 3.03721 91.1352 -10.01
      vertex 3.03721 91.1352 -0.90088
    endloop
  endfacet
  facet normal 0.587784 0.809018 -0
    outer loop
      vertex 8.56382 86.3614 -10.01
      vertex 6.39058 87.9404 1.41899e-15
      vertex 8.56382 86.3614 1.90155e-15
    endloop
  endfacet
  facet normal 0.587784 0.809018 0
    outer loop
      vertex 6.39058 87.9404 1.41899e-15
      vertex 8.56382 86.3614 -10.01
      vertex 6.39058 87.9404 -10.01
    endloop
  endfacet
  facet normal 0.382683 0.92388 -0
    outer loop
      vertex 14.2661 83.8753 -10.01
      vertex 12.5691 84.5782 2.79089e-15
      vertex 14.2661 83.8753 3.16772e-15
    endloop
  endfacet
  facet normal 0.382683 0.92388 0
    outer loop
      vertex 12.5691 84.5782 2.79089e-15
      vertex 14.2661 83.8753 -10.01
      vertex 12.5691 84.5782 -10.01
    endloop
  endfacet
  facet normal 0 1 -0
    outer loop
      vertex 22.3505 82.9637 -10.01
      vertex 18.5546 82.9637 4.11995e-15
      vertex 22.3505 82.9637 4.96282e-15
    endloop
  endfacet
  facet normal 0 1 0
    outer loop
      vertex 18.5546 82.9637 4.11995e-15
      vertex 22.3505 82.9637 -10.01
      vertex 18.5546 82.9637 -10.01
    endloop
  endfacet
  facet normal 0.207911 0.978148 -0
    outer loop
      vertex 18.5546 82.9637 -10.01
      vertex 15.128 83.692 3.3591e-15
      vertex 18.5546 82.9637 4.11995e-15
    endloop
  endfacet
  facet normal 0.207911 0.978148 0
    outer loop
      vertex 15.128 83.692 3.3591e-15
      vertex 18.5546 82.9637 -10.01
      vertex 15.128 83.692 -10.01
    endloop
  endfacet
  facet normal 0.207914 0.978147 -0
    outer loop
      vertex 15.128 83.692 -10.01
      vertex 14.2661 83.8753 3.16772e-15
      vertex 15.128 83.692 3.3591e-15
    endloop
  endfacet
  facet normal 0.207914 0.978147 0
    outer loop
      vertex 14.2661 83.8753 3.16772e-15
      vertex 15.128 83.692 -10.01
      vertex 14.2661 83.8753 -10.01
    endloop
  endfacet
  facet normal 0.406736 0.913546 -0
    outer loop
      vertex 12.5691 84.5782 -10.01
      vertex 9.2473 86.0571 2.05331e-15
      vertex 12.5691 84.5782 2.79089e-15
    endloop
  endfacet
  facet normal 0.406736 0.913546 0
    outer loop
      vertex 9.2473 86.0571 2.05331e-15
      vertex 12.5691 84.5782 -10.01
      vertex 9.2473 86.0571 -10.01
    endloop
  endfacet
  facet normal 0.406739 0.913544 -0
    outer loop
      vertex 9.2473 86.0571 -10.01
      vertex 8.56382 86.3614 1.90155e-15
      vertex 9.2473 86.0571 2.05331e-15
    endloop
  endfacet
  facet normal 0.406739 0.913544 0
    outer loop
      vertex 8.56382 86.3614 1.90155e-15
      vertex 9.2473 86.0571 -10.01
      vertex 8.56382 86.3614 -10.01
    endloop
  endfacet
  facet normal -0.994522 0.104528 0
    outer loop
      vertex 80.5783 81.379 -10.01
      vertex 80.6277 81.8487 1.79029e-14
      vertex 80.6277 81.8487 -10.01
    endloop
  endfacet
  facet normal -0.994522 0.104528 0
    outer loop
      vertex 80.6277 81.8487 1.79029e-14
      vertex 80.5783 81.379 -10.01
      vertex 80.5783 81.379 1.7892e-14
    endloop
  endfacet
  facet normal -0.743188 0.669083 0
    outer loop
      vertex 74.0677 69.201 -10.01
      vertex 74.0868 69.2222 1.64506e-14
      vertex 74.0868 69.2222 -10.01
    endloop
  endfacet
  facet normal -0.743188 0.669083 0
    outer loop
      vertex 74.0868 69.2222 1.64506e-14
      vertex 74.0677 69.201 -10.01
      vertex 74.0677 69.201 1.64463e-14
    endloop
  endfacet
  facet normal -0.866028 0.499995 0
    outer loop
      vertex 76.3266 71.7097 -10.01
      vertex 76.7189 72.3892 1.7035e-14
      vertex 76.7189 72.3892 -10.01
    endloop
  endfacet
  facet normal -0.866028 0.499995 0
    outer loop
      vertex 76.7189 72.3892 1.7035e-14
      vertex 76.3266 71.7097 -10.01
      vertex 76.3266 71.7097 1.69479e-14
    endloop
  endfacet
  facet normal -0.92388 0.382683 0
    outer loop
      vertex 78.5187 75.5067 -10.01
      vertex 79.2217 77.2037 1.75907e-14
      vertex 79.2217 77.2037 -10.01
    endloop
  endfacet
  facet normal -0.92388 0.382683 0
    outer loop
      vertex 79.2217 77.2037 1.75907e-14
      vertex 78.5187 75.5067 -10.01
      vertex 78.5187 75.5067 1.74347e-14
    endloop
  endfacet
  facet normal -0.951057 0.309017 0
    outer loop
      vertex 80.5783 81.379 -10.01
      vertex 79.2217 77.2037 -10.01
      vertex 79.2217 77.2037 1.75907e-14
    endloop
  endfacet
  facet normal -0.951057 0.309017 0
    outer loop
      vertex 80.5783 81.379 1.7892e-14
      vertex 80.5783 81.379 -10.01
      vertex 79.2217 77.2037 1.75907e-14
    endloop
  endfacet
  facet normal -0.80902 -0.587781 0
    outer loop
      vertex 5.87436 9.78375 -10.01
      vertex 5.86745 9.79326 1.30284e-15
      vertex 5.86745 9.79326 -10.01
    endloop
  endfacet
  facet normal -0.80902 -0.587781 0
    outer loop
      vertex 5.86745 9.79326 1.30284e-15
      vertex 5.87436 9.78375 -10.01
      vertex 5.87436 9.78375 1.30437e-15
    endloop
  endfacet
  facet normal -0.866025 -0.5 0
    outer loop
      vertex 5.86745 9.79326 -10.01
      vertex 4.28027 12.5423 9.5041e-16
      vertex 4.28027 12.5423 -10.01
    endloop
  endfacet
  facet normal -0.866025 -0.5 0
    outer loop
      vertex 4.28027 12.5423 9.5041e-16
      vertex 5.86745 9.79326 -10.01
      vertex 5.86745 9.79326 1.30284e-15
    endloop
  endfacet
  facet normal -0.994522 -0.104528 0
    outer loop
      vertex 3.44148 15.1239 -10.01
      vertex 3.03721 18.9702 6.74397e-16
      vertex 3.03721 18.9702 -10.01
    endloop
  endfacet
  facet normal -0.994522 -0.104528 0
    outer loop
      vertex 3.03721 18.9702 6.74397e-16
      vertex 3.44148 15.1239 -10.01
      vertex 3.44148 15.1239 7.64163e-16
    endloop
  endfacet
  facet normal -1 0 0
    outer loop
      vertex 3.03721 18.9702 -10.01
      vertex 3.03721 91.1352 -0.90088
      vertex 3.03721 91.1352 -10.01
    endloop
  endfacet
  facet normal -1 0 0
    outer loop
      vertex 3.03721 18.9702 6.74397e-16
      vertex 3.03721 91.1352 -0.90088
      vertex 3.03721 18.9702 -10.01
    endloop
  endfacet
  facet normal -1 0 0
    outer loop
      vertex 3.03721 91.1352 -0.90088
      vertex 3.03721 18.9702 6.74397e-16
      vertex 3.03721 91.1352 6.74397e-16
    endloop
  endfacet
  facet normal -0.406739 -0.913545 0
    outer loop
      vertex 11.5912 4.6363 -10.01
      vertex 11.917 4.49122 2.64611e-15
      vertex 11.5912 4.6363 2.57376e-15
    endloop
  endfacet
  facet normal -0.406739 -0.913545 -0
    outer loop
      vertex 11.917 4.49122 2.64611e-15
      vertex 11.5912 4.6363 -10.01
      vertex 11.917 4.49122 -10.01
    endloop
  endfacet
  facet normal -0.207912 -0.978148 0
    outer loop
      vertex 13.2216 3.9104 -10.01
      vertex 16.3159 3.25268 3.62286e-15
      vertex 13.2216 3.9104 2.93578e-15
    endloop
  endfacet
  facet normal -0.207912 -0.978148 -0
    outer loop
      vertex 16.3159 3.25268 3.62286e-15
      vertex 13.2216 3.9104 -10.01
      vertex 16.3159 3.25268 -10.01
    endloop
  endfacet
  facet normal -0.743144 0.669132 0
    outer loop
      vertex 74.0868 69.2222 -10.01
      vertex 76.3266 71.7097 1.69479e-14
      vertex 76.3266 71.7097 -10.01
    endloop
  endfacet
  facet normal -0.743144 0.669132 0
    outer loop
      vertex 76.3266 71.7097 1.69479e-14
      vertex 74.0868 69.2222 -10.01
      vertex 74.0868 69.2222 1.64506e-14
    endloop
  endfacet
  facet normal -0.894427 0.447214 0
    outer loop
      vertex 78.5187 75.5066 -10.01
      vertex 78.5187 75.5067 1.74347e-14
      vertex 78.5187 75.5067 -10.01
    endloop
  endfacet
  facet normal -0.894427 0.447214 0
    outer loop
      vertex 78.5187 75.5067 1.74347e-14
      vertex 78.5187 75.5066 -10.01
      vertex 78.5187 75.5066 1.74347e-14
    endloop
  endfacet
  facet normal -0.866025 0.500001 0
    outer loop
      vertex 76.7189 72.3892 -10.01
      vertex 78.5187 75.5066 1.74347e-14
      vertex 78.5187 75.5066 -10.01
    endloop
  endfacet
  facet normal -0.866025 0.500001 0
    outer loop
      vertex 78.5187 75.5066 1.74347e-14
      vertex 76.7189 72.3892 -10.01
      vertex 76.7189 72.3892 1.7035e-14
    endloop
  endfacet
  facet normal 1 -0 0
    outer loop
      vertex 85.8081 3.15133 1.90532e-14
      vertex 85.8081 81.8487 -10.01
      vertex 85.8081 81.8487 1.90532e-14
    endloop
  endfacet
  facet normal 1 0 0
    outer loop
      vertex 85.8081 81.8487 -10.01
      vertex 85.8081 3.15133 1.90532e-14
      vertex 85.8081 3.15133 -10.01
    endloop
  endfacet
  facet normal -0.156435 0.987688 0
    outer loop
      vertex 83.3107 5.68934 -13
      vertex 81.569 5.41349 1.8112e-14
      vertex 83.3107 5.68934 1.84987e-14
    endloop
  endfacet
  facet normal -0.156435 0.987688 0
    outer loop
      vertex 81.569 5.41349 1.8112e-14
      vertex 83.3107 5.68934 -13
      vertex 81.569 5.41349 -13
    endloop
  endfacet
  facet normal 0.891005 0.453993 0
    outer loop
      vertex 81.569 5.41349 1.8112e-14
      vertex 80.7685 6.98465 -13
      vertex 80.7685 6.98465 1.79342e-14
    endloop
  endfacet
  facet normal 0.891005 0.453993 0
    outer loop
      vertex 80.7685 6.98465 -13
      vertex 81.569 5.41349 1.8112e-14
      vertex 81.569 5.41349 -13
    endloop
  endfacet
  facet normal -0.453991 -0.891006 0
    outer loop
      vertex 82.0154 8.23153 -13
      vertex 83.5865 7.43099 1.85599e-14
      vertex 82.0154 8.23153 1.82111e-14
    endloop
  endfacet
  facet normal -0.453991 -0.891006 -0
    outer loop
      vertex 83.5865 7.43099 1.85599e-14
      vertex 82.0154 8.23153 -13
      vertex 83.5865 7.43099 -13
    endloop
  endfacet
  facet normal 0.707105 -0.707109 0
    outer loop
      vertex 80.7685 6.98465 -13
      vertex 82.0154 8.23153 1.82111e-14
      vertex 80.7685 6.98465 1.79342e-14
    endloop
  endfacet
  facet normal 0.707105 -0.707109 0
    outer loop
      vertex 82.0154 8.23153 1.82111e-14
      vertex 80.7685 6.98465 -13
      vertex 82.0154 8.23153 -13
    endloop
  endfacet
  facet normal -0.987688 0.156434 0
    outer loop
      vertex 83.3107 5.68934 -13
      vertex 83.5865 7.43099 1.85599e-14
      vertex 83.5865 7.43099 -13
    endloop
  endfacet
  facet normal -0.987688 0.156434 0
    outer loop
      vertex 83.5865 7.43099 1.85599e-14
      vertex 83.3107 5.68934 -13
      vertex 83.3107 5.68934 1.84987e-14
    endloop
  endfacet
  facet normal 0.987688 0.156435 -0
    outer loop
      vertex 9.6305 6.06082 -10.01
      vertex 9.41349 7.43099 2.09021e-15
      vertex 9.6305 6.06082 2.1384e-15
    endloop
  endfacet
  facet normal 0.987688 0.156435 0
    outer loop
      vertex 9.41349 7.43099 2.09021e-15
      vertex 9.6305 6.06082 -10.01
      vertex 9.41349 7.43099 -13
    endloop
  endfacet
  facet normal 0.987688 0.156434 -0
    outer loop
      vertex 9.68934 5.68934 -13
      vertex 9.6305 6.06082 -10.01
      vertex 9.68934 5.68934 -10.01
    endloop
  endfacet
  facet normal 0.987688 0.156435 -6.98863e-08
    outer loop
      vertex 9.6305 6.06082 -10.01
      vertex 9.68934 5.68934 -13
      vertex 9.41349 7.43099 -13
    endloop
  endfacet
  facet normal -0.707107 -0.707107 0
    outer loop
      vertex 12.2315 6.98465 -13
      vertex 10.9847 8.23153 2.43908e-15
      vertex 10.9847 8.23153 -13
    endloop
  endfacet
  facet normal -0.707107 -0.707107 0
    outer loop
      vertex 10.9847 8.23153 2.43908e-15
      vertex 12.2315 6.98465 -13
      vertex 12.2315 6.98465 2.71595e-15
    endloop
  endfacet
  facet normal 0.45399 -0.891007 0
    outer loop
      vertex 9.41349 7.43099 -13
      vertex 10.9847 8.23153 2.43908e-15
      vertex 9.41349 7.43099 2.09021e-15
    endloop
  endfacet
  facet normal 0.45399 -0.891007 0
    outer loop
      vertex 10.9847 8.23153 2.43908e-15
      vertex 9.41349 7.43099 -13
      vertex 10.9847 8.23153 -13
    endloop
  endfacet
  facet normal -0.891007 0.45399 0
    outer loop
      vertex 11.431 5.41349 -13
      vertex 12.2315 6.98465 2.71595e-15
      vertex 12.2315 6.98465 -13
    endloop
  endfacet
  facet normal -0.891007 0.45399 0
    outer loop
      vertex 12.2315 6.98465 2.71595e-15
      vertex 11.431 5.41349 -13
      vertex 11.431 5.41349 2.53819e-15
    endloop
  endfacet
  facet normal 0.156435 0.987688 0
    outer loop
      vertex 11.431 5.41349 2.53819e-15
      vertex 10.2679 5.5977 -10.01
      vertex 10.2679 5.5977 2.27994e-15
    endloop
  endfacet
  facet normal 0.156435 0.987688 -0
    outer loop
      vertex 11.431 5.41349 -13
      vertex 10.2679 5.5977 -10.01
      vertex 11.431 5.41349 2.53819e-15
    endloop
  endfacet
  facet normal 0.156435 0.987688 7.98985e-09
    outer loop
      vertex 9.68934 5.68934 -13
      vertex 10.2679 5.5977 -10.01
      vertex 11.431 5.41349 -13
    endloop
  endfacet
  facet normal 0.156435 0.987688 0
    outer loop
      vertex 10.2679 5.5977 -10.01
      vertex 9.68934 5.68934 -13
      vertex 9.68934 5.68934 -10.01
    endloop
  endfacet
  facet normal 0.156434 -0.987688 0
    outer loop
      vertex 9.68934 79.3107 -13
      vertex 11.431 79.5865 2.53819e-15
      vertex 9.68934 79.3107 2.15147e-15
    endloop
  endfacet
  facet normal 0.156434 -0.987688 0
    outer loop
      vertex 11.431 79.5865 2.53819e-15
      vertex 9.68934 79.3107 -13
      vertex 11.431 79.5865 -13
    endloop
  endfacet
  facet normal -0.707109 0.707105 0
    outer loop
      vertex 10.9847 76.7685 -13
      vertex 12.2315 78.0154 2.71595e-15
      vertex 12.2315 78.0154 -13
    endloop
  endfacet
  facet normal -0.707109 0.707105 0
    outer loop
      vertex 12.2315 78.0154 2.71595e-15
      vertex 10.9847 76.7685 -13
      vertex 10.9847 76.7685 2.43908e-15
    endloop
  endfacet
  facet normal -0.891006 -0.453991 0
    outer loop
      vertex 12.2315 78.0154 -13
      vertex 11.431 79.5865 2.53819e-15
      vertex 11.431 79.5865 -13
    endloop
  endfacet
  facet normal -0.891006 -0.453991 0
    outer loop
      vertex 11.431 79.5865 2.53819e-15
      vertex 12.2315 78.0154 -13
      vertex 12.2315 78.0154 2.71595e-15
    endloop
  endfacet
  facet normal 0.453993 0.891005 -0
    outer loop
      vertex 10.9847 76.7685 -13
      vertex 9.41349 77.569 2.09021e-15
      vertex 10.9847 76.7685 2.43908e-15
    endloop
  endfacet
  facet normal 0.453993 0.891005 0
    outer loop
      vertex 9.41349 77.569 2.09021e-15
      vertex 10.9847 76.7685 -13
      vertex 9.41349 77.569 -13
    endloop
  endfacet
  facet normal 0.987688 -0.156435 0
    outer loop
      vertex 9.41349 77.569 2.09021e-15
      vertex 9.68934 79.3107 -13
      vertex 9.68934 79.3107 2.15147e-15
    endloop
  endfacet
  facet normal 0.987688 -0.156435 0
    outer loop
      vertex 9.68934 79.3107 -13
      vertex 9.41349 77.569 2.09021e-15
      vertex 9.41349 77.569 -13
    endloop
  endfacet
  facet normal -0.987688 -0.156434 0
    outer loop
      vertex 83.5865 77.569 -13
      vertex 83.3107 79.3107 1.84987e-14
      vertex 83.3107 79.3107 -13
    endloop
  endfacet
  facet normal -0.987688 -0.156434 0
    outer loop
      vertex 83.3107 79.3107 1.84987e-14
      vertex 83.5865 77.569 -13
      vertex 83.5865 77.569 1.85599e-14
    endloop
  endfacet
  facet normal -0.453994 0.891005 0
    outer loop
      vertex 83.5865 77.569 -13
      vertex 82.0154 76.7685 1.82111e-14
      vertex 83.5865 77.569 1.85599e-14
    endloop
  endfacet
  facet normal -0.453994 0.891005 0
    outer loop
      vertex 82.0154 76.7685 1.82111e-14
      vertex 83.5865 77.569 -13
      vertex 82.0154 76.7685 -13
    endloop
  endfacet
  facet normal 0.891005 -0.453994 0
    outer loop
      vertex 80.7685 78.0154 1.79342e-14
      vertex 81.569 79.5865 -13
      vertex 81.569 79.5865 1.8112e-14
    endloop
  endfacet
  facet normal 0.891005 -0.453994 0
    outer loop
      vertex 81.569 79.5865 -13
      vertex 80.7685 78.0154 1.79342e-14
      vertex 80.7685 78.0154 -13
    endloop
  endfacet
  facet normal 0.707107 0.707107 0
    outer loop
      vertex 82.0154 76.7685 1.82111e-14
      vertex 80.7685 78.0154 -13
      vertex 80.7685 78.0154 1.79342e-14
    endloop
  endfacet
  facet normal 0.707107 0.707107 0
    outer loop
      vertex 80.7685 78.0154 -13
      vertex 82.0154 76.7685 1.82111e-14
      vertex 82.0154 76.7685 -13
    endloop
  endfacet
  facet normal -0.156434 -0.987688 0
    outer loop
      vertex 81.569 79.5865 -13
      vertex 83.3107 79.3107 1.84987e-14
      vertex 81.569 79.5865 1.8112e-14
    endloop
  endfacet
  facet normal -0.156434 -0.987688 -0
    outer loop
      vertex 83.3107 79.3107 1.84987e-14
      vertex 81.569 79.5865 -13
      vertex 83.3107 79.3107 -13
    endloop
  endfacet
  facet normal -0.104529 0.994522 0
    outer loop
      vertex 54.5046 4.84132 -13
      vertex 46.5 4 1.03251e-14
      vertex 54.5046 4.84132 1.21025e-14
    endloop
  endfacet
  facet normal -0.104529 0.994522 0
    outer loop
      vertex 46.5 4 1.03251e-14
      vertex 54.5046 4.84132 -13
      vertex 46.5 4 -13
    endloop
  endfacet
  facet normal -1 0 0
    outer loop
      vertex 84.7891 38.4757 -13
      vertex 84.7891 46.5243 1.8827e-14
      vertex 84.7891 46.5243 -13
    endloop
  endfacet
  facet normal -1 -0 0
    outer loop
      vertex 84.7891 46.5243 1.8827e-14
      vertex 84.7891 38.4757 -13
      vertex 84.7891 38.4757 1.8827e-14
    endloop
  endfacet
  facet normal 1 -0 0
    outer loop
      vertex 8.21091 38.4757 1.82319e-15
      vertex 8.21091 46.5243 -13
      vertex 8.21091 46.5243 1.82319e-15
    endloop
  endfacet
  facet normal 1 0 0
    outer loop
      vertex 8.21091 46.5243 -13
      vertex 8.21091 38.4757 1.82319e-15
      vertex 8.21091 38.4757 -13
    endloop
  endfacet
  facet normal -0.669131 -0.743144 -0
    outer loop
      vertex 71.7018 71.3313 -10.01
      vertex 71.7018 71.3313 -13
      vertex 74.0677 69.201 -10.01
    endloop
  endfacet
  facet normal -0.669129 -0.743146 0
    outer loop
      vertex 74.0677 69.201 -10.01
      vertex 75.1111 68.2615 1.6678e-14
      vertex 74.0677 69.201 1.64463e-14
    endloop
  endfacet
  facet normal -0.669129 -0.743146 0
    outer loop
      vertex 74.0677 69.201 -10.01
      vertex 75.1111 68.2615 -13
      vertex 75.1111 68.2615 1.6678e-14
    endloop
  endfacet
  facet normal -0.66913 -0.743145 -7.76531e-07
    outer loop
      vertex 75.1111 68.2615 -13
      vertex 74.0677 69.201 -10.01
      vertex 71.7018 71.3313 -13
    endloop
  endfacet
  facet normal -0.809017 0.587785 0
    outer loop
      vertex 75.1111 16.7385 -13
      vertex 79.842 23.25 1.77285e-14
      vertex 79.842 23.25 -13
    endloop
  endfacet
  facet normal -0.809017 0.587785 0
    outer loop
      vertex 79.842 23.25 1.77285e-14
      vertex 75.1111 16.7385 -13
      vertex 75.1111 16.7385 1.6678e-14
    endloop
  endfacet
  facet normal -0.978148 0.207912 0
    outer loop
      vertex 83.1157 30.6028 -13
      vertex 84.7891 38.4757 1.8827e-14
      vertex 84.7891 38.4757 -13
    endloop
  endfacet
  facet normal -0.978148 0.207912 0
    outer loop
      vertex 84.7891 38.4757 1.8827e-14
      vertex 83.1157 30.6028 -13
      vertex 83.1157 30.6028 1.84554e-14
    endloop
  endfacet
  facet normal -0.913546 -0.406736 0
    outer loop
      vertex 83.1157 54.3972 -13
      vertex 79.842 61.75 1.77285e-14
      vertex 79.842 61.75 -13
    endloop
  endfacet
  facet normal -0.913546 -0.406736 0
    outer loop
      vertex 79.842 61.75 1.77285e-14
      vertex 83.1157 54.3972 -13
      vertex 83.1157 54.3972 1.84554e-14
    endloop
  endfacet
  facet normal -0.978148 -0.207912 0
    outer loop
      vertex 84.7891 46.5243 -13
      vertex 83.1157 54.3972 1.84554e-14
      vertex 83.1157 54.3972 -13
    endloop
  endfacet
  facet normal -0.978148 -0.207912 0
    outer loop
      vertex 83.1157 54.3972 1.84554e-14
      vertex 84.7891 46.5243 -13
      vertex 84.7891 46.5243 1.8827e-14
    endloop
  endfacet
  facet normal -0.809017 -0.587785 0
    outer loop
      vertex 79.842 61.75 -13
      vertex 75.1111 68.2615 1.6678e-14
      vertex 75.1111 68.2615 -13
    endloop
  endfacet
  facet normal -0.809017 -0.587785 0
    outer loop
      vertex 75.1111 68.2615 1.6678e-14
      vertex 79.842 61.75 -13
      vertex 79.842 61.75 1.77285e-14
    endloop
  endfacet
  facet normal -0.5 0.866025 0
    outer loop
      vertex 69.1297 11.3528 -13
      vertex 62.1594 7.3285 1.38022e-14
      vertex 69.1297 11.3528 1.53499e-14
    endloop
  endfacet
  facet normal -0.5 0.866025 0
    outer loop
      vertex 62.1594 7.3285 1.38022e-14
      vertex 69.1297 11.3528 -13
      vertex 62.1594 7.3285 -13
    endloop
  endfacet
  facet normal -0.66913 0.743145 0
    outer loop
      vertex 75.1111 16.7385 -13
      vertex 69.1297 11.3528 1.53499e-14
      vertex 75.1111 16.7385 1.6678e-14
    endloop
  endfacet
  facet normal -0.66913 0.743145 0
    outer loop
      vertex 69.1297 11.3528 1.53499e-14
      vertex 75.1111 16.7385 -13
      vertex 69.1297 11.3528 -13
    endloop
  endfacet
  facet normal -0.309017 0.951056 0
    outer loop
      vertex 62.1594 7.3285 -13
      vertex 54.5046 4.84132 1.21025e-14
      vertex 62.1594 7.3285 1.38022e-14
    endloop
  endfacet
  facet normal -0.309017 0.951056 0
    outer loop
      vertex 54.5046 4.84132 1.21025e-14
      vertex 62.1594 7.3285 -13
      vertex 54.5046 4.84132 -13
    endloop
  endfacet
  facet normal -0.913546 0.406737 0
    outer loop
      vertex 79.842 23.25 -13
      vertex 83.1157 30.6028 1.84554e-14
      vertex 83.1157 30.6028 -13
    endloop
  endfacet
  facet normal -0.913546 0.406737 0
    outer loop
      vertex 83.1157 30.6028 1.84554e-14
      vertex 79.842 23.25 -13
      vertex 79.842 23.25 1.77285e-14
    endloop
  endfacet
  facet normal 0.978148 -0.207912 0
    outer loop
      vertex 8.21091 46.5243 1.82319e-15
      vertex 9.88433 54.3972 -13
      vertex 9.88433 54.3972 2.19476e-15
    endloop
  endfacet
  facet normal 0.978148 -0.207912 0
    outer loop
      vertex 9.88433 54.3972 -13
      vertex 8.21091 46.5243 1.82319e-15
      vertex 8.21091 46.5243 -13
    endloop
  endfacet
  facet normal 0.5 -0.866026 0
    outer loop
      vertex 23.8703 73.6472 5.30026e-15
      vertex 30.5076 77.4792 -10.01
      vertex 30.5076 77.4792 6.77404e-15
    endloop
  endfacet
  facet normal 0.5 -0.866026 0
    outer loop
      vertex 23.8703 73.6472 -13
      vertex 30.5076 77.4792 -10.01
      vertex 23.8703 73.6472 5.30026e-15
    endloop
  endfacet
  facet normal 0.5 -0.866025 -1.12331e-07
    outer loop
      vertex 30.8406 77.6715 -13
      vertex 30.5076 77.4792 -10.01
      vertex 23.8703 73.6472 -13
    endloop
  endfacet
  facet normal 0.500001 -0.866025 0
    outer loop
      vertex 30.5076 77.4792 -10.01
      vertex 30.8406 77.6715 -13
      vertex 30.8406 77.6715 -10.01
    endloop
  endfacet
  facet normal 0.809017 0.587785 0
    outer loop
      vertex 17.8889 16.7385 3.97214e-15
      vertex 13.158 23.25 -13
      vertex 13.158 23.25 2.92167e-15
    endloop
  endfacet
  facet normal 0.809017 0.587785 1.18698e-07
    outer loop
      vertex 13.158 23.25 -13
      vertex 17.8889 16.7385 3.97214e-15
      vertex 17.8889 16.7385 -13
    endloop
  endfacet
  facet normal 0.5 0.866025 -0
    outer loop
      vertex 30.8406 7.3285 -13
      vertex 23.8703 11.3528 5.30026e-15
      vertex 30.8406 7.3285 6.848e-15
    endloop
  endfacet
  facet normal 0.5 0.866025 0
    outer loop
      vertex 23.8703 11.3528 5.30026e-15
      vertex 30.8406 7.3285 -13
      vertex 23.8703 11.3528 -13
    endloop
  endfacet
  facet normal 0.669131 0.743145 -0
    outer loop
      vertex 23.8703 11.3528 -13
      vertex 17.8889 16.7385 3.97214e-15
      vertex 23.8703 11.3528 5.30026e-15
    endloop
  endfacet
  facet normal 0.669131 0.743145 9.81743e-08
    outer loop
      vertex 17.8889 16.7385 3.97214e-15
      vertex 23.8703 11.3528 -13
      vertex 17.8889 16.7385 -13
    endloop
  endfacet
  facet normal 0.809017 -0.587785 1.18698e-07
    outer loop
      vertex 13.158 61.75 2.92167e-15
      vertex 17.8889 68.2615 -13
      vertex 17.8889 68.2615 3.97214e-15
    endloop
  endfacet
  facet normal 0.809017 -0.587785 0
    outer loop
      vertex 17.8889 68.2615 -13
      vertex 13.158 61.75 2.92167e-15
      vertex 13.158 61.75 -13
    endloop
  endfacet
  facet normal 0.913546 -0.406737 0
    outer loop
      vertex 9.88433 54.3972 2.19476e-15
      vertex 13.158 61.75 -13
      vertex 13.158 61.75 2.92167e-15
    endloop
  endfacet
  facet normal 0.913546 -0.406737 0
    outer loop
      vertex 13.158 61.75 -13
      vertex 9.88433 54.3972 2.19476e-15
      vertex 9.88433 54.3972 -13
    endloop
  endfacet
  facet normal 0.309017 -0.951057 0
    outer loop
      vertex 30.8406 77.6715 -13
      vertex 34.7015 78.926 -10.01
      vertex 30.8406 77.6715 -10.01
    endloop
  endfacet
  facet normal 0.309017 -0.951057 0
    outer loop
      vertex 34.7015 78.926 -10.01
      vertex 30.8406 77.6715 -13
      vertex 34.7015 78.926 -13
    endloop
  endfacet
  facet normal 0.978148 0.207912 0
    outer loop
      vertex 9.88433 30.6028 2.19476e-15
      vertex 8.21091 38.4757 -13
      vertex 8.21091 38.4757 1.82319e-15
    endloop
  endfacet
  facet normal 0.978148 0.207912 0
    outer loop
      vertex 8.21091 38.4757 -13
      vertex 9.88433 30.6028 2.19476e-15
      vertex 9.88433 30.6028 -13
    endloop
  endfacet
  facet normal 0.309017 0.951056 -0
    outer loop
      vertex 38.4954 4.84132 -13
      vertex 30.8406 7.3285 6.848e-15
      vertex 38.4954 4.84132 8.5477e-15
    endloop
  endfacet
  facet normal 0.309017 0.951056 0
    outer loop
      vertex 30.8406 7.3285 6.848e-15
      vertex 38.4954 4.84132 -13
      vertex 30.8406 7.3285 -13
    endloop
  endfacet
  facet normal 0.104529 0.994522 -0
    outer loop
      vertex 46.5 4 -13
      vertex 38.4954 4.84132 8.5477e-15
      vertex 46.5 4 1.03251e-14
    endloop
  endfacet
  facet normal 0.104529 0.994522 0
    outer loop
      vertex 38.4954 4.84132 8.5477e-15
      vertex 46.5 4 -13
      vertex 38.4954 4.84132 -13
    endloop
  endfacet
  facet normal 0.669131 -0.743145 9.81743e-08
    outer loop
      vertex 17.8889 68.2615 -13
      vertex 23.8703 73.6472 5.30026e-15
      vertex 17.8889 68.2615 3.97214e-15
    endloop
  endfacet
  facet normal 0.669131 -0.743145 0
    outer loop
      vertex 23.8703 73.6472 5.30026e-15
      vertex 17.8889 68.2615 -13
      vertex 23.8703 73.6472 -13
    endloop
  endfacet
  facet normal 0.913545 0.406737 0
    outer loop
      vertex 13.158 23.25 2.92167e-15
      vertex 9.88433 30.6028 -13
      vertex 9.88433 30.6028 2.19476e-15
    endloop
  endfacet
  facet normal 0.913545 0.406737 0
    outer loop
      vertex 9.88433 30.6028 -13
      vertex 13.158 23.25 2.92167e-15
      vertex 13.158 23.25 -13
    endloop
  endfacet
endsolid OpenSCAD_Model
