solid OpenSCAD_Model
  facet normal 0.309022 0.951055 -0
    outer loop
      vertex 16.4635 14.5734 0
      vertex 14.7865 15.1183 3
      vertex 16.4635 14.5734 3
    endloop
  endfacet
  facet normal 0.309022 0.951055 0
    outer loop
      vertex 14.7865 15.1183 3
      vertex 16.4635 14.5734 0
      vertex 14.7865 15.1183 0
    endloop
  endfacet
  facet normal 0.309022 -0.951055 0
    outer loop
      vertex 14.7865 16.8817 0
      vertex 16.4635 17.4266 3
      vertex 14.7865 16.8817 3
    endloop
  endfacet
  facet normal 0.309022 -0.951055 0
    outer loop
      vertex 16.4635 17.4266 3
      vertex 14.7865 16.8817 0
      vertex 16.4635 17.4266 0
    endloop
  endfacet
  facet normal -0.809013 -0.587791 0
    outer loop
      vertex 17.5 16 0
      vertex 16.4635 17.4266 3
      vertex 16.4635 17.4266 0
    endloop
  endfacet
  facet normal -0.809013 -0.587791 0
    outer loop
      vertex 16.4635 17.4266 3
      vertex 17.5 16 0
      vertex 17.5 16 3
    endloop
  endfacet
  facet normal 1 -0 0
    outer loop
      vertex 14.7865 15.1183 3
      vertex 14.7865 16.8817 0
      vertex 14.7865 16.8817 3
    endloop
  endfacet
  facet normal 1 0 0
    outer loop
      vertex 14.7865 16.8817 0
      vertex 14.7865 15.1183 3
      vertex 14.7865 15.1183 0
    endloop
  endfacet
  facet normal -0.809013 0.587791 0
    outer loop
      vertex 16.4635 14.5734 0
      vertex 17.5 16 3
      vertex 17.5 16 0
    endloop
  endfacet
  facet normal -0.809013 0.587791 0
    outer loop
      vertex 17.5 16 3
      vertex 16.4635 14.5734 0
      vertex 16.4635 14.5734 3
    endloop
  endfacet
  facet normal 0 0 -1
    outer loop
      vertex -15.5365 14.5734 0
      vertex -12.7135 14.1198 0
      vertex -15.3713 11.1679 0
    endloop
  endfacet
  facet normal 0 0 -1
    outer loop
      vertex -12.7135 14.1198 0
      vertex -15.5365 14.5734 0
      vertex -14.5 16 0
    endloop
  endfacet
  facet normal 0 0 -1
    outer loop
      vertex -15.3713 11.1679 0
      vertex -17.2135 15.1183 0
      vertex -15.5365 14.5734 0
    endloop
  endfacet
  facet normal 0 0 -1
    outer loop
      vertex -20 17 0
      vertex -17.2135 15.1183 0
      vertex -17.3574 7.728 0
    endloop
  endfacet
  facet normal 0 0 -1
    outer loop
      vertex -17.3574 7.728 0
      vertex -17.2135 15.1183 0
      vertex -15.3713 11.1679 0
    endloop
  endfacet
  facet normal 0 0 -1
    outer loop
      vertex -15.5365 -14.5734 0
      vertex -12.7135 -14.1198 0
      vertex -14.5 -16 0
    endloop
  endfacet
  facet normal -0 0 -1
    outer loop
      vertex -12.7135 -14.1198 0
      vertex -15.5365 -14.5734 0
      vertex -15.3713 -11.1679 0
    endloop
  endfacet
  facet normal 0 0 -1
    outer loop
      vertex -17.2135 -15.1183 0
      vertex -15.3713 -11.1679 0
      vertex -15.5365 -14.5734 0
    endloop
  endfacet
  facet normal -0 0 -1
    outer loop
      vertex -15.3713 -11.1679 0
      vertex -17.2135 -15.1183 0
      vertex -17.3574 -7.728 0
    endloop
  endfacet
  facet normal 0 0 -1
    outer loop
      vertex 16.4635 -17.4266 0
      vertex 17.9271 -19.8532 0
      vertex 17 -20 0
    endloop
  endfacet
  facet normal 0 0 -1
    outer loop
      vertex 17.9271 -19.8532 0
      vertex 16.4635 -17.4266 0
      vertex 17.5 -16 0
    endloop
  endfacet
  facet normal 0 0 -1
    outer loop
      vertex 17 -20 0
      vertex 14.7865 -16.8817 0
      vertex 16.4635 -17.4266 0
    endloop
  endfacet
  facet normal 0 0 -1
    outer loop
      vertex 14.7865 -16.8817 0
      vertex 12.7135 -14.1198 0
      vertex 14.7865 -15.1183 0
    endloop
  endfacet
  facet normal 0 0 -1
    outer loop
      vertex 9.5 -16.4545 0
      vertex 14.7865 -16.8817 0
      vertex 17 -20 0
    endloop
  endfacet
  facet normal 0 0 -1
    outer loop
      vertex 14.7865 -16.8817 0
      vertex 9.5 -16.4545 0
      vertex 12.7135 -14.1198 0
    endloop
  endfacet
  facet normal 0 0 -1
    outer loop
      vertex 17 -20 0
      vertex 5.87132 -18.0701 0
      vertex 9.5 -16.4545 0
    endloop
  endfacet
  facet normal 0 0 -1
    outer loop
      vertex 17 -20 0
      vertex 1.98604 -18.8959 0
      vertex 5.87132 -18.0701 0
    endloop
  endfacet
  facet normal 0 0 -1
    outer loop
      vertex 17 -20 0
      vertex -1.98604 -18.8959 0
      vertex 1.98604 -18.8959 0
    endloop
  endfacet
  facet normal 0 0 -1
    outer loop
      vertex -9.5 -16.4545 0
      vertex -14.5 -16 0
      vertex -12.7135 -14.1198 0
    endloop
  endfacet
  facet normal 0 0 -1
    outer loop
      vertex -17 -20 0
      vertex -9.5 -16.4545 0
      vertex -5.87132 -18.0701 0
    endloop
  endfacet
  facet normal -0 0 -1
    outer loop
      vertex -9.5 -16.4545 0
      vertex -15.5365 -17.4266 0
      vertex -14.5 -16 0
    endloop
  endfacet
  facet normal 0 0 -1
    outer loop
      vertex -17 -20 0
      vertex -5.87132 -18.0701 0
      vertex -1.98604 -18.8959 0
    endloop
  endfacet
  facet normal 0 0 -1
    outer loop
      vertex -17 -20 0
      vertex -1.98604 -18.8959 0
      vertex 17 -20 0
    endloop
  endfacet
  facet normal 0 0 -1
    outer loop
      vertex -9.5 -16.4545 0
      vertex -17 -20 0
      vertex -15.5365 -17.4266 0
    endloop
  endfacet
  facet normal 0 0 -1
    outer loop
      vertex -17 -20 0
      vertex -17.2135 -16.8817 0
      vertex -15.5365 -17.4266 0
    endloop
  endfacet
  facet normal 0 0 -1
    outer loop
      vertex -20 -17 0
      vertex -17.2135 -15.1183 0
      vertex -17.2135 -16.8817 0
    endloop
  endfacet
  facet normal 0 0 -1
    outer loop
      vertex -17.9271 -19.8532 0
      vertex -17.2135 -16.8817 0
      vertex -17 -20 0
    endloop
  endfacet
  facet normal 0 0 -1
    outer loop
      vertex -18.7634 -19.4271 0
      vertex -17.2135 -16.8817 0
      vertex -17.9271 -19.8532 0
    endloop
  endfacet
  facet normal -0 0 -1
    outer loop
      vertex -17.2135 -15.1183 0
      vertex -20 -17 0
      vertex -17.3574 -7.728 0
    endloop
  endfacet
  facet normal 0 0 -1
    outer loop
      vertex -19.4271 -18.7634 0
      vertex -17.2135 -16.8817 0
      vertex -18.7634 -19.4271 0
    endloop
  endfacet
  facet normal -0 0 -1
    outer loop
      vertex -17.3574 -7.728 0
      vertex -20 -17 0
      vertex -18.5848 -3.95032 0
    endloop
  endfacet
  facet normal 0 0 -1
    outer loop
      vertex -19.8532 -17.9271 0
      vertex -17.2135 -16.8817 0
      vertex -19.4271 -18.7634 0
    endloop
  endfacet
  facet normal 0 0 -1
    outer loop
      vertex 17.5 -16 0
      vertex 20 -17 0
      vertex 19.8532 -17.9271 0
    endloop
  endfacet
  facet normal 0 0 -1
    outer loop
      vertex 20 -17 0
      vertex 19 0 0
      vertex 20 17 0
    endloop
  endfacet
  facet normal 0 0 -1
    outer loop
      vertex 17.5 -16 0
      vertex 19.8532 -17.9271 0
      vertex 19.4271 -18.7634 0
    endloop
  endfacet
  facet normal 0 0 -1
    outer loop
      vertex 18.5848 3.95032 0
      vertex 20 17 0
      vertex 19 0 0
    endloop
  endfacet
  facet normal 0 0 -1
    outer loop
      vertex 17.3574 7.728 0
      vertex 20 17 0
      vertex 18.5848 3.95032 0
    endloop
  endfacet
  facet normal 0 0 -1
    outer loop
      vertex 17.5 -16 0
      vertex 19.4271 -18.7634 0
      vertex 18.7634 -19.4271 0
    endloop
  endfacet
  facet normal 0 0 -1
    outer loop
      vertex 20 -17 0
      vertex 18.5848 -3.95032 0
      vertex 19 0 0
    endloop
  endfacet
  facet normal 0 0 -1
    outer loop
      vertex 17.5 -16 0
      vertex 18.7634 -19.4271 0
      vertex 17.9271 -19.8532 0
    endloop
  endfacet
  facet normal 0 0 -1
    outer loop
      vertex 16.4635 -14.5734 0
      vertex 20 -17 0
      vertex 17.5 -16 0
    endloop
  endfacet
  facet normal 0 0 -1
    outer loop
      vertex 20 -17 0
      vertex 17.3574 -7.728 0
      vertex 18.5848 -3.95032 0
    endloop
  endfacet
  facet normal 0 0 -1
    outer loop
      vertex 20 -17 0
      vertex 16.4635 -14.5734 0
      vertex 17.3574 -7.728 0
    endloop
  endfacet
  facet normal 0 0 -1
    outer loop
      vertex 16.4635 -14.5734 0
      vertex 15.3713 -11.1679 0
      vertex 17.3574 -7.728 0
    endloop
  endfacet
  facet normal 0 0 -1
    outer loop
      vertex 14.7865 -15.1183 0
      vertex 15.3713 -11.1679 0
      vertex 16.4635 -14.5734 0
    endloop
  endfacet
  facet normal 0 0 -1
    outer loop
      vertex 15.3713 -11.1679 0
      vertex 14.7865 -15.1183 0
      vertex 12.7135 -14.1198 0
    endloop
  endfacet
  facet normal 0 0 -1
    outer loop
      vertex 16.4635 14.5734 0
      vertex 20 17 0
      vertex 17.3574 7.728 0
    endloop
  endfacet
  facet normal -0 0 -1
    outer loop
      vertex 20 17 0
      vertex 17.5 16 0
      vertex 19.8532 17.9271 0
    endloop
  endfacet
  facet normal 0 0 -1
    outer loop
      vertex 16.4635 17.4266 0
      vertex 19.8532 17.9271 0
      vertex 17.5 16 0
    endloop
  endfacet
  facet normal -0 0 -1
    outer loop
      vertex 19.4271 18.7634 0
      vertex 16.4635 17.4266 0
      vertex 18.7634 19.4271 0
    endloop
  endfacet
  facet normal -0 0 -1
    outer loop
      vertex 19.8532 17.9271 0
      vertex 16.4635 17.4266 0
      vertex 19.4271 18.7634 0
    endloop
  endfacet
  facet normal 0 0 -1
    outer loop
      vertex 20 17 0
      vertex 16.4635 14.5734 0
      vertex 17.5 16 0
    endloop
  endfacet
  facet normal 0 0 -1
    outer loop
      vertex 15.3713 11.1679 0
      vertex 16.4635 14.5734 0
      vertex 17.3574 7.728 0
    endloop
  endfacet
  facet normal 0 0 -1
    outer loop
      vertex 15.3713 11.1679 0
      vertex 14.7865 15.1183 0
      vertex 16.4635 14.5734 0
    endloop
  endfacet
  facet normal -0 0 -1
    outer loop
      vertex 14.7865 15.1183 0
      vertex 12.7135 14.1198 0
      vertex 14.7865 16.8817 0
    endloop
  endfacet
  facet normal 0 0 -1
    outer loop
      vertex 12.7135 14.1198 0
      vertex 14.7865 15.1183 0
      vertex 15.3713 11.1679 0
    endloop
  endfacet
  facet normal -0 0 -1
    outer loop
      vertex 18.7634 19.4271 0
      vertex 16.4635 17.4266 0
      vertex 17.9271 19.8532 0
    endloop
  endfacet
  facet normal -0 0 -1
    outer loop
      vertex 17.9271 19.8532 0
      vertex 16.4635 17.4266 0
      vertex 17 20 0
    endloop
  endfacet
  facet normal 0 0 -1
    outer loop
      vertex 14.7865 16.8817 0
      vertex 17 20 0
      vertex 16.4635 17.4266 0
    endloop
  endfacet
  facet normal 0 0 -1
    outer loop
      vertex 9.5 16.4545 0
      vertex 14.7865 16.8817 0
      vertex 12.7135 14.1198 0
    endloop
  endfacet
  facet normal -0 0 -1
    outer loop
      vertex 14.7865 16.8817 0
      vertex 9.5 16.4545 0
      vertex 17 20 0
    endloop
  endfacet
  facet normal 0 0 -1
    outer loop
      vertex 5.87132 18.0701 0
      vertex 17 20 0
      vertex 9.5 16.4545 0
    endloop
  endfacet
  facet normal 0 0 -1
    outer loop
      vertex 1.98604 18.8959 0
      vertex 17 20 0
      vertex 5.87132 18.0701 0
    endloop
  endfacet
  facet normal 0 0 -1
    outer loop
      vertex -1.98604 18.8959 0
      vertex 17 20 0
      vertex 1.98604 18.8959 0
    endloop
  endfacet
  facet normal 0 0 -1
    outer loop
      vertex -14.5 16 0
      vertex -9.5 16.4545 0
      vertex -12.7135 14.1198 0
    endloop
  endfacet
  facet normal 0 0 -1
    outer loop
      vertex -15.5365 17.4266 0
      vertex -9.5 16.4545 0
      vertex -14.5 16 0
    endloop
  endfacet
  facet normal 0 0 -1
    outer loop
      vertex -17 20 0
      vertex -9.5 16.4545 0
      vertex -15.5365 17.4266 0
    endloop
  endfacet
  facet normal 0 0 -1
    outer loop
      vertex -9.5 16.4545 0
      vertex -17 20 0
      vertex -5.87132 18.0701 0
    endloop
  endfacet
  facet normal 0 0 -1
    outer loop
      vertex -1.98604 18.8959 0
      vertex -17 20 0
      vertex 17 20 0
    endloop
  endfacet
  facet normal 0 0 -1
    outer loop
      vertex -5.87132 18.0701 0
      vertex -17 20 0
      vertex -1.98604 18.8959 0
    endloop
  endfacet
  facet normal 0 0 -1
    outer loop
      vertex -17.2135 16.8817 0
      vertex -17 20 0
      vertex -15.5365 17.4266 0
    endloop
  endfacet
  facet normal 0 0 -1
    outer loop
      vertex -17.2135 16.8817 0
      vertex -17.9271 19.8532 0
      vertex -17 20 0
    endloop
  endfacet
  facet normal 0 0 -1
    outer loop
      vertex -17.2135 15.1183 0
      vertex -20 17 0
      vertex -17.2135 16.8817 0
    endloop
  endfacet
  facet normal 0 0 -1
    outer loop
      vertex -20 17 0
      vertex -17.3574 7.728 0
      vertex -18.5848 3.95032 0
    endloop
  endfacet
  facet normal 0 -0 -1
    outer loop
      vertex -19.8532 17.9271 0
      vertex -17.2135 16.8817 0
      vertex -20 17 0
    endloop
  endfacet
  facet normal 0 0 -1
    outer loop
      vertex -20 17 0
      vertex -18.5848 3.95032 0
      vertex -19 0 0
    endloop
  endfacet
  facet normal -0 0 -1
    outer loop
      vertex -18.5848 -3.95032 0
      vertex -20 -17 0
      vertex -19 0 0
    endloop
  endfacet
  facet normal 0 0 -1
    outer loop
      vertex -20 17 0
      vertex -19 0 0
      vertex -20 -17 0
    endloop
  endfacet
  facet normal 0 0 -1
    outer loop
      vertex -17.2135 -16.8817 0
      vertex -19.8532 -17.9271 0
      vertex -20 -17 0
    endloop
  endfacet
  facet normal 0 0 -1
    outer loop
      vertex -17.2135 16.8817 0
      vertex -18.7634 19.4271 0
      vertex -17.9271 19.8532 0
    endloop
  endfacet
  facet normal 0 0 -1
    outer loop
      vertex -17.2135 16.8817 0
      vertex -19.4271 18.7634 0
      vertex -18.7634 19.4271 0
    endloop
  endfacet
  facet normal 0 0 -1
    outer loop
      vertex -17.2135 16.8817 0
      vertex -19.8532 17.9271 0
      vertex -19.4271 18.7634 0
    endloop
  endfacet
  facet normal 0.309022 0.951055 -0
    outer loop
      vertex 16.4635 -17.4266 0
      vertex 14.7865 -16.8817 3
      vertex 16.4635 -17.4266 3
    endloop
  endfacet
  facet normal 0.309022 0.951055 0
    outer loop
      vertex 14.7865 -16.8817 3
      vertex 16.4635 -17.4266 0
      vertex 14.7865 -16.8817 0
    endloop
  endfacet
  facet normal 0.309022 -0.951055 0
    outer loop
      vertex 14.7865 -15.1183 0
      vertex 16.4635 -14.5734 3
      vertex 14.7865 -15.1183 3
    endloop
  endfacet
  facet normal 0.309022 -0.951055 0
    outer loop
      vertex 16.4635 -14.5734 3
      vertex 14.7865 -15.1183 0
      vertex 16.4635 -14.5734 0
    endloop
  endfacet
  facet normal -0.809013 -0.587791 0
    outer loop
      vertex 17.5 -16 0
      vertex 16.4635 -14.5734 3
      vertex 16.4635 -14.5734 0
    endloop
  endfacet
  facet normal -0.809013 -0.587791 0
    outer loop
      vertex 16.4635 -14.5734 3
      vertex 17.5 -16 0
      vertex 17.5 -16 3
    endloop
  endfacet
  facet normal 1 -0 0
    outer loop
      vertex 14.7865 -16.8817 3
      vertex 14.7865 -15.1183 0
      vertex 14.7865 -15.1183 3
    endloop
  endfacet
  facet normal 1 0 0
    outer loop
      vertex 14.7865 -15.1183 0
      vertex 14.7865 -16.8817 3
      vertex 14.7865 -16.8817 0
    endloop
  endfacet
  facet normal -0.809013 0.587791 0
    outer loop
      vertex 16.4635 -17.4266 0
      vertex 17.5 -16 3
      vertex 17.5 -16 0
    endloop
  endfacet
  facet normal -0.809013 0.587791 0
    outer loop
      vertex 17.5 -16 3
      vertex 16.4635 -17.4266 0
      vertex 16.4635 -17.4266 3
    endloop
  endfacet
  facet normal 0.309022 0.951055 -0
    outer loop
      vertex -15.5365 14.5734 0
      vertex -17.2135 15.1183 3
      vertex -15.5365 14.5734 3
    endloop
  endfacet
  facet normal 0.309022 0.951055 0
    outer loop
      vertex -17.2135 15.1183 3
      vertex -15.5365 14.5734 0
      vertex -17.2135 15.1183 0
    endloop
  endfacet
  facet normal 0.309022 -0.951055 0
    outer loop
      vertex -17.2135 16.8817 0
      vertex -15.5365 17.4266 3
      vertex -17.2135 16.8817 3
    endloop
  endfacet
  facet normal 0.309022 -0.951055 0
    outer loop
      vertex -15.5365 17.4266 3
      vertex -17.2135 16.8817 0
      vertex -15.5365 17.4266 0
    endloop
  endfacet
  facet normal -0.809013 -0.587791 0
    outer loop
      vertex -14.5 16 0
      vertex -15.5365 17.4266 3
      vertex -15.5365 17.4266 0
    endloop
  endfacet
  facet normal -0.809013 -0.587791 0
    outer loop
      vertex -15.5365 17.4266 3
      vertex -14.5 16 0
      vertex -14.5 16 3
    endloop
  endfacet
  facet normal 1 -0 0
    outer loop
      vertex -17.2135 15.1183 3
      vertex -17.2135 16.8817 0
      vertex -17.2135 16.8817 3
    endloop
  endfacet
  facet normal 1 0 0
    outer loop
      vertex -17.2135 16.8817 0
      vertex -17.2135 15.1183 3
      vertex -17.2135 15.1183 0
    endloop
  endfacet
  facet normal -0.809013 0.587791 0
    outer loop
      vertex -15.5365 14.5734 0
      vertex -14.5 16 3
      vertex -14.5 16 0
    endloop
  endfacet
  facet normal -0.809013 0.587791 0
    outer loop
      vertex -14.5 16 3
      vertex -15.5365 14.5734 0
      vertex -15.5365 14.5734 3
    endloop
  endfacet
  facet normal 0.309022 0.951055 -0
    outer loop
      vertex -15.5365 -17.4266 0
      vertex -17.2135 -16.8817 3
      vertex -15.5365 -17.4266 3
    endloop
  endfacet
  facet normal 0.309022 0.951055 0
    outer loop
      vertex -17.2135 -16.8817 3
      vertex -15.5365 -17.4266 0
      vertex -17.2135 -16.8817 0
    endloop
  endfacet
  facet normal 0.309022 -0.951055 0
    outer loop
      vertex -17.2135 -15.1183 0
      vertex -15.5365 -14.5734 3
      vertex -17.2135 -15.1183 3
    endloop
  endfacet
  facet normal 0.309022 -0.951055 0
    outer loop
      vertex -15.5365 -14.5734 3
      vertex -17.2135 -15.1183 0
      vertex -15.5365 -14.5734 0
    endloop
  endfacet
  facet normal -0.809013 -0.587791 0
    outer loop
      vertex -14.5 -16 0
      vertex -15.5365 -14.5734 3
      vertex -15.5365 -14.5734 0
    endloop
  endfacet
  facet normal -0.809013 -0.587791 0
    outer loop
      vertex -15.5365 -14.5734 3
      vertex -14.5 -16 0
      vertex -14.5 -16 3
    endloop
  endfacet
  facet normal 1 -0 0
    outer loop
      vertex -17.2135 -16.8817 3
      vertex -17.2135 -15.1183 0
      vertex -17.2135 -15.1183 3
    endloop
  endfacet
  facet normal 1 0 0
    outer loop
      vertex -17.2135 -15.1183 0
      vertex -17.2135 -16.8817 3
      vertex -17.2135 -16.8817 0
    endloop
  endfacet
  facet normal -0.809013 0.587791 0
    outer loop
      vertex -15.5365 -17.4266 0
      vertex -14.5 -16 3
      vertex -14.5 -16 0
    endloop
  endfacet
  facet normal -0.809013 0.587791 0
    outer loop
      vertex -14.5 -16 3
      vertex -15.5365 -17.4266 0
      vertex -15.5365 -17.4266 3
    endloop
  endfacet
  facet normal 0.207902 -0.97815 0
    outer loop
      vertex -5.87132 18.0701 0
      vertex -1.98604 18.8959 3
      vertex -5.87132 18.0701 3
    endloop
  endfacet
  facet normal 0.207902 -0.97815 0
    outer loop
      vertex -1.98604 18.8959 3
      vertex -5.87132 18.0701 0
      vertex -1.98604 18.8959 0
    endloop
  endfacet
  facet normal -0.587778 -0.809022 0
    outer loop
      vertex 9.5 16.4545 0
      vertex 12.7135 14.1198 3
      vertex 9.5 16.4545 3
    endloop
  endfacet
  facet normal -0.587778 -0.809022 -0
    outer loop
      vertex 12.7135 14.1198 3
      vertex 9.5 16.4545 0
      vertex 12.7135 14.1198 0
    endloop
  endfacet
  facet normal -0.207902 -0.97815 0
    outer loop
      vertex 1.98604 18.8959 0
      vertex 5.87132 18.0701 3
      vertex 1.98604 18.8959 3
    endloop
  endfacet
  facet normal -0.207902 -0.97815 -0
    outer loop
      vertex 5.87132 18.0701 3
      vertex 1.98604 18.8959 0
      vertex 5.87132 18.0701 0
    endloop
  endfacet
  facet normal 0 1 -0
    outer loop
      vertex 1.98604 -18.8959 0
      vertex -1.98604 -18.8959 3
      vertex 1.98604 -18.8959 3
    endloop
  endfacet
  facet normal 0 1 0
    outer loop
      vertex -1.98604 -18.8959 3
      vertex 1.98604 -18.8959 0
      vertex -1.98604 -18.8959 0
    endloop
  endfacet
  facet normal -0.994522 0.10453 0
    outer loop
      vertex 18.5848 -3.95032 0
      vertex 19 0 3
      vertex 19 0 0
    endloop
  endfacet
  facet normal -0.994522 0.10453 0
    outer loop
      vertex 19 0 3
      vertex 18.5848 -3.95032 0
      vertex 18.5848 -3.95032 3
    endloop
  endfacet
  facet normal -0.866017 -0.500014 0
    outer loop
      vertex 17.3574 7.728 0
      vertex 15.3713 11.1679 3
      vertex 15.3713 11.1679 0
    endloop
  endfacet
  facet normal -0.866017 -0.500014 0
    outer loop
      vertex 15.3713 11.1679 3
      vertex 17.3574 7.728 0
      vertex 17.3574 7.728 3
    endloop
  endfacet
  facet normal 0 -1 0
    outer loop
      vertex -1.98604 18.8959 0
      vertex 1.98604 18.8959 3
      vertex -1.98604 18.8959 3
    endloop
  endfacet
  facet normal 0 -1 -0
    outer loop
      vertex 1.98604 18.8959 3
      vertex -1.98604 18.8959 0
      vertex 1.98604 18.8959 0
    endloop
  endfacet
  facet normal -0.994522 -0.10453 0
    outer loop
      vertex 19 0 0
      vertex 18.5848 3.95032 3
      vertex 18.5848 3.95032 0
    endloop
  endfacet
  facet normal -0.994522 -0.10453 0
    outer loop
      vertex 18.5848 3.95032 3
      vertex 19 0 0
      vertex 19 0 3
    endloop
  endfacet
  facet normal -0.587778 0.809022 0
    outer loop
      vertex 12.7135 -14.1198 0
      vertex 9.5 -16.4545 3
      vertex 12.7135 -14.1198 3
    endloop
  endfacet
  facet normal -0.587778 0.809022 0
    outer loop
      vertex 9.5 -16.4545 3
      vertex 12.7135 -14.1198 0
      vertex 9.5 -16.4545 0
    endloop
  endfacet
  facet normal 0.743158 0.669116 0
    outer loop
      vertex -12.7135 -14.1198 3
      vertex -15.3713 -11.1679 0
      vertex -15.3713 -11.1679 3
    endloop
  endfacet
  facet normal 0.743158 0.669116 0
    outer loop
      vertex -15.3713 -11.1679 0
      vertex -12.7135 -14.1198 3
      vertex -12.7135 -14.1198 0
    endloop
  endfacet
  facet normal -0.95106 -0.309007 0
    outer loop
      vertex 18.5848 3.95032 0
      vertex 17.3574 7.728 3
      vertex 17.3574 7.728 0
    endloop
  endfacet
  facet normal -0.95106 -0.309007 0
    outer loop
      vertex 17.3574 7.728 3
      vertex 18.5848 3.95032 0
      vertex 18.5848 3.95032 3
    endloop
  endfacet
  facet normal 0.587778 0.809022 -0
    outer loop
      vertex -9.5 -16.4545 0
      vertex -12.7135 -14.1198 3
      vertex -9.5 -16.4545 3
    endloop
  endfacet
  facet normal 0.587778 0.809022 0
    outer loop
      vertex -12.7135 -14.1198 3
      vertex -9.5 -16.4545 0
      vertex -12.7135 -14.1198 0
    endloop
  endfacet
  facet normal 0.406738 -0.913545 0
    outer loop
      vertex -9.5 16.4545 0
      vertex -5.87132 18.0701 3
      vertex -9.5 16.4545 3
    endloop
  endfacet
  facet normal 0.406738 -0.913545 0
    outer loop
      vertex -5.87132 18.0701 3
      vertex -9.5 16.4545 0
      vertex -5.87132 18.0701 0
    endloop
  endfacet
  facet normal -0.406738 -0.913545 0
    outer loop
      vertex 5.87132 18.0701 0
      vertex 9.5 16.4545 3
      vertex 5.87132 18.0701 3
    endloop
  endfacet
  facet normal -0.406738 -0.913545 -0
    outer loop
      vertex 9.5 16.4545 3
      vertex 5.87132 18.0701 0
      vertex 9.5 16.4545 0
    endloop
  endfacet
  facet normal 0.866017 0.500014 0
    outer loop
      vertex -15.3713 -11.1679 3
      vertex -17.3574 -7.728 0
      vertex -17.3574 -7.728 3
    endloop
  endfacet
  facet normal 0.866017 0.500014 0
    outer loop
      vertex -17.3574 -7.728 0
      vertex -15.3713 -11.1679 3
      vertex -15.3713 -11.1679 0
    endloop
  endfacet
  facet normal 0.866017 -0.500014 0
    outer loop
      vertex -17.3574 7.728 3
      vertex -15.3713 11.1679 0
      vertex -15.3713 11.1679 3
    endloop
  endfacet
  facet normal 0.866017 -0.500014 0
    outer loop
      vertex -15.3713 11.1679 0
      vertex -17.3574 7.728 3
      vertex -17.3574 7.728 0
    endloop
  endfacet
  facet normal -0.207902 0.97815 0
    outer loop
      vertex 5.87132 -18.0701 0
      vertex 1.98604 -18.8959 3
      vertex 5.87132 -18.0701 3
    endloop
  endfacet
  facet normal -0.207902 0.97815 0
    outer loop
      vertex 1.98604 -18.8959 3
      vertex 5.87132 -18.0701 0
      vertex 1.98604 -18.8959 0
    endloop
  endfacet
  facet normal -0.866017 0.500014 0
    outer loop
      vertex 15.3713 -11.1679 0
      vertex 17.3574 -7.728 3
      vertex 17.3574 -7.728 0
    endloop
  endfacet
  facet normal -0.866017 0.500014 0
    outer loop
      vertex 17.3574 -7.728 3
      vertex 15.3713 -11.1679 0
      vertex 15.3713 -11.1679 3
    endloop
  endfacet
  facet normal 0.95106 -0.309007 0
    outer loop
      vertex -18.5848 3.95032 3
      vertex -17.3574 7.728 0
      vertex -17.3574 7.728 3
    endloop
  endfacet
  facet normal 0.95106 -0.309007 0
    outer loop
      vertex -17.3574 7.728 0
      vertex -18.5848 3.95032 3
      vertex -18.5848 3.95032 0
    endloop
  endfacet
  facet normal 0.994522 -0.10453 0
    outer loop
      vertex -19 0 3
      vertex -18.5848 3.95032 0
      vertex -18.5848 3.95032 3
    endloop
  endfacet
  facet normal 0.994522 -0.10453 0
    outer loop
      vertex -18.5848 3.95032 0
      vertex -19 0 3
      vertex -19 0 0
    endloop
  endfacet
  facet normal 0.406738 0.913545 -0
    outer loop
      vertex -5.87132 -18.0701 0
      vertex -9.5 -16.4545 3
      vertex -5.87132 -18.0701 3
    endloop
  endfacet
  facet normal 0.406738 0.913545 0
    outer loop
      vertex -9.5 -16.4545 3
      vertex -5.87132 -18.0701 0
      vertex -9.5 -16.4545 0
    endloop
  endfacet
  facet normal -0.406738 0.913545 0
    outer loop
      vertex 9.5 -16.4545 0
      vertex 5.87132 -18.0701 3
      vertex 9.5 -16.4545 3
    endloop
  endfacet
  facet normal -0.406738 0.913545 0
    outer loop
      vertex 5.87132 -18.0701 3
      vertex 9.5 -16.4545 0
      vertex 5.87132 -18.0701 0
    endloop
  endfacet
  facet normal 0.95106 0.309007 0
    outer loop
      vertex -17.3574 -7.728 3
      vertex -18.5848 -3.95032 0
      vertex -18.5848 -3.95032 3
    endloop
  endfacet
  facet normal 0.95106 0.309007 0
    outer loop
      vertex -18.5848 -3.95032 0
      vertex -17.3574 -7.728 3
      vertex -17.3574 -7.728 0
    endloop
  endfacet
  facet normal -0.743158 -0.669116 0
    outer loop
      vertex 15.3713 11.1679 0
      vertex 12.7135 14.1198 3
      vertex 12.7135 14.1198 0
    endloop
  endfacet
  facet normal -0.743158 -0.669116 0
    outer loop
      vertex 12.7135 14.1198 3
      vertex 15.3713 11.1679 0
      vertex 15.3713 11.1679 3
    endloop
  endfacet
  facet normal -0.743158 0.669116 0
    outer loop
      vertex 12.7135 -14.1198 0
      vertex 15.3713 -11.1679 3
      vertex 15.3713 -11.1679 0
    endloop
  endfacet
  facet normal -0.743158 0.669116 0
    outer loop
      vertex 15.3713 -11.1679 3
      vertex 12.7135 -14.1198 0
      vertex 12.7135 -14.1198 3
    endloop
  endfacet
  facet normal 0.743158 -0.669116 0
    outer loop
      vertex -15.3713 11.1679 3
      vertex -12.7135 14.1198 0
      vertex -12.7135 14.1198 3
    endloop
  endfacet
  facet normal 0.743158 -0.669116 0
    outer loop
      vertex -12.7135 14.1198 0
      vertex -15.3713 11.1679 3
      vertex -15.3713 11.1679 0
    endloop
  endfacet
  facet normal 0.587778 -0.809022 0
    outer loop
      vertex -12.7135 14.1198 0
      vertex -9.5 16.4545 3
      vertex -12.7135 14.1198 3
    endloop
  endfacet
  facet normal 0.587778 -0.809022 0
    outer loop
      vertex -9.5 16.4545 3
      vertex -12.7135 14.1198 0
      vertex -9.5 16.4545 0
    endloop
  endfacet
  facet normal 0.994522 0.10453 0
    outer loop
      vertex -18.5848 -3.95032 3
      vertex -19 0 0
      vertex -19 0 3
    endloop
  endfacet
  facet normal 0.994522 0.10453 0
    outer loop
      vertex -19 0 0
      vertex -18.5848 -3.95032 3
      vertex -18.5848 -3.95032 0
    endloop
  endfacet
  facet normal -0.95106 0.309007 0
    outer loop
      vertex 17.3574 -7.728 0
      vertex 18.5848 -3.95032 3
      vertex 18.5848 -3.95032 0
    endloop
  endfacet
  facet normal -0.95106 0.309007 0
    outer loop
      vertex 18.5848 -3.95032 3
      vertex 17.3574 -7.728 0
      vertex 17.3574 -7.728 3
    endloop
  endfacet
  facet normal 0.207902 0.97815 -0
    outer loop
      vertex -1.98604 -18.8959 0
      vertex -5.87132 -18.0701 3
      vertex -1.98604 -18.8959 3
    endloop
  endfacet
  facet normal 0.207902 0.97815 0
    outer loop
      vertex -5.87132 -18.0701 3
      vertex -1.98604 -18.8959 0
      vertex -5.87132 -18.0701 0
    endloop
  endfacet
  facet normal 1 -0 0
    outer loop
      vertex 20 -17 3
      vertex 20 17 0
      vertex 20 17 3
    endloop
  endfacet
  facet normal 1 0 0
    outer loop
      vertex 20 17 0
      vertex 20 -17 3
      vertex 20 -17 0
    endloop
  endfacet
  facet normal 0.707107 0.707107 0
    outer loop
      vertex 19.4271 18.7634 3
      vertex 18.7634 19.4271 0
      vertex 18.7634 19.4271 3
    endloop
  endfacet
  facet normal 0.707107 0.707107 0
    outer loop
      vertex 18.7634 19.4271 0
      vertex 19.4271 18.7634 3
      vertex 19.4271 18.7634 0
    endloop
  endfacet
  facet normal -0.707107 -0.707107 0
    outer loop
      vertex -18.7634 -19.4271 0
      vertex -19.4271 -18.7634 3
      vertex -19.4271 -18.7634 0
    endloop
  endfacet
  facet normal -0.707107 -0.707107 0
    outer loop
      vertex -19.4271 -18.7634 3
      vertex -18.7634 -19.4271 0
      vertex -18.7634 -19.4271 3
    endloop
  endfacet
  facet normal 0 1 -0
    outer loop
      vertex 17 20 0
      vertex -17 20 3
      vertex 17 20 3
    endloop
  endfacet
  facet normal 0 1 0
    outer loop
      vertex -17 20 3
      vertex 17 20 0
      vertex -17 20 0
    endloop
  endfacet
  facet normal -0.156395 -0.987695 0
    outer loop
      vertex -17.9271 -19.8532 0
      vertex -17 -20 3
      vertex -17.9271 -19.8532 3
    endloop
  endfacet
  facet normal -0.156395 -0.987695 -0
    outer loop
      vertex -17 -20 3
      vertex -17.9271 -19.8532 0
      vertex -17 -20 0
    endloop
  endfacet
  facet normal -0.156395 0.987695 0
    outer loop
      vertex -17 20 0
      vertex -17.9271 19.8532 3
      vertex -17 20 3
    endloop
  endfacet
  facet normal -0.156395 0.987695 0
    outer loop
      vertex -17.9271 19.8532 3
      vertex -17 20 0
      vertex -17.9271 19.8532 0
    endloop
  endfacet
  facet normal 0.891013 -0.453977 0
    outer loop
      vertex 19.4271 -18.7634 3
      vertex 19.8532 -17.9271 0
      vertex 19.8532 -17.9271 3
    endloop
  endfacet
  facet normal 0.891013 -0.453977 0
    outer loop
      vertex 19.8532 -17.9271 0
      vertex 19.4271 -18.7634 3
      vertex 19.4271 -18.7634 0
    endloop
  endfacet
  facet normal 0.156395 0.987695 -0
    outer loop
      vertex 17.9271 19.8532 0
      vertex 17 20 3
      vertex 17.9271 19.8532 3
    endloop
  endfacet
  facet normal 0.156395 0.987695 0
    outer loop
      vertex 17 20 3
      vertex 17.9271 19.8532 0
      vertex 17 20 0
    endloop
  endfacet
  facet normal 0 -1 0
    outer loop
      vertex -17 -20 0
      vertex 17 -20 3
      vertex -17 -20 3
    endloop
  endfacet
  facet normal 0 -1 -0
    outer loop
      vertex 17 -20 3
      vertex -17 -20 0
      vertex 17 -20 0
    endloop
  endfacet
  facet normal 0.453977 0.891013 -0
    outer loop
      vertex 18.7634 19.4271 0
      vertex 17.9271 19.8532 3
      vertex 18.7634 19.4271 3
    endloop
  endfacet
  facet normal 0.453977 0.891013 0
    outer loop
      vertex 17.9271 19.8532 3
      vertex 18.7634 19.4271 0
      vertex 17.9271 19.8532 0
    endloop
  endfacet
  facet normal 0.987695 0.156395 0
    outer loop
      vertex 20 17 3
      vertex 19.8532 17.9271 0
      vertex 19.8532 17.9271 3
    endloop
  endfacet
  facet normal 0.987695 0.156395 0
    outer loop
      vertex 19.8532 17.9271 0
      vertex 20 17 3
      vertex 20 17 0
    endloop
  endfacet
  facet normal -0.707107 0.707107 0
    outer loop
      vertex -19.4271 18.7634 0
      vertex -18.7634 19.4271 3
      vertex -18.7634 19.4271 0
    endloop
  endfacet
  facet normal -0.707107 0.707107 0
    outer loop
      vertex -18.7634 19.4271 3
      vertex -19.4271 18.7634 0
      vertex -19.4271 18.7634 3
    endloop
  endfacet
  facet normal -0.453977 0.891013 0
    outer loop
      vertex -17.9271 19.8532 0
      vertex -18.7634 19.4271 3
      vertex -17.9271 19.8532 3
    endloop
  endfacet
  facet normal -0.453977 0.891013 0
    outer loop
      vertex -18.7634 19.4271 3
      vertex -17.9271 19.8532 0
      vertex -18.7634 19.4271 0
    endloop
  endfacet
  facet normal -0.453977 -0.891013 0
    outer loop
      vertex -18.7634 -19.4271 0
      vertex -17.9271 -19.8532 3
      vertex -18.7634 -19.4271 3
    endloop
  endfacet
  facet normal -0.453977 -0.891013 -0
    outer loop
      vertex -17.9271 -19.8532 3
      vertex -18.7634 -19.4271 0
      vertex -17.9271 -19.8532 0
    endloop
  endfacet
  facet normal -0.891013 0.453977 0
    outer loop
      vertex -19.8532 17.9271 0
      vertex -19.4271 18.7634 3
      vertex -19.4271 18.7634 0
    endloop
  endfacet
  facet normal -0.891013 0.453977 0
    outer loop
      vertex -19.4271 18.7634 3
      vertex -19.8532 17.9271 0
      vertex -19.8532 17.9271 3
    endloop
  endfacet
  facet normal 0.707107 -0.707107 0
    outer loop
      vertex 18.7634 -19.4271 3
      vertex 19.4271 -18.7634 0
      vertex 19.4271 -18.7634 3
    endloop
  endfacet
  facet normal 0.707107 -0.707107 0
    outer loop
      vertex 19.4271 -18.7634 0
      vertex 18.7634 -19.4271 3
      vertex 18.7634 -19.4271 0
    endloop
  endfacet
  facet normal 0.987695 -0.156395 0
    outer loop
      vertex 19.8532 -17.9271 3
      vertex 20 -17 0
      vertex 20 -17 3
    endloop
  endfacet
  facet normal 0.987695 -0.156395 0
    outer loop
      vertex 20 -17 0
      vertex 19.8532 -17.9271 3
      vertex 19.8532 -17.9271 0
    endloop
  endfacet
  facet normal -0.987695 0.156395 0
    outer loop
      vertex -20 17 0
      vertex -19.8532 17.9271 3
      vertex -19.8532 17.9271 0
    endloop
  endfacet
  facet normal -0.987695 0.156395 0
    outer loop
      vertex -19.8532 17.9271 3
      vertex -20 17 0
      vertex -20 17 3
    endloop
  endfacet
  facet normal 0.156395 -0.987695 0
    outer loop
      vertex 17 -20 0
      vertex 17.9271 -19.8532 3
      vertex 17 -20 3
    endloop
  endfacet
  facet normal 0.156395 -0.987695 0
    outer loop
      vertex 17.9271 -19.8532 3
      vertex 17 -20 0
      vertex 17.9271 -19.8532 0
    endloop
  endfacet
  facet normal 0 0 1
    outer loop
      vertex -15.5365 -14.5734 3
      vertex -12.7135 -14.1198 3
      vertex -15.3713 -11.1679 3
    endloop
  endfacet
  facet normal 0 0 1
    outer loop
      vertex -12.7135 -14.1198 3
      vertex -15.5365 -14.5734 3
      vertex -14.5 -16 3
    endloop
  endfacet
  facet normal 0 0 1
    outer loop
      vertex -15.3713 -11.1679 3
      vertex -17.2135 -15.1183 3
      vertex -15.5365 -14.5734 3
    endloop
  endfacet
  facet normal 0 0 1
    outer loop
      vertex -20 -17 3
      vertex -17.2135 -15.1183 3
      vertex -17.3574 -7.728 3
    endloop
  endfacet
  facet normal 0 0 1
    outer loop
      vertex -17.3574 -7.728 3
      vertex -17.2135 -15.1183 3
      vertex -15.3713 -11.1679 3
    endloop
  endfacet
  facet normal -0 0 1
    outer loop
      vertex -15.5365 14.5734 3
      vertex -12.7135 14.1198 3
      vertex -14.5 16 3
    endloop
  endfacet
  facet normal 0 0 1
    outer loop
      vertex -12.7135 14.1198 3
      vertex -15.5365 14.5734 3
      vertex -15.3713 11.1679 3
    endloop
  endfacet
  facet normal 0 0 1
    outer loop
      vertex -17.2135 15.1183 3
      vertex -15.3713 11.1679 3
      vertex -15.5365 14.5734 3
    endloop
  endfacet
  facet normal 0 0 1
    outer loop
      vertex -15.3713 11.1679 3
      vertex -17.2135 15.1183 3
      vertex -17.3574 7.728 3
    endloop
  endfacet
  facet normal 0 0 1
    outer loop
      vertex 16.4635 17.4266 3
      vertex 17.9271 19.8532 3
      vertex 17 20 3
    endloop
  endfacet
  facet normal 0 0 1
    outer loop
      vertex 17.9271 19.8532 3
      vertex 16.4635 17.4266 3
      vertex 17.5 16 3
    endloop
  endfacet
  facet normal 0 0 1
    outer loop
      vertex 17 20 3
      vertex 14.7865 16.8817 3
      vertex 16.4635 17.4266 3
    endloop
  endfacet
  facet normal 0 0 1
    outer loop
      vertex 14.7865 16.8817 3
      vertex 12.7135 14.1198 3
      vertex 14.7865 15.1183 3
    endloop
  endfacet
  facet normal 0 0 1
    outer loop
      vertex 9.5 16.4545 3
      vertex 14.7865 16.8817 3
      vertex 17 20 3
    endloop
  endfacet
  facet normal 0 0 1
    outer loop
      vertex 14.7865 16.8817 3
      vertex 9.5 16.4545 3
      vertex 12.7135 14.1198 3
    endloop
  endfacet
  facet normal 0 0 1
    outer loop
      vertex 17 20 3
      vertex 5.87132 18.0701 3
      vertex 9.5 16.4545 3
    endloop
  endfacet
  facet normal 0 0 1
    outer loop
      vertex 17 20 3
      vertex 1.98604 18.8959 3
      vertex 5.87132 18.0701 3
    endloop
  endfacet
  facet normal 0 0 1
    outer loop
      vertex 17 20 3
      vertex -1.98604 18.8959 3
      vertex 1.98604 18.8959 3
    endloop
  endfacet
  facet normal 0 0 1
    outer loop
      vertex -9.5 16.4545 3
      vertex -14.5 16 3
      vertex -12.7135 14.1198 3
    endloop
  endfacet
  facet normal 0 0 1
    outer loop
      vertex -17 20 3
      vertex -9.5 16.4545 3
      vertex -5.87132 18.0701 3
    endloop
  endfacet
  facet normal 0 0 1
    outer loop
      vertex -9.5 16.4545 3
      vertex -15.5365 17.4266 3
      vertex -14.5 16 3
    endloop
  endfacet
  facet normal 0 0 1
    outer loop
      vertex -17 20 3
      vertex -5.87132 18.0701 3
      vertex -1.98604 18.8959 3
    endloop
  endfacet
  facet normal -0 0 1
    outer loop
      vertex -17 20 3
      vertex -1.98604 18.8959 3
      vertex 17 20 3
    endloop
  endfacet
  facet normal 0 0 1
    outer loop
      vertex -9.5 16.4545 3
      vertex -17 20 3
      vertex -15.5365 17.4266 3
    endloop
  endfacet
  facet normal 0 0 1
    outer loop
      vertex -17 20 3
      vertex -17.2135 16.8817 3
      vertex -15.5365 17.4266 3
    endloop
  endfacet
  facet normal 0 0 1
    outer loop
      vertex -20 17 3
      vertex -17.2135 15.1183 3
      vertex -17.2135 16.8817 3
    endloop
  endfacet
  facet normal -0 0 1
    outer loop
      vertex -17.9271 19.8532 3
      vertex -17.2135 16.8817 3
      vertex -17 20 3
    endloop
  endfacet
  facet normal -0 0 1
    outer loop
      vertex -18.7634 19.4271 3
      vertex -17.2135 16.8817 3
      vertex -17.9271 19.8532 3
    endloop
  endfacet
  facet normal 0 0 1
    outer loop
      vertex -17.2135 15.1183 3
      vertex -20 17 3
      vertex -17.3574 7.728 3
    endloop
  endfacet
  facet normal -0 0 1
    outer loop
      vertex -19.4271 18.7634 3
      vertex -17.2135 16.8817 3
      vertex -18.7634 19.4271 3
    endloop
  endfacet
  facet normal 0 0 1
    outer loop
      vertex -17.3574 7.728 3
      vertex -20 17 3
      vertex -18.5848 3.95032 3
    endloop
  endfacet
  facet normal -0 0 1
    outer loop
      vertex -19.8532 17.9271 3
      vertex -17.2135 16.8817 3
      vertex -19.4271 18.7634 3
    endloop
  endfacet
  facet normal 0 0 1
    outer loop
      vertex 17.5 16 3
      vertex 20 17 3
      vertex 19.8532 17.9271 3
    endloop
  endfacet
  facet normal 0 0 1
    outer loop
      vertex 20 17 3
      vertex 19 0 3
      vertex 20 -17 3
    endloop
  endfacet
  facet normal 0 0 1
    outer loop
      vertex 17.5 16 3
      vertex 19.8532 17.9271 3
      vertex 19.4271 18.7634 3
    endloop
  endfacet
  facet normal -0 0 1
    outer loop
      vertex 18.5848 -3.95032 3
      vertex 20 -17 3
      vertex 19 0 3
    endloop
  endfacet
  facet normal -0 0 1
    outer loop
      vertex 17.3574 -7.728 3
      vertex 20 -17 3
      vertex 18.5848 -3.95032 3
    endloop
  endfacet
  facet normal 0 0 1
    outer loop
      vertex 17.5 16 3
      vertex 19.4271 18.7634 3
      vertex 18.7634 19.4271 3
    endloop
  endfacet
  facet normal 0 0 1
    outer loop
      vertex 20 17 3
      vertex 18.5848 3.95032 3
      vertex 19 0 3
    endloop
  endfacet
  facet normal 0 0 1
    outer loop
      vertex 17.5 16 3
      vertex 18.7634 19.4271 3
      vertex 17.9271 19.8532 3
    endloop
  endfacet
  facet normal 0 0 1
    outer loop
      vertex 16.4635 14.5734 3
      vertex 20 17 3
      vertex 17.5 16 3
    endloop
  endfacet
  facet normal 0 0 1
    outer loop
      vertex 20 17 3
      vertex 17.3574 7.728 3
      vertex 18.5848 3.95032 3
    endloop
  endfacet
  facet normal 0 0 1
    outer loop
      vertex 20 17 3
      vertex 16.4635 14.5734 3
      vertex 17.3574 7.728 3
    endloop
  endfacet
  facet normal 0 0 1
    outer loop
      vertex 16.4635 14.5734 3
      vertex 15.3713 11.1679 3
      vertex 17.3574 7.728 3
    endloop
  endfacet
  facet normal 0 0 1
    outer loop
      vertex 14.7865 15.1183 3
      vertex 15.3713 11.1679 3
      vertex 16.4635 14.5734 3
    endloop
  endfacet
  facet normal 0 0 1
    outer loop
      vertex 15.3713 11.1679 3
      vertex 14.7865 15.1183 3
      vertex 12.7135 14.1198 3
    endloop
  endfacet
  facet normal -0 0 1
    outer loop
      vertex 16.4635 -14.5734 3
      vertex 20 -17 3
      vertex 17.3574 -7.728 3
    endloop
  endfacet
  facet normal 0 0 1
    outer loop
      vertex 20 -17 3
      vertex 17.5 -16 3
      vertex 19.8532 -17.9271 3
    endloop
  endfacet
  facet normal -0 0 1
    outer loop
      vertex 16.4635 -17.4266 3
      vertex 19.8532 -17.9271 3
      vertex 17.5 -16 3
    endloop
  endfacet
  facet normal 0 0 1
    outer loop
      vertex 19.4271 -18.7634 3
      vertex 16.4635 -17.4266 3
      vertex 18.7634 -19.4271 3
    endloop
  endfacet
  facet normal 0 0 1
    outer loop
      vertex 19.8532 -17.9271 3
      vertex 16.4635 -17.4266 3
      vertex 19.4271 -18.7634 3
    endloop
  endfacet
  facet normal 0 0 1
    outer loop
      vertex 20 -17 3
      vertex 16.4635 -14.5734 3
      vertex 17.5 -16 3
    endloop
  endfacet
  facet normal -0 0 1
    outer loop
      vertex 15.3713 -11.1679 3
      vertex 16.4635 -14.5734 3
      vertex 17.3574 -7.728 3
    endloop
  endfacet
  facet normal 0 0 1
    outer loop
      vertex 15.3713 -11.1679 3
      vertex 14.7865 -15.1183 3
      vertex 16.4635 -14.5734 3
    endloop
  endfacet
  facet normal 0 0 1
    outer loop
      vertex 14.7865 -15.1183 3
      vertex 12.7135 -14.1198 3
      vertex 14.7865 -16.8817 3
    endloop
  endfacet
  facet normal -0 0 1
    outer loop
      vertex 12.7135 -14.1198 3
      vertex 14.7865 -15.1183 3
      vertex 15.3713 -11.1679 3
    endloop
  endfacet
  facet normal 0 0 1
    outer loop
      vertex 18.7634 -19.4271 3
      vertex 16.4635 -17.4266 3
      vertex 17.9271 -19.8532 3
    endloop
  endfacet
  facet normal 0 0 1
    outer loop
      vertex 17.9271 -19.8532 3
      vertex 16.4635 -17.4266 3
      vertex 17 -20 3
    endloop
  endfacet
  facet normal 0 0 1
    outer loop
      vertex 14.7865 -16.8817 3
      vertex 17 -20 3
      vertex 16.4635 -17.4266 3
    endloop
  endfacet
  facet normal -0 0 1
    outer loop
      vertex 9.5 -16.4545 3
      vertex 14.7865 -16.8817 3
      vertex 12.7135 -14.1198 3
    endloop
  endfacet
  facet normal 0 0 1
    outer loop
      vertex 14.7865 -16.8817 3
      vertex 9.5 -16.4545 3
      vertex 17 -20 3
    endloop
  endfacet
  facet normal -0 0 1
    outer loop
      vertex 5.87132 -18.0701 3
      vertex 17 -20 3
      vertex 9.5 -16.4545 3
    endloop
  endfacet
  facet normal -0 0 1
    outer loop
      vertex 1.98604 -18.8959 3
      vertex 17 -20 3
      vertex 5.87132 -18.0701 3
    endloop
  endfacet
  facet normal -0 0 1
    outer loop
      vertex -1.98604 -18.8959 3
      vertex 17 -20 3
      vertex 1.98604 -18.8959 3
    endloop
  endfacet
  facet normal -0 0 1
    outer loop
      vertex -14.5 -16 3
      vertex -9.5 -16.4545 3
      vertex -12.7135 -14.1198 3
    endloop
  endfacet
  facet normal 0 0 1
    outer loop
      vertex -15.5365 -17.4266 3
      vertex -9.5 -16.4545 3
      vertex -14.5 -16 3
    endloop
  endfacet
  facet normal 0 0 1
    outer loop
      vertex -17 -20 3
      vertex -9.5 -16.4545 3
      vertex -15.5365 -17.4266 3
    endloop
  endfacet
  facet normal 0 0 1
    outer loop
      vertex -9.5 -16.4545 3
      vertex -17 -20 3
      vertex -5.87132 -18.0701 3
    endloop
  endfacet
  facet normal 0 0 1
    outer loop
      vertex -1.98604 -18.8959 3
      vertex -17 -20 3
      vertex 17 -20 3
    endloop
  endfacet
  facet normal 0 0 1
    outer loop
      vertex -5.87132 -18.0701 3
      vertex -17 -20 3
      vertex -1.98604 -18.8959 3
    endloop
  endfacet
  facet normal 0 0 1
    outer loop
      vertex -17.2135 -16.8817 3
      vertex -17 -20 3
      vertex -15.5365 -17.4266 3
    endloop
  endfacet
  facet normal 0 0 1
    outer loop
      vertex -17.2135 -16.8817 3
      vertex -17.9271 -19.8532 3
      vertex -17 -20 3
    endloop
  endfacet
  facet normal 0 0 1
    outer loop
      vertex -17.2135 -15.1183 3
      vertex -20 -17 3
      vertex -17.2135 -16.8817 3
    endloop
  endfacet
  facet normal 0 0 1
    outer loop
      vertex -20 -17 3
      vertex -17.3574 -7.728 3
      vertex -18.5848 -3.95032 3
    endloop
  endfacet
  facet normal 0 -0 1
    outer loop
      vertex -19.8532 -17.9271 3
      vertex -17.2135 -16.8817 3
      vertex -20 -17 3
    endloop
  endfacet
  facet normal 0 0 1
    outer loop
      vertex -20 -17 3
      vertex -18.5848 -3.95032 3
      vertex -19 0 3
    endloop
  endfacet
  facet normal 0 0 1
    outer loop
      vertex -18.5848 3.95032 3
      vertex -20 17 3
      vertex -19 0 3
    endloop
  endfacet
  facet normal 0 0 1
    outer loop
      vertex -20 -17 3
      vertex -19 0 3
      vertex -20 17 3
    endloop
  endfacet
  facet normal 0 0 1
    outer loop
      vertex -17.2135 16.8817 3
      vertex -19.8532 17.9271 3
      vertex -20 17 3
    endloop
  endfacet
  facet normal 0 0 1
    outer loop
      vertex -17.2135 -16.8817 3
      vertex -18.7634 -19.4271 3
      vertex -17.9271 -19.8532 3
    endloop
  endfacet
  facet normal 0 0 1
    outer loop
      vertex -17.2135 -16.8817 3
      vertex -19.4271 -18.7634 3
      vertex -18.7634 -19.4271 3
    endloop
  endfacet
  facet normal 0 0 1
    outer loop
      vertex -17.2135 -16.8817 3
      vertex -19.8532 -17.9271 3
      vertex -19.4271 -18.7634 3
    endloop
  endfacet
  facet normal -1 0 0
    outer loop
      vertex -20 -17 0
      vertex -20 17 3
      vertex -20 17 0
    endloop
  endfacet
  facet normal -1 -0 0
    outer loop
      vertex -20 17 3
      vertex -20 -17 0
      vertex -20 -17 3
    endloop
  endfacet
  facet normal 0.891013 0.453977 0
    outer loop
      vertex 19.8532 17.9271 3
      vertex 19.4271 18.7634 0
      vertex 19.4271 18.7634 3
    endloop
  endfacet
  facet normal 0.891013 0.453977 0
    outer loop
      vertex 19.4271 18.7634 0
      vertex 19.8532 17.9271 3
      vertex 19.8532 17.9271 0
    endloop
  endfacet
  facet normal -0.987695 -0.156395 0
    outer loop
      vertex -19.8532 -17.9271 0
      vertex -20 -17 3
      vertex -20 -17 0
    endloop
  endfacet
  facet normal -0.987695 -0.156395 0
    outer loop
      vertex -20 -17 3
      vertex -19.8532 -17.9271 0
      vertex -19.8532 -17.9271 3
    endloop
  endfacet
  facet normal 0.453977 -0.891013 0
    outer loop
      vertex 17.9271 -19.8532 0
      vertex 18.7634 -19.4271 3
      vertex 17.9271 -19.8532 3
    endloop
  endfacet
  facet normal 0.453977 -0.891013 0
    outer loop
      vertex 18.7634 -19.4271 3
      vertex 17.9271 -19.8532 0
      vertex 18.7634 -19.4271 0
    endloop
  endfacet
  facet normal -0.891013 -0.453977 0
    outer loop
      vertex -19.4271 -18.7634 0
      vertex -19.8532 -17.9271 3
      vertex -19.8532 -17.9271 0
    endloop
  endfacet
  facet normal -0.891013 -0.453977 0
    outer loop
      vertex -19.8532 -17.9271 3
      vertex -19.4271 -18.7634 0
      vertex -19.4271 -18.7634 3
    endloop
  endfacet
endsolid OpenSCAD_Model
