solid OpenSCAD_Model
  facet normal 1 -0 0
    outer loop
      vertex 10 -33 52
      vertex 10 0 42
      vertex 10 0 52
    endloop
  endfacet
  facet normal 1 0 0
    outer loop
      vertex 10 0 42
      vertex 10 -33 52
      vertex 10 -33 42
    endloop
  endfacet
  facet normal -0 0 1
    outer loop
      vertex 0 0 52
      vertex 10 -33 52
      vertex 10 0 52
    endloop
  endfacet
  facet normal 0 0 1
    outer loop
      vertex 10 -33 52
      vertex 0 0 52
      vertex 0 -33 52
    endloop
  endfacet
  facet normal 0 0 -1
    outer loop
      vertex 0 -33 42
      vertex 10 0 42
      vertex 10 -33 42
    endloop
  endfacet
  facet normal -0 0 -1
    outer loop
      vertex 10 0 42
      vertex 0 -33 42
      vertex 0 0 42
    endloop
  endfacet
  facet normal -1 0 0
    outer loop
      vertex 0 -38 22
      vertex 0 -33 42
      vertex 0 -33 22
    endloop
  endfacet
  facet normal -1 -0 0
    outer loop
      vertex 0 -33 42
      vertex 0 -38 22
      vertex 0 -33 52
    endloop
  endfacet
  facet normal -1 0 0
    outer loop
      vertex 0 -38 72
      vertex 0 -33 52
      vertex 0 -38 22
    endloop
  endfacet
  facet normal -1 0 0
    outer loop
      vertex 0 -33 52
      vertex 0 -38 72
      vertex 0 -33 72
    endloop
  endfacet
  facet normal -1 0 0
    outer loop
      vertex 0 -33 42
      vertex 0 0 52
      vertex 0 0 42
    endloop
  endfacet
  facet normal -1 -0 0
    outer loop
      vertex 0 0 52
      vertex 0 -33 42
      vertex 0 -33 52
    endloop
  endfacet
  facet normal 0 1 0
    outer loop
      vertex 10 0 52
      vertex 5.46352 0 48.4266
      vertex 0 0 52
    endloop
  endfacet
  facet normal 0 1 0
    outer loop
      vertex 10 0 52
      vertex 6.5 0 47
      vertex 5.46352 0 48.4266
    endloop
  endfacet
  facet normal 0 1 0
    outer loop
      vertex 6.5 0 47
      vertex 10 0 42
      vertex 5.46352 0 45.5734
    endloop
  endfacet
  facet normal 0 1 -0
    outer loop
      vertex 10 0 42
      vertex 6.5 0 47
      vertex 10 0 52
    endloop
  endfacet
  facet normal 0 1 -0
    outer loop
      vertex 3.78647 0 47.8817
      vertex 0 0 52
      vertex 5.46352 0 48.4266
    endloop
  endfacet
  facet normal 0 1 -0
    outer loop
      vertex 3.78647 0 46.1183
      vertex 0 0 52
      vertex 3.78647 0 47.8817
    endloop
  endfacet
  facet normal 0 1 0
    outer loop
      vertex 0 0 42
      vertex 5.46352 0 45.5734
      vertex 10 0 42
    endloop
  endfacet
  facet normal 0 1 0
    outer loop
      vertex 3.78647 0 46.1183
      vertex 0 0 42
      vertex 0 0 52
    endloop
  endfacet
  facet normal 0 1 0
    outer loop
      vertex 5.46352 0 45.5734
      vertex 0 0 42
      vertex 3.78647 0 46.1183
    endloop
  endfacet
  facet normal 0 1 0
    outer loop
      vertex 146.6 -33 72
      vertex 145.65 -33 56.5
      vertex 145.65 -33 72
    endloop
  endfacet
  facet normal 0 1 -0
    outer loop
      vertex 136.6 -33 52
      vertex 109.158 -33 56.1969
      vertex 145.475 -33 56.1969
    endloop
  endfacet
  facet normal 0 1 -0
    outer loop
      vertex 123.875 -33 37.8031
      vertex 109.158 -33 56.1969
      vertex 136.6 -33 52
    endloop
  endfacet
  facet normal 0 1 0
    outer loop
      vertex 123.875 -33 37.8031
      vertex 136.6 -33 52
      vertex 136.6 -33 42
    endloop
  endfacet
  facet normal 0 1 0
    outer loop
      vertex 102.275 -33 56.1969
      vertex 87.5584 -33 37.8031
      vertex 65.9584 -33 56.1969
    endloop
  endfacet
  facet normal 0 1 0
    outer loop
      vertex 136.6 -33 52
      vertex 145.475 -33 56.1969
      vertex 146.6 -33 52
    endloop
  endfacet
  facet normal 0 1 0
    outer loop
      vertex 145.65 -33 56.5
      vertex 146.6 -33 52
      vertex 145.475 -33 56.1969
    endloop
  endfacet
  facet normal 0 1 -0
    outer loop
      vertex 146.6 -33 52
      vertex 145.65 -33 56.5
      vertex 146.6 -33 72
    endloop
  endfacet
  facet normal 0 1 -0
    outer loop
      vertex 109.017 -33 56.5
      vertex 102.45 -33 72
      vertex 109.017 -33 72
    endloop
  endfacet
  facet normal 0 1 0
    outer loop
      vertex 109.017 -33 56.5
      vertex 102.45 -33 56.5
      vertex 102.45 -33 72
    endloop
  endfacet
  facet normal 0 1 0
    outer loop
      vertex 109.158 -33 56.1969
      vertex 102.45 -33 56.5
      vertex 109.017 -33 56.5
    endloop
  endfacet
  facet normal 0 1 0
    outer loop
      vertex 102.45 -33 56.5
      vertex 109.158 -33 56.1969
      vertex 102.275 -33 56.1969
    endloop
  endfacet
  facet normal 0 1 -0
    outer loop
      vertex 65.8168 -33 56.5
      vertex 59.25 -33 72
      vertex 65.8168 -33 72
    endloop
  endfacet
  facet normal 0 1 0
    outer loop
      vertex 65.8168 -33 56.5
      vertex 59.25 -33 56.5
      vertex 59.25 -33 72
    endloop
  endfacet
  facet normal 0 1 0
    outer loop
      vertex 65.9584 -33 56.1969
      vertex 59.25 -33 56.5
      vertex 65.8168 -33 56.5
    endloop
  endfacet
  facet normal 0 1 0
    outer loop
      vertex 59.25 -33 56.5
      vertex 65.9584 -33 56.1969
      vertex 59.075 -33 56.1969
    endloop
  endfacet
  facet normal 0 1 0
    outer loop
      vertex 10 -33 52
      vertex 22.6168 -33 72
      vertex 22.6168 -33 56.5
    endloop
  endfacet
  facet normal 0 1 0
    outer loop
      vertex 10 -33 52
      vertex 22.6168 -33 56.5
      vertex 22.7584 -33 56.1969
    endloop
  endfacet
  facet normal 0 1 -0
    outer loop
      vertex 80.675 -33 37.8031
      vertex 65.9584 -33 56.1969
      vertex 87.5584 -33 37.8031
    endloop
  endfacet
  facet normal 0 1 0
    outer loop
      vertex 109.158 -33 56.1969
      vertex 123.875 -33 37.8031
      vertex 102.275 -33 56.1969
    endloop
  endfacet
  facet normal 0 1 0
    outer loop
      vertex 22.6168 -33 72
      vertex 10 -33 52
      vertex 0 -33 72
    endloop
  endfacet
  facet normal 0 1 0
    outer loop
      vertex 0 -33 72
      vertex 10 -33 52
      vertex 0 -33 52
    endloop
  endfacet
  facet normal 0 1 0
    outer loop
      vertex 37.65 -33 37.5
      vertex 44.3584 -33 37.8031
      vertex 44.2168 -33 37.5
    endloop
  endfacet
  facet normal 0 1 0
    outer loop
      vertex 44.3584 -33 37.8031
      vertex 37.65 -33 37.5
      vertex 37.475 -33 37.8031
    endloop
  endfacet
  facet normal 0 1 -0
    outer loop
      vertex 44.2168 -33 22
      vertex 37.65 -33 37.5
      vertex 44.2168 -33 37.5
    endloop
  endfacet
  facet normal 0 1 0
    outer loop
      vertex 37.65 -33 37.5
      vertex 44.2168 -33 22
      vertex 37.65 -33 22
    endloop
  endfacet
  facet normal 0 1 0
    outer loop
      vertex 80.85 -33 37.5
      vertex 87.5584 -33 37.8031
      vertex 87.4168 -33 37.5
    endloop
  endfacet
  facet normal 0 1 0
    outer loop
      vertex 87.5584 -33 37.8031
      vertex 80.85 -33 37.5
      vertex 80.675 -33 37.8031
    endloop
  endfacet
  facet normal 0 1 -0
    outer loop
      vertex 87.4168 -33 22
      vertex 80.85 -33 37.5
      vertex 87.4168 -33 37.5
    endloop
  endfacet
  facet normal 0 1 0
    outer loop
      vertex 80.85 -33 37.5
      vertex 87.4168 -33 22
      vertex 80.85 -33 22
    endloop
  endfacet
  facet normal 0 1 -0
    outer loop
      vertex 146.6 -33 22
      vertex 136.6 -33 42
      vertex 146.6 -33 42
    endloop
  endfacet
  facet normal 0 1 0
    outer loop
      vertex 59.075 -33 56.1969
      vertex 44.3584 -33 37.8031
      vertex 22.7584 -33 56.1969
    endloop
  endfacet
  facet normal 0 1 0
    outer loop
      vertex 102.275 -33 56.1969
      vertex 123.875 -33 37.8031
      vertex 87.5584 -33 37.8031
    endloop
  endfacet
  facet normal 0 1 0
    outer loop
      vertex 136.6 -33 42
      vertex 124.05 -33 37.5
      vertex 123.875 -33 37.8031
    endloop
  endfacet
  facet normal 0 1 0
    outer loop
      vertex 124.05 -33 22
      vertex 136.6 -33 42
      vertex 146.6 -33 22
    endloop
  endfacet
  facet normal 0 1 0
    outer loop
      vertex 136.6 -33 42
      vertex 124.05 -33 22
      vertex 124.05 -33 37.5
    endloop
  endfacet
  facet normal 0 1 0
    outer loop
      vertex 65.9584 -33 56.1969
      vertex 80.675 -33 37.8031
      vertex 59.075 -33 56.1969
    endloop
  endfacet
  facet normal 0 1 0
    outer loop
      vertex 22.7584 -33 56.1969
      vertex 10 -33 42
      vertex 10 -33 52
    endloop
  endfacet
  facet normal 0 1 0
    outer loop
      vertex 44.3584 -33 37.8031
      vertex 59.075 -33 56.1969
      vertex 80.675 -33 37.8031
    endloop
  endfacet
  facet normal 0 1 -0
    outer loop
      vertex 37.475 -33 37.8031
      vertex 22.7584 -33 56.1969
      vertex 44.3584 -33 37.8031
    endloop
  endfacet
  facet normal 0 1 0
    outer loop
      vertex 22.7584 -33 56.1969
      vertex 37.475 -33 37.8031
      vertex 10 -33 42
    endloop
  endfacet
  facet normal 0 1 0
    outer loop
      vertex 1.15842 -33 37.8031
      vertex 10 -33 42
      vertex 37.475 -33 37.8031
    endloop
  endfacet
  facet normal 0 1 0
    outer loop
      vertex 10 -33 42
      vertex 1.15842 -33 37.8031
      vertex 0 -33 42
    endloop
  endfacet
  facet normal 0 1 -0
    outer loop
      vertex 1.01684 -33 37.5
      vertex 0 -33 42
      vertex 1.15842 -33 37.8031
    endloop
  endfacet
  facet normal 0 1 0
    outer loop
      vertex 0 -33 22
      vertex 1.01684 -33 37.5
      vertex 1.01684 -33 22
    endloop
  endfacet
  facet normal 0 1 0
    outer loop
      vertex 1.01684 -33 37.5
      vertex 0 -33 22
      vertex 0 -33 42
    endloop
  endfacet
  facet normal 1 -0 0
    outer loop
      vertex 146.6 -38 72
      vertex 146.6 -33 52
      vertex 146.6 -33 72
    endloop
  endfacet
  facet normal 1 0 0
    outer loop
      vertex 146.6 -33 52
      vertex 146.6 -38 72
      vertex 146.6 -33 42
    endloop
  endfacet
  facet normal 1 0 0
    outer loop
      vertex 146.6 -38 22
      vertex 146.6 -33 42
      vertex 146.6 -38 72
    endloop
  endfacet
  facet normal 1 0 0
    outer loop
      vertex 146.6 -33 42
      vertex 146.6 -38 22
      vertex 146.6 -33 22
    endloop
  endfacet
  facet normal 1 -0 0
    outer loop
      vertex 146.6 -33 52
      vertex 146.6 0 42
      vertex 146.6 0 52
    endloop
  endfacet
  facet normal 1 0 0
    outer loop
      vertex 146.6 0 42
      vertex 146.6 -33 52
      vertex 146.6 -33 42
    endloop
  endfacet
  facet normal -0 0 1
    outer loop
      vertex 136.6 0 52
      vertex 146.6 -33 52
      vertex 146.6 0 52
    endloop
  endfacet
  facet normal 0 0 1
    outer loop
      vertex 146.6 -33 52
      vertex 136.6 0 52
      vertex 136.6 -33 52
    endloop
  endfacet
  facet normal 0 0 -1
    outer loop
      vertex 136.6 -33 42
      vertex 146.6 0 42
      vertex 146.6 -33 42
    endloop
  endfacet
  facet normal -0 0 -1
    outer loop
      vertex 146.6 0 42
      vertex 136.6 -33 42
      vertex 136.6 0 42
    endloop
  endfacet
  facet normal -1 0 0
    outer loop
      vertex 136.6 -33 42
      vertex 136.6 0 52
      vertex 136.6 0 42
    endloop
  endfacet
  facet normal -1 -0 0
    outer loop
      vertex 136.6 0 52
      vertex 136.6 -33 42
      vertex 136.6 -33 52
    endloop
  endfacet
  facet normal 0 1 0
    outer loop
      vertex 146.6 0 52
      vertex 142.064 0 48.4266
      vertex 136.6 0 52
    endloop
  endfacet
  facet normal 0 1 0
    outer loop
      vertex 146.6 0 52
      vertex 143.1 0 47
      vertex 142.064 0 48.4266
    endloop
  endfacet
  facet normal 0 1 0
    outer loop
      vertex 143.1 0 47
      vertex 146.6 0 42
      vertex 142.064 0 45.5734
    endloop
  endfacet
  facet normal 0 1 -0
    outer loop
      vertex 146.6 0 42
      vertex 143.1 0 47
      vertex 146.6 0 52
    endloop
  endfacet
  facet normal 0 1 -0
    outer loop
      vertex 140.386 0 47.8817
      vertex 136.6 0 52
      vertex 142.064 0 48.4266
    endloop
  endfacet
  facet normal 0 1 -0
    outer loop
      vertex 140.386 0 46.1183
      vertex 136.6 0 52
      vertex 140.386 0 47.8817
    endloop
  endfacet
  facet normal 0 1 0
    outer loop
      vertex 136.6 0 42
      vertex 142.064 0 45.5734
      vertex 146.6 0 42
    endloop
  endfacet
  facet normal 0 1 0
    outer loop
      vertex 140.386 0 46.1183
      vertex 136.6 0 42
      vertex 136.6 0 52
    endloop
  endfacet
  facet normal 0 1 0
    outer loop
      vertex 142.064 0 45.5734
      vertex 136.6 0 42
      vertex 140.386 0 46.1183
    endloop
  endfacet
  facet normal 0 0 1
    outer loop
      vertex 22.6168 -33 72
      vertex 0 -33 72
      vertex 22.6168 -35.2057 72
    endloop
  endfacet
  facet normal 0 0 1
    outer loop
      vertex 59.25 -35 72
      vertex 65.8168 -33 72
      vertex 59.25 -33 72
    endloop
  endfacet
  facet normal 0 0 1
    outer loop
      vertex 102.45 -35 72
      vertex 109.017 -33 72
      vertex 102.45 -33 72
    endloop
  endfacet
  facet normal 0 0 1
    outer loop
      vertex 145.65 -35 72
      vertex 146.6 -33 72
      vertex 145.65 -33 72
    endloop
  endfacet
  facet normal 0 0 1
    outer loop
      vertex 146.6 -33 72
      vertex 145.65 -35 72
      vertex 146.6 -38 72
    endloop
  endfacet
  facet normal -0 0 1
    outer loop
      vertex 145.408 -35.3329 72
      vertex 146.6 -38 72
      vertex 145.65 -35 72
    endloop
  endfacet
  facet normal -0 0 1
    outer loop
      vertex 109.408 -35.3329 72
      vertex 146.6 -38 72
      vertex 145.408 -35.3329 72
    endloop
  endfacet
  facet normal 0 0 1
    outer loop
      vertex 109.017 -33 72
      vertex 102.45 -35 72
      vertex 109.017 -35.2057 72
    endloop
  endfacet
  facet normal 0 0 1
    outer loop
      vertex 102.208 -35.3329 72
      vertex 109.017 -35.2057 72
      vertex 102.45 -35 72
    endloop
  endfacet
  facet normal 0 0 1
    outer loop
      vertex 109.017 -35.2057 72
      vertex 102.208 -35.3329 72
      vertex 109.408 -35.3329 72
    endloop
  endfacet
  facet normal 0 0 1
    outer loop
      vertex 109.408 -35.3329 72
      vertex 102.208 -35.3329 72
      vertex 146.6 -38 72
    endloop
  endfacet
  facet normal -0 0 1
    outer loop
      vertex 66.2082 -35.3329 72
      vertex 146.6 -38 72
      vertex 102.208 -35.3329 72
    endloop
  endfacet
  facet normal 0 0 1
    outer loop
      vertex 65.8168 -33 72
      vertex 59.25 -35 72
      vertex 65.8168 -35.2057 72
    endloop
  endfacet
  facet normal 0 0 1
    outer loop
      vertex 59.0082 -35.3329 72
      vertex 65.8168 -35.2057 72
      vertex 59.25 -35 72
    endloop
  endfacet
  facet normal 0 0 1
    outer loop
      vertex 65.8168 -35.2057 72
      vertex 59.0082 -35.3329 72
      vertex 66.2082 -35.3329 72
    endloop
  endfacet
  facet normal 0 0 1
    outer loop
      vertex 0 -38 72
      vertex 66.2082 -35.3329 72
      vertex 59.0082 -35.3329 72
    endloop
  endfacet
  facet normal 0 0 1
    outer loop
      vertex 0 -38 72
      vertex 59.0082 -35.3329 72
      vertex 23.0082 -35.3329 72
    endloop
  endfacet
  facet normal 0 0 1
    outer loop
      vertex 0 -38 72
      vertex 22.6168 -35.2057 72
      vertex 0 -33 72
    endloop
  endfacet
  facet normal 0 0 1
    outer loop
      vertex 66.2082 -35.3329 72
      vertex 0 -38 72
      vertex 146.6 -38 72
    endloop
  endfacet
  facet normal 0 0 1
    outer loop
      vertex 22.6168 -35.2057 72
      vertex 0 -38 72
      vertex 23.0082 -35.3329 72
    endloop
  endfacet
  facet normal 0 0 -1
    outer loop
      vertex 146.6 -38 22
      vertex 124.05 -35 22
      vertex 146.6 -33 22
    endloop
  endfacet
  facet normal 0 0 -1
    outer loop
      vertex 146.6 -38 22
      vertex 123.808 -35.3329 22
      vertex 124.05 -35 22
    endloop
  endfacet
  facet normal 0 0 -1
    outer loop
      vertex 146.6 -38 22
      vertex 87.8082 -35.3329 22
      vertex 123.808 -35.3329 22
    endloop
  endfacet
  facet normal 0 0 -1
    outer loop
      vertex 87.4168 -35.2057 22
      vertex 80.85 -35 22
      vertex 87.4168 -33 22
    endloop
  endfacet
  facet normal 0 0 -1
    outer loop
      vertex 80.6082 -35.3329 22
      vertex 87.4168 -35.2057 22
      vertex 87.8082 -35.3329 22
    endloop
  endfacet
  facet normal -0 0 -1
    outer loop
      vertex 87.4168 -35.2057 22
      vertex 80.6082 -35.3329 22
      vertex 80.85 -35 22
    endloop
  endfacet
  facet normal 0 0 -1
    outer loop
      vertex 146.6 -38 22
      vertex 80.6082 -35.3329 22
      vertex 87.8082 -35.3329 22
    endloop
  endfacet
  facet normal 0 0 -1
    outer loop
      vertex 0 -38 22
      vertex 80.6082 -35.3329 22
      vertex 146.6 -38 22
    endloop
  endfacet
  facet normal 0 0 -1
    outer loop
      vertex 44.2168 -35.2057 22
      vertex 37.65 -35 22
      vertex 44.2168 -33 22
    endloop
  endfacet
  facet normal 0 0 -1
    outer loop
      vertex 37.4082 -35.3329 22
      vertex 44.2168 -35.2057 22
      vertex 44.6082 -35.3329 22
    endloop
  endfacet
  facet normal -0 0 -1
    outer loop
      vertex 44.2168 -35.2057 22
      vertex 37.4082 -35.3329 22
      vertex 37.65 -35 22
    endloop
  endfacet
  facet normal -0 0 -1
    outer loop
      vertex 80.6082 -35.3329 22
      vertex 0 -38 22
      vertex 44.6082 -35.3329 22
    endloop
  endfacet
  facet normal -0 0 -1
    outer loop
      vertex 44.6082 -35.3329 22
      vertex 0 -38 22
      vertex 37.4082 -35.3329 22
    endloop
  endfacet
  facet normal -0 0 -1
    outer loop
      vertex 37.4082 -35.3329 22
      vertex 0 -38 22
      vertex 1.40815 -35.3329 22
    endloop
  endfacet
  facet normal 0 0 -1
    outer loop
      vertex 0 -38 22
      vertex 1.01684 -35.2057 22
      vertex 1.40815 -35.3329 22
    endloop
  endfacet
  facet normal 0 0 -1
    outer loop
      vertex 0 -33 22
      vertex 1.01684 -35.2057 22
      vertex 0 -38 22
    endloop
  endfacet
  facet normal 0 0 -1
    outer loop
      vertex 1.01684 -35.2057 22
      vertex 0 -33 22
      vertex 1.01684 -33 22
    endloop
  endfacet
  facet normal -0 0 -1
    outer loop
      vertex 146.6 -33 22
      vertex 124.05 -35 22
      vertex 124.05 -33 22
    endloop
  endfacet
  facet normal -0 0 -1
    outer loop
      vertex 87.4168 -33 22
      vertex 80.85 -35 22
      vertex 80.85 -33 22
    endloop
  endfacet
  facet normal -0 0 -1
    outer loop
      vertex 44.2168 -33 22
      vertex 37.65 -35 22
      vertex 37.65 -33 22
    endloop
  endfacet
  facet normal 0 -1 0
    outer loop
      vertex 0 -38 22
      vertex 146.6 -38 72
      vertex 0 -38 72
    endloop
  endfacet
  facet normal 0 -1 -0
    outer loop
      vertex 146.6 -38 72
      vertex 0 -38 22
      vertex 146.6 -38 22
    endloop
  endfacet
  facet normal 1 -0 0
    outer loop
      vertex 109.017 -35.2057 72
      vertex 109.017 -33 56.5
      vertex 109.017 -33 72
    endloop
  endfacet
  facet normal 1 0 0
    outer loop
      vertex 109.017 -33 56.5
      vertex 109.017 -35.2057 72
      vertex 109.017 -35.2057 56.5
    endloop
  endfacet
  facet normal -1 0 0
    outer loop
      vertex 145.65 -35 56.5
      vertex 145.65 -33 72
      vertex 145.65 -33 56.5
    endloop
  endfacet
  facet normal -1 -0 0
    outer loop
      vertex 145.65 -33 72
      vertex 145.65 -35 56.5
      vertex 145.65 -35 72
    endloop
  endfacet
  facet normal 0.906695 0 0.421788
    outer loop
      vertex 109.017 -33 56.5
      vertex 109.158 -35.1029 56.1969
      vertex 109.158 -33 56.1969
    endloop
  endfacet
  facet normal 0.906695 0 0.421788
    outer loop
      vertex 109.158 -35.1029 56.1969
      vertex 109.017 -33 56.5
      vertex 109.017 -35.2057 56.5
    endloop
  endfacet
  facet normal -0.866019 0 0.500011
    outer loop
      vertex 145.475 -35 56.1969
      vertex 145.65 -33 56.5
      vertex 145.475 -33 56.1969
    endloop
  endfacet
  facet normal -0.866019 0 0.500011
    outer loop
      vertex 145.65 -33 56.5
      vertex 145.475 -35 56.1969
      vertex 145.65 -35 56.5
    endloop
  endfacet
  facet normal 0 0 1
    outer loop
      vertex 145.475 -33 56.1969
      vertex 145.354 -35.1664 56.1969
      vertex 145.475 -35 56.1969
    endloop
  endfacet
  facet normal 0 0 1
    outer loop
      vertex 145.475 -33 56.1969
      vertex 109.354 -35.1664 56.1969
      vertex 145.354 -35.1664 56.1969
    endloop
  endfacet
  facet normal -0 0 1
    outer loop
      vertex 109.158 -33 56.1969
      vertex 109.354 -35.1664 56.1969
      vertex 145.475 -33 56.1969
    endloop
  endfacet
  facet normal 0 0 1
    outer loop
      vertex 109.354 -35.1664 56.1969
      vertex 109.158 -33 56.1969
      vertex 109.158 -35.1029 56.1969
    endloop
  endfacet
  facet normal -0.808862 0.587998 0
    outer loop
      vertex 145.408 -35.3329 56.5
      vertex 145.65 -35 72
      vertex 145.65 -35 56.5
    endloop
  endfacet
  facet normal -0.808862 0.587998 0
    outer loop
      vertex 145.65 -35 72
      vertex 145.408 -35.3329 56.5
      vertex 145.408 -35.3329 72
    endloop
  endfacet
  facet normal 0.309361 0.950945 -0
    outer loop
      vertex 109.408 -35.3329 56.5
      vertex 109.017 -35.2057 72
      vertex 109.408 -35.3329 72
    endloop
  endfacet
  facet normal 0.309361 0.950945 0
    outer loop
      vertex 109.017 -35.2057 72
      vertex 109.408 -35.3329 56.5
      vertex 109.017 -35.2057 56.5
    endloop
  endfacet
  facet normal 0 1 -0
    outer loop
      vertex 145.408 -35.3329 56.5
      vertex 109.408 -35.3329 72
      vertex 145.408 -35.3329 72
    endloop
  endfacet
  facet normal 0 1 0
    outer loop
      vertex 109.408 -35.3329 72
      vertex 145.408 -35.3329 56.5
      vertex 109.408 -35.3329 56.5
    endloop
  endfacet
  facet normal -0.732881 0.532764 0.423141
    outer loop
      vertex 145.65 -35 56.5
      vertex 145.475 -35 56.1969
      vertex 145.408 -35.3329 56.5
    endloop
  endfacet
  facet normal -0.732764 0.532839 0.423249
    outer loop
      vertex 145.408 -35.3329 56.5
      vertex 145.475 -35 56.1969
      vertex 145.354 -35.1664 56.1969
    endloop
  endfacet
  facet normal 0 0.876466 0.481464
    outer loop
      vertex 145.354 -35.1664 56.1969
      vertex 109.408 -35.3329 56.5
      vertex 145.408 -35.3329 56.5
    endloop
  endfacet
  facet normal 0 0.876466 0.481464
    outer loop
      vertex 109.408 -35.3329 56.5
      vertex 145.354 -35.1664 56.1969
      vertex 109.354 -35.1664 56.1969
    endloop
  endfacet
  facet normal 0.280362 0.861806 0.422714
    outer loop
      vertex 109.408 -35.3329 56.5
      vertex 109.158 -35.1029 56.1969
      vertex 109.017 -35.2057 56.5
    endloop
  endfacet
  facet normal 0.279185 0.861737 0.423633
    outer loop
      vertex 109.408 -35.3329 56.5
      vertex 109.354 -35.1664 56.1969
      vertex 109.158 -35.1029 56.1969
    endloop
  endfacet
  facet normal 1 -0 0
    outer loop
      vertex 65.8168 -35.2057 72
      vertex 65.8168 -33 56.5
      vertex 65.8168 -33 72
    endloop
  endfacet
  facet normal 1 0 0
    outer loop
      vertex 65.8168 -33 56.5
      vertex 65.8168 -35.2057 72
      vertex 65.8168 -35.2057 56.5
    endloop
  endfacet
  facet normal -1 0 0
    outer loop
      vertex 102.45 -35 56.5
      vertex 102.45 -33 72
      vertex 102.45 -33 56.5
    endloop
  endfacet
  facet normal -1 -0 0
    outer loop
      vertex 102.45 -33 72
      vertex 102.45 -35 56.5
      vertex 102.45 -35 72
    endloop
  endfacet
  facet normal 0.906007 0 0.423262
    outer loop
      vertex 65.8168 -33 56.5
      vertex 65.9584 -35.1029 56.1969
      vertex 65.9584 -33 56.1969
    endloop
  endfacet
  facet normal 0.906007 0 0.423262
    outer loop
      vertex 65.9584 -35.1029 56.1969
      vertex 65.8168 -33 56.5
      vertex 65.8168 -35.2057 56.5
    endloop
  endfacet
  facet normal 0 0 1
    outer loop
      vertex 102.275 -33 56.1969
      vertex 102.154 -35.1664 56.1969
      vertex 102.275 -35 56.1969
    endloop
  endfacet
  facet normal 0 0 1
    outer loop
      vertex 102.275 -33 56.1969
      vertex 66.1541 -35.1664 56.1969
      vertex 102.154 -35.1664 56.1969
    endloop
  endfacet
  facet normal -0 0 1
    outer loop
      vertex 65.9584 -33 56.1969
      vertex 66.1541 -35.1664 56.1969
      vertex 102.275 -33 56.1969
    endloop
  endfacet
  facet normal 0 0 1
    outer loop
      vertex 66.1541 -35.1664 56.1969
      vertex 65.9584 -33 56.1969
      vertex 65.9584 -35.1029 56.1969
    endloop
  endfacet
  facet normal -0.866019 0 0.500011
    outer loop
      vertex 102.275 -35 56.1969
      vertex 102.45 -33 56.5
      vertex 102.275 -33 56.1969
    endloop
  endfacet
  facet normal -0.866019 0 0.500011
    outer loop
      vertex 102.45 -33 56.5
      vertex 102.275 -35 56.1969
      vertex 102.45 -35 56.5
    endloop
  endfacet
  facet normal -0.808862 0.587998 0
    outer loop
      vertex 102.208 -35.3329 56.5
      vertex 102.45 -35 72
      vertex 102.45 -35 56.5
    endloop
  endfacet
  facet normal -0.808862 0.587998 0
    outer loop
      vertex 102.45 -35 72
      vertex 102.208 -35.3329 56.5
      vertex 102.208 -35.3329 72
    endloop
  endfacet
  facet normal 0.309075 0.951038 -0
    outer loop
      vertex 66.2082 -35.3329 56.5
      vertex 65.8168 -35.2057 72
      vertex 66.2082 -35.3329 72
    endloop
  endfacet
  facet normal 0.309075 0.951038 0
    outer loop
      vertex 65.8168 -35.2057 72
      vertex 66.2082 -35.3329 56.5
      vertex 65.8168 -35.2057 56.5
    endloop
  endfacet
  facet normal 0 1 -0
    outer loop
      vertex 102.208 -35.3329 56.5
      vertex 66.2082 -35.3329 72
      vertex 102.208 -35.3329 72
    endloop
  endfacet
  facet normal 0 1 0
    outer loop
      vertex 66.2082 -35.3329 72
      vertex 102.208 -35.3329 56.5
      vertex 66.2082 -35.3329 56.5
    endloop
  endfacet
  facet normal 0 0.876466 0.481464
    outer loop
      vertex 102.154 -35.1664 56.1969
      vertex 66.2082 -35.3329 56.5
      vertex 102.208 -35.3329 56.5
    endloop
  endfacet
  facet normal 0 0.876466 0.481464
    outer loop
      vertex 66.2082 -35.3329 56.5
      vertex 102.154 -35.1664 56.1969
      vertex 66.1541 -35.1664 56.1969
    endloop
  endfacet
  facet normal -0.732881 0.532764 0.423141
    outer loop
      vertex 102.45 -35 56.5
      vertex 102.275 -35 56.1969
      vertex 102.208 -35.3329 56.5
    endloop
  endfacet
  facet normal -0.732764 0.532839 0.423249
    outer loop
      vertex 102.208 -35.3329 56.5
      vertex 102.275 -35 56.1969
      vertex 102.154 -35.1664 56.1969
    endloop
  endfacet
  facet normal 0.280049 0.861722 0.423094
    outer loop
      vertex 66.2082 -35.3329 56.5
      vertex 65.9584 -35.1029 56.1969
      vertex 65.8168 -35.2057 56.5
    endloop
  endfacet
  facet normal 0.2796 0.861695 0.423444
    outer loop
      vertex 66.2082 -35.3329 56.5
      vertex 66.1541 -35.1664 56.1969
      vertex 65.9584 -35.1029 56.1969
    endloop
  endfacet
  facet normal 1 -0 0
    outer loop
      vertex 22.6168 -35.2057 72
      vertex 22.6168 -33 56.5
      vertex 22.6168 -33 72
    endloop
  endfacet
  facet normal 1 0 0
    outer loop
      vertex 22.6168 -33 56.5
      vertex 22.6168 -35.2057 72
      vertex 22.6168 -35.2057 56.5
    endloop
  endfacet
  facet normal -1 0 0
    outer loop
      vertex 59.25 -35 56.5
      vertex 59.25 -33 72
      vertex 59.25 -33 56.5
    endloop
  endfacet
  facet normal -1 -0 0
    outer loop
      vertex 59.25 -33 72
      vertex 59.25 -35 56.5
      vertex 59.25 -35 72
    endloop
  endfacet
  facet normal 0.906007 0 0.423262
    outer loop
      vertex 22.6168 -33 56.5
      vertex 22.7584 -35.1029 56.1969
      vertex 22.7584 -33 56.1969
    endloop
  endfacet
  facet normal 0.906007 0 0.423262
    outer loop
      vertex 22.7584 -35.1029 56.1969
      vertex 22.6168 -33 56.5
      vertex 22.6168 -35.2057 56.5
    endloop
  endfacet
  facet normal -0.866019 0 0.500011
    outer loop
      vertex 59.075 -35 56.1969
      vertex 59.25 -33 56.5
      vertex 59.075 -33 56.1969
    endloop
  endfacet
  facet normal -0.866019 0 0.500011
    outer loop
      vertex 59.25 -33 56.5
      vertex 59.075 -35 56.1969
      vertex 59.25 -35 56.5
    endloop
  endfacet
  facet normal 0 0 1
    outer loop
      vertex 59.075 -33 56.1969
      vertex 58.9541 -35.1664 56.1969
      vertex 59.075 -35 56.1969
    endloop
  endfacet
  facet normal 0 0 1
    outer loop
      vertex 59.075 -33 56.1969
      vertex 22.9541 -35.1664 56.1969
      vertex 58.9541 -35.1664 56.1969
    endloop
  endfacet
  facet normal -0 0 1
    outer loop
      vertex 22.7584 -33 56.1969
      vertex 22.9541 -35.1664 56.1969
      vertex 59.075 -33 56.1969
    endloop
  endfacet
  facet normal 0 0 1
    outer loop
      vertex 22.9541 -35.1664 56.1969
      vertex 22.7584 -33 56.1969
      vertex 22.7584 -35.1029 56.1969
    endloop
  endfacet
  facet normal -0.809093 0.58768 0
    outer loop
      vertex 59.0082 -35.3329 56.5
      vertex 59.25 -35 72
      vertex 59.25 -35 56.5
    endloop
  endfacet
  facet normal -0.809093 0.58768 0
    outer loop
      vertex 59.25 -35 72
      vertex 59.0082 -35.3329 56.5
      vertex 59.0082 -35.3329 72
    endloop
  endfacet
  facet normal 0.309075 0.951038 -0
    outer loop
      vertex 23.0082 -35.3329 56.5
      vertex 22.6168 -35.2057 72
      vertex 23.0082 -35.3329 72
    endloop
  endfacet
  facet normal 0.309075 0.951038 0
    outer loop
      vertex 22.6168 -35.2057 72
      vertex 23.0082 -35.3329 56.5
      vertex 22.6168 -35.2057 56.5
    endloop
  endfacet
  facet normal 0 1 -0
    outer loop
      vertex 59.0082 -35.3329 56.5
      vertex 23.0082 -35.3329 72
      vertex 59.0082 -35.3329 72
    endloop
  endfacet
  facet normal 0 1 0
    outer loop
      vertex 23.0082 -35.3329 72
      vertex 59.0082 -35.3329 56.5
      vertex 23.0082 -35.3329 56.5
    endloop
  endfacet
  facet normal -0.733053 0.532449 0.423241
    outer loop
      vertex 59.25 -35 56.5
      vertex 59.075 -35 56.1969
      vertex 59.0082 -35.3329 56.5
    endloop
  endfacet
  facet normal -0.732936 0.532524 0.423349
    outer loop
      vertex 59.0082 -35.3329 56.5
      vertex 59.075 -35 56.1969
      vertex 58.9541 -35.1664 56.1969
    endloop
  endfacet
  facet normal 0 0.876466 0.481464
    outer loop
      vertex 58.9541 -35.1664 56.1969
      vertex 23.0082 -35.3329 56.5
      vertex 59.0082 -35.3329 56.5
    endloop
  endfacet
  facet normal 0 0.876466 0.481464
    outer loop
      vertex 23.0082 -35.3329 56.5
      vertex 58.9541 -35.1664 56.1969
      vertex 22.9541 -35.1664 56.1969
    endloop
  endfacet
  facet normal 0.280049 0.861722 0.423094
    outer loop
      vertex 23.0082 -35.3329 56.5
      vertex 22.7584 -35.1029 56.1969
      vertex 22.6168 -35.2057 56.5
    endloop
  endfacet
  facet normal 0.2796 0.861695 0.423444
    outer loop
      vertex 23.0082 -35.3329 56.5
      vertex 22.9541 -35.1664 56.1969
      vertex 22.7584 -35.1029 56.1969
    endloop
  endfacet
  facet normal -1 0 0
    outer loop
      vertex 124.05 -35 22
      vertex 124.05 -33 37.5
      vertex 124.05 -33 22
    endloop
  endfacet
  facet normal -1 -0 0
    outer loop
      vertex 124.05 -33 37.5
      vertex 124.05 -35 22
      vertex 124.05 -35 37.5
    endloop
  endfacet
  facet normal 1 -0 0
    outer loop
      vertex 87.4168 -35.2057 37.5
      vertex 87.4168 -33 22
      vertex 87.4168 -33 37.5
    endloop
  endfacet
  facet normal 1 0 0
    outer loop
      vertex 87.4168 -33 22
      vertex 87.4168 -35.2057 37.5
      vertex 87.4168 -35.2057 22
    endloop
  endfacet
  facet normal 0.906007 0 -0.423262
    outer loop
      vertex 87.5584 -35.1029 37.8031
      vertex 87.4168 -33 37.5
      vertex 87.5584 -33 37.8031
    endloop
  endfacet
  facet normal 0.906007 0 -0.423262
    outer loop
      vertex 87.4168 -33 37.5
      vertex 87.5584 -35.1029 37.8031
      vertex 87.4168 -35.2057 37.5
    endloop
  endfacet
  facet normal -0.866019 0 -0.500011
    outer loop
      vertex 124.05 -35 37.5
      vertex 123.875 -33 37.8031
      vertex 124.05 -33 37.5
    endloop
  endfacet
  facet normal -0.866019 -0 -0.500011
    outer loop
      vertex 123.875 -33 37.8031
      vertex 124.05 -35 37.5
      vertex 123.875 -35 37.8031
    endloop
  endfacet
  facet normal 0 0 -1
    outer loop
      vertex 123.754 -35.1664 37.8031
      vertex 123.875 -33 37.8031
      vertex 123.875 -35 37.8031
    endloop
  endfacet
  facet normal 0 0 -1
    outer loop
      vertex 87.7541 -35.1664 37.8031
      vertex 123.875 -33 37.8031
      vertex 123.754 -35.1664 37.8031
    endloop
  endfacet
  facet normal 0 0 -1
    outer loop
      vertex 87.5584 -33 37.8031
      vertex 87.7541 -35.1664 37.8031
      vertex 87.5584 -35.1029 37.8031
    endloop
  endfacet
  facet normal 0 0 -1
    outer loop
      vertex 87.7541 -35.1664 37.8031
      vertex 87.5584 -33 37.8031
      vertex 123.875 -33 37.8031
    endloop
  endfacet
  facet normal -0.808862 0.587998 0
    outer loop
      vertex 123.808 -35.3329 22
      vertex 124.05 -35 37.5
      vertex 124.05 -35 22
    endloop
  endfacet
  facet normal -0.808862 0.587998 0
    outer loop
      vertex 124.05 -35 37.5
      vertex 123.808 -35.3329 22
      vertex 123.808 -35.3329 37.5
    endloop
  endfacet
  facet normal -0.732881 0.532764 -0.423141
    outer loop
      vertex 123.875 -35 37.8031
      vertex 124.05 -35 37.5
      vertex 123.808 -35.3329 37.5
    endloop
  endfacet
  facet normal 0.280049 0.861722 -0.423094
    outer loop
      vertex 87.5584 -35.1029 37.8031
      vertex 87.8082 -35.3329 37.5
      vertex 87.4168 -35.2057 37.5
    endloop
  endfacet
  facet normal 0.309075 0.951038 -0
    outer loop
      vertex 87.8082 -35.3329 22
      vertex 87.4168 -35.2057 37.5
      vertex 87.8082 -35.3329 37.5
    endloop
  endfacet
  facet normal 0.309075 0.951038 0
    outer loop
      vertex 87.4168 -35.2057 37.5
      vertex 87.8082 -35.3329 22
      vertex 87.4168 -35.2057 22
    endloop
  endfacet
  facet normal 0 1 -0
    outer loop
      vertex 123.808 -35.3329 22
      vertex 87.8082 -35.3329 37.5
      vertex 123.808 -35.3329 37.5
    endloop
  endfacet
  facet normal 0 1 0
    outer loop
      vertex 87.8082 -35.3329 37.5
      vertex 123.808 -35.3329 22
      vertex 87.8082 -35.3329 22
    endloop
  endfacet
  facet normal -0.732764 0.532839 -0.423249
    outer loop
      vertex 123.875 -35 37.8031
      vertex 123.808 -35.3329 37.5
      vertex 123.754 -35.1664 37.8031
    endloop
  endfacet
  facet normal 0.2796 0.861695 -0.423444
    outer loop
      vertex 87.7541 -35.1664 37.8031
      vertex 87.8082 -35.3329 37.5
      vertex 87.5584 -35.1029 37.8031
    endloop
  endfacet
  facet normal 0 0.876466 -0.481464
    outer loop
      vertex 87.8082 -35.3329 37.5
      vertex 123.754 -35.1664 37.8031
      vertex 123.808 -35.3329 37.5
    endloop
  endfacet
  facet normal 0 0.876466 -0.481464
    outer loop
      vertex 123.754 -35.1664 37.8031
      vertex 87.8082 -35.3329 37.5
      vertex 87.7541 -35.1664 37.8031
    endloop
  endfacet
  facet normal -1 0 0
    outer loop
      vertex 80.85 -35 22
      vertex 80.85 -33 37.5
      vertex 80.85 -33 22
    endloop
  endfacet
  facet normal -1 -0 0
    outer loop
      vertex 80.85 -33 37.5
      vertex 80.85 -35 22
      vertex 80.85 -35 37.5
    endloop
  endfacet
  facet normal 1 -0 0
    outer loop
      vertex 44.2168 -35.2057 37.5
      vertex 44.2168 -33 22
      vertex 44.2168 -33 37.5
    endloop
  endfacet
  facet normal 1 0 0
    outer loop
      vertex 44.2168 -33 22
      vertex 44.2168 -35.2057 37.5
      vertex 44.2168 -35.2057 22
    endloop
  endfacet
  facet normal -0.866019 0 -0.500011
    outer loop
      vertex 80.85 -35 37.5
      vertex 80.675 -33 37.8031
      vertex 80.85 -33 37.5
    endloop
  endfacet
  facet normal -0.866019 -0 -0.500011
    outer loop
      vertex 80.675 -33 37.8031
      vertex 80.85 -35 37.5
      vertex 80.675 -35 37.8031
    endloop
  endfacet
  facet normal 0.906007 0 -0.423262
    outer loop
      vertex 44.3584 -35.1029 37.8031
      vertex 44.2168 -33 37.5
      vertex 44.3584 -33 37.8031
    endloop
  endfacet
  facet normal 0.906007 0 -0.423262
    outer loop
      vertex 44.2168 -33 37.5
      vertex 44.3584 -35.1029 37.8031
      vertex 44.2168 -35.2057 37.5
    endloop
  endfacet
  facet normal 0 0 -1
    outer loop
      vertex 80.5541 -35.1664 37.8031
      vertex 80.675 -33 37.8031
      vertex 80.675 -35 37.8031
    endloop
  endfacet
  facet normal 0 0 -1
    outer loop
      vertex 44.5541 -35.1664 37.8031
      vertex 80.675 -33 37.8031
      vertex 80.5541 -35.1664 37.8031
    endloop
  endfacet
  facet normal 0 0 -1
    outer loop
      vertex 44.3584 -33 37.8031
      vertex 44.5541 -35.1664 37.8031
      vertex 44.3584 -35.1029 37.8031
    endloop
  endfacet
  facet normal 0 0 -1
    outer loop
      vertex 44.5541 -35.1664 37.8031
      vertex 44.3584 -33 37.8031
      vertex 80.675 -33 37.8031
    endloop
  endfacet
  facet normal -0.809093 0.58768 0
    outer loop
      vertex 80.6082 -35.3329 22
      vertex 80.85 -35 37.5
      vertex 80.85 -35 22
    endloop
  endfacet
  facet normal -0.809093 0.58768 0
    outer loop
      vertex 80.85 -35 37.5
      vertex 80.6082 -35.3329 22
      vertex 80.6082 -35.3329 37.5
    endloop
  endfacet
  facet normal -0.733053 0.532449 -0.423241
    outer loop
      vertex 80.675 -35 37.8031
      vertex 80.85 -35 37.5
      vertex 80.6082 -35.3329 37.5
    endloop
  endfacet
  facet normal 0.280049 0.861722 -0.423094
    outer loop
      vertex 44.3584 -35.1029 37.8031
      vertex 44.6082 -35.3329 37.5
      vertex 44.2168 -35.2057 37.5
    endloop
  endfacet
  facet normal 0.309075 0.951038 -0
    outer loop
      vertex 44.6082 -35.3329 22
      vertex 44.2168 -35.2057 37.5
      vertex 44.6082 -35.3329 37.5
    endloop
  endfacet
  facet normal 0.309075 0.951038 0
    outer loop
      vertex 44.2168 -35.2057 37.5
      vertex 44.6082 -35.3329 22
      vertex 44.2168 -35.2057 22
    endloop
  endfacet
  facet normal 0 1 -0
    outer loop
      vertex 80.6082 -35.3329 22
      vertex 44.6082 -35.3329 37.5
      vertex 80.6082 -35.3329 37.5
    endloop
  endfacet
  facet normal 0 1 0
    outer loop
      vertex 44.6082 -35.3329 37.5
      vertex 80.6082 -35.3329 22
      vertex 44.6082 -35.3329 22
    endloop
  endfacet
  facet normal -0.732936 0.532524 -0.423349
    outer loop
      vertex 80.675 -35 37.8031
      vertex 80.6082 -35.3329 37.5
      vertex 80.5541 -35.1664 37.8031
    endloop
  endfacet
  facet normal 0.2796 0.861695 -0.423444
    outer loop
      vertex 44.5541 -35.1664 37.8031
      vertex 44.6082 -35.3329 37.5
      vertex 44.3584 -35.1029 37.8031
    endloop
  endfacet
  facet normal 0 0.876466 -0.481464
    outer loop
      vertex 44.6082 -35.3329 37.5
      vertex 80.5541 -35.1664 37.8031
      vertex 80.6082 -35.3329 37.5
    endloop
  endfacet
  facet normal 0 0.876466 -0.481464
    outer loop
      vertex 80.5541 -35.1664 37.8031
      vertex 44.6082 -35.3329 37.5
      vertex 44.5541 -35.1664 37.8031
    endloop
  endfacet
  facet normal 1 -0 0
    outer loop
      vertex 1.01684 -35.2057 37.5
      vertex 1.01684 -33 22
      vertex 1.01684 -33 37.5
    endloop
  endfacet
  facet normal 1 0 0
    outer loop
      vertex 1.01684 -33 22
      vertex 1.01684 -35.2057 37.5
      vertex 1.01684 -35.2057 22
    endloop
  endfacet
  facet normal -1 0 0
    outer loop
      vertex 37.65 -35 22
      vertex 37.65 -33 37.5
      vertex 37.65 -33 22
    endloop
  endfacet
  facet normal -1 -0 0
    outer loop
      vertex 37.65 -33 37.5
      vertex 37.65 -35 22
      vertex 37.65 -35 37.5
    endloop
  endfacet
  facet normal -0.866019 0 -0.500011
    outer loop
      vertex 37.65 -35 37.5
      vertex 37.475 -33 37.8031
      vertex 37.65 -33 37.5
    endloop
  endfacet
  facet normal -0.866019 -0 -0.500011
    outer loop
      vertex 37.475 -33 37.8031
      vertex 37.65 -35 37.5
      vertex 37.475 -35 37.8031
    endloop
  endfacet
  facet normal 0.90603 0 -0.423213
    outer loop
      vertex 1.15842 -35.1029 37.8031
      vertex 1.01684 -33 37.5
      vertex 1.15842 -33 37.8031
    endloop
  endfacet
  facet normal 0.90603 0 -0.423213
    outer loop
      vertex 1.01684 -33 37.5
      vertex 1.15842 -35.1029 37.8031
      vertex 1.01684 -35.2057 37.5
    endloop
  endfacet
  facet normal 0 0 -1
    outer loop
      vertex 37.3541 -35.1664 37.8031
      vertex 37.475 -33 37.8031
      vertex 37.475 -35 37.8031
    endloop
  endfacet
  facet normal 0 0 -1
    outer loop
      vertex 1.35408 -35.1664 37.8031
      vertex 37.475 -33 37.8031
      vertex 37.3541 -35.1664 37.8031
    endloop
  endfacet
  facet normal 0 0 -1
    outer loop
      vertex 1.15842 -33 37.8031
      vertex 1.35408 -35.1664 37.8031
      vertex 1.15842 -35.1029 37.8031
    endloop
  endfacet
  facet normal 0 0 -1
    outer loop
      vertex 1.35408 -35.1664 37.8031
      vertex 1.15842 -33 37.8031
      vertex 37.475 -33 37.8031
    endloop
  endfacet
  facet normal 0.27965 0.861675 -0.423452
    outer loop
      vertex 1.35408 -35.1664 37.8031
      vertex 1.40815 -35.3329 37.5
      vertex 1.15842 -35.1029 37.8031
    endloop
  endfacet
  facet normal -0.809093 0.58768 0
    outer loop
      vertex 37.4082 -35.3329 22
      vertex 37.65 -35 37.5
      vertex 37.65 -35 22
    endloop
  endfacet
  facet normal -0.809093 0.58768 0
    outer loop
      vertex 37.65 -35 37.5
      vertex 37.4082 -35.3329 22
      vertex 37.4082 -35.3329 37.5
    endloop
  endfacet
  facet normal 0 0.876466 -0.481464
    outer loop
      vertex 1.40815 -35.3329 37.5
      vertex 37.3541 -35.1664 37.8031
      vertex 37.4082 -35.3329 37.5
    endloop
  endfacet
  facet normal 0 0.876466 -0.481464
    outer loop
      vertex 37.3541 -35.1664 37.8031
      vertex 1.40815 -35.3329 37.5
      vertex 1.35408 -35.1664 37.8031
    endloop
  endfacet
  facet normal 0 1 -0
    outer loop
      vertex 37.4082 -35.3329 22
      vertex 1.40815 -35.3329 37.5
      vertex 37.4082 -35.3329 37.5
    endloop
  endfacet
  facet normal 0 1 0
    outer loop
      vertex 1.40815 -35.3329 37.5
      vertex 37.4082 -35.3329 22
      vertex 1.40815 -35.3329 22
    endloop
  endfacet
  facet normal 0.309139 0.951017 -0
    outer loop
      vertex 1.40815 -35.3329 22
      vertex 1.01684 -35.2057 37.5
      vertex 1.40815 -35.3329 37.5
    endloop
  endfacet
  facet normal 0.309139 0.951017 0
    outer loop
      vertex 1.01684 -35.2057 37.5
      vertex 1.40815 -35.3329 22
      vertex 1.01684 -35.2057 22
    endloop
  endfacet
  facet normal 0.280106 0.861702 -0.423096
    outer loop
      vertex 1.15842 -35.1029 37.8031
      vertex 1.40815 -35.3329 37.5
      vertex 1.01684 -35.2057 37.5
    endloop
  endfacet
  facet normal -0.733053 0.532449 -0.423241
    outer loop
      vertex 37.475 -35 37.8031
      vertex 37.65 -35 37.5
      vertex 37.4082 -35.3329 37.5
    endloop
  endfacet
  facet normal -0.732936 0.532524 -0.423349
    outer loop
      vertex 37.475 -35 37.8031
      vertex 37.4082 -35.3329 37.5
      vertex 37.3541 -35.1664 37.8031
    endloop
  endfacet
  facet normal 0.309014 0 0.951058
    outer loop
      vertex 3.78647 0 46.1183
      vertex 5.46352 -30 45.5734
      vertex 5.46352 0 45.5734
    endloop
  endfacet
  facet normal 0.309014 0 0.951058
    outer loop
      vertex 5.46352 -30 45.5734
      vertex 3.78647 0 46.1183
      vertex 3.78647 -30 46.1183
    endloop
  endfacet
  facet normal -0.809018 0 -0.587783
    outer loop
      vertex 6.5 -30 47
      vertex 5.46352 0 48.4266
      vertex 6.5 0 47
    endloop
  endfacet
  facet normal -0.809018 -0 -0.587783
    outer loop
      vertex 5.46352 0 48.4266
      vertex 6.5 -30 47
      vertex 5.46352 -30 48.4266
    endloop
  endfacet
  facet normal 1 -0 0
    outer loop
      vertex 3.78647 -30 47.8817
      vertex 3.78647 0 46.1183
      vertex 3.78647 0 47.8817
    endloop
  endfacet
  facet normal 1 0 0
    outer loop
      vertex 3.78647 0 46.1183
      vertex 3.78647 -30 47.8817
      vertex 3.78647 -30 46.1183
    endloop
  endfacet
  facet normal 0 1 0
    outer loop
      vertex 6.5 -30 47
      vertex 3.78647 -30 47.8817
      vertex 5.46352 -30 48.4266
    endloop
  endfacet
  facet normal 0 1 0
    outer loop
      vertex 6.5 -30 47
      vertex 3.78647 -30 46.1183
      vertex 3.78647 -30 47.8817
    endloop
  endfacet
  facet normal -0 1 0
    outer loop
      vertex 3.78647 -30 46.1183
      vertex 6.5 -30 47
      vertex 5.46352 -30 45.5734
    endloop
  endfacet
  facet normal 0.309014 0 -0.951058
    outer loop
      vertex 3.78647 -30 47.8817
      vertex 5.46352 0 48.4266
      vertex 5.46352 -30 48.4266
    endloop
  endfacet
  facet normal 0.309014 0 -0.951058
    outer loop
      vertex 5.46352 0 48.4266
      vertex 3.78647 -30 47.8817
      vertex 3.78647 0 47.8817
    endloop
  endfacet
  facet normal -0.809018 0 0.587783
    outer loop
      vertex 5.46352 -30 45.5734
      vertex 6.5 0 47
      vertex 5.46352 0 45.5734
    endloop
  endfacet
  facet normal -0.809018 0 0.587783
    outer loop
      vertex 6.5 0 47
      vertex 5.46352 -30 45.5734
      vertex 6.5 -30 47
    endloop
  endfacet
  facet normal 0.308855 0 0.951109
    outer loop
      vertex 140.386 0 46.1183
      vertex 142.064 -30 45.5734
      vertex 142.064 0 45.5734
    endloop
  endfacet
  facet normal 0.308855 0 0.951109
    outer loop
      vertex 142.064 -30 45.5734
      vertex 140.386 0 46.1183
      vertex 140.386 -30 46.1183
    endloop
  endfacet
  facet normal 0 1 0
    outer loop
      vertex 143.1 -30 47
      vertex 140.386 -30 47.8817
      vertex 142.064 -30 48.4266
    endloop
  endfacet
  facet normal 0 1 0
    outer loop
      vertex 143.1 -30 47
      vertex 140.386 -30 46.1183
      vertex 140.386 -30 47.8817
    endloop
  endfacet
  facet normal -0 1 0
    outer loop
      vertex 140.386 -30 46.1183
      vertex 143.1 -30 47
      vertex 142.064 -30 45.5734
    endloop
  endfacet
  facet normal -0.809148 0 -0.587605
    outer loop
      vertex 143.1 -30 47
      vertex 142.064 0 48.4266
      vertex 143.1 0 47
    endloop
  endfacet
  facet normal -0.809148 -0 -0.587605
    outer loop
      vertex 142.064 0 48.4266
      vertex 143.1 -30 47
      vertex 142.064 -30 48.4266
    endloop
  endfacet
  facet normal 1 -0 0
    outer loop
      vertex 140.386 -30 47.8817
      vertex 140.386 0 46.1183
      vertex 140.386 0 47.8817
    endloop
  endfacet
  facet normal 1 0 0
    outer loop
      vertex 140.386 0 46.1183
      vertex 140.386 -30 47.8817
      vertex 140.386 -30 46.1183
    endloop
  endfacet
  facet normal 0.308855 0 -0.951109
    outer loop
      vertex 140.386 -30 47.8817
      vertex 142.064 0 48.4266
      vertex 142.064 -30 48.4266
    endloop
  endfacet
  facet normal 0.308855 0 -0.951109
    outer loop
      vertex 142.064 0 48.4266
      vertex 140.386 -30 47.8817
      vertex 140.386 0 47.8817
    endloop
  endfacet
  facet normal -0.809148 0 0.587605
    outer loop
      vertex 142.064 -30 45.5734
      vertex 143.1 0 47
      vertex 142.064 0 45.5734
    endloop
  endfacet
  facet normal -0.809148 0 0.587605
    outer loop
      vertex 143.1 0 47
      vertex 142.064 -30 45.5734
      vertex 143.1 -30 47
    endloop
  endfacet
endsolid OpenSCAD_Model
