solid OpenSCAD_Model
  facet normal -0.295242 -0.908661 -0.295242
    outer loop
      vertex 5.3 9.15863 29.691
      vertex 6.16335 8.7777 30
      vertex 5.3 9.05822 30
    endloop
  endfacet
  facet normal -0.295242 -0.908661 -0.295242
    outer loop
      vertex 6.16335 8.7777 30
      vertex 5.3 9.15863 29.691
      vertex 6.16335 8.87811 29.691
    endloop
  endfacet
  facet normal -1 0 0
    outer loop
      vertex 7.25317 3.62189 29.691
      vertex 7.25317 7.37811 29.691
      vertex 7.25317 7.37811 0
    endloop
  endfacet
  facet normal -1 0 0
    outer loop
      vertex 7.25317 7.37811 29.691
      vertex 7.25317 3.62189 29.691
      vertex 7.25317 7.2777 30
    endloop
  endfacet
  facet normal -1 0 0
    outer loop
      vertex 7.25317 3.62189 29.691
      vertex 7.25317 7.37811 0
      vertex 7.25317 3.62189 0
    endloop
  endfacet
  facet normal -1 -0 0
    outer loop
      vertex 7.25317 7.2777 30
      vertex 7.25317 3.62189 29.691
      vertex 7.25317 3.7223 30
    endloop
  endfacet
  facet normal -0.809017 0.587785 0
    outer loop
      vertex 6.16335 2.12189 0
      vertex 7.25317 3.62189 29.691
      vertex 7.25317 3.62189 0
    endloop
  endfacet
  facet normal -0.809017 0.587785 0
    outer loop
      vertex 7.25317 3.62189 29.691
      vertex 6.16335 2.12189 0
      vertex 6.16335 2.12189 29.691
    endloop
  endfacet
  facet normal -0.809017 -0.587785 0
    outer loop
      vertex 7.25317 7.37811 0
      vertex 6.16335 8.87811 29.691
      vertex 6.16335 8.87811 0
    endloop
  endfacet
  facet normal -0.809017 -0.587785 0
    outer loop
      vertex 6.16335 8.87811 29.691
      vertex 7.25317 7.37811 0
      vertex 7.25317 7.37811 29.691
    endloop
  endfacet
  facet normal -0.794654 0.57735 -0.187592
    outer loop
      vertex 7.25317 3.62189 29.691
      vertex 6.16335 2.2223 30
      vertex 7.25317 3.7223 30
    endloop
  endfacet
  facet normal -0.794654 0.57735 -0.187592
    outer loop
      vertex 6.16335 2.2223 30
      vertex 7.25317 3.62189 29.691
      vertex 6.16335 2.12189 29.691
    endloop
  endfacet
  facet normal -0.794655 -0.57735 -0.187592
    outer loop
      vertex 7.25317 7.37811 29.691
      vertex 6.16335 8.7777 30
      vertex 6.16335 8.87811 29.691
    endloop
  endfacet
  facet normal -0.794655 -0.57735 -0.187592
    outer loop
      vertex 6.16335 8.7777 30
      vertex 7.25317 7.37811 29.691
      vertex 7.25317 7.2777 30
    endloop
  endfacet
  facet normal -0.295242 0.908661 -0.295242
    outer loop
      vertex 6.16335 2.12189 29.691
      vertex 5.3 1.94178 30
      vertex 6.16335 2.2223 30
    endloop
  endfacet
  facet normal -0.295242 0.908661 -0.295242
    outer loop
      vertex 5.3 1.94178 30
      vertex 6.16335 2.12189 29.691
      vertex 5.3 1.84137 29.691
    endloop
  endfacet
  facet normal -0.309017 -0.951056 0
    outer loop
      vertex 5.3 9.15863 0
      vertex 6.16335 8.87811 29.691
      vertex 5.3 9.15863 29.691
    endloop
  endfacet
  facet normal -0.309017 -0.951056 -0
    outer loop
      vertex 6.16335 8.87811 29.691
      vertex 5.3 9.15863 0
      vertex 6.16335 8.87811 0
    endloop
  endfacet
  facet normal -0.309017 0.951056 0
    outer loop
      vertex 6.16335 2.12189 0
      vertex 5.3 1.84137 29.691
      vertex 6.16335 2.12189 29.691
    endloop
  endfacet
  facet normal -0.309017 0.951056 0
    outer loop
      vertex 5.3 1.84137 29.691
      vertex 6.16335 2.12189 0
      vertex 5.3 1.84137 0
    endloop
  endfacet
  facet normal 0.309017 -0.951056 0
    outer loop
      vertex 2.9 9.15863 0
      vertex 3.8 9.45106 29.691
      vertex 2.9 9.15863 29.691
    endloop
  endfacet
  facet normal 0.309017 -0.951056 0
    outer loop
      vertex 3.8 9.45106 29.691
      vertex 2.9 9.15863 0
      vertex 3.8 9.45106 0
    endloop
  endfacet
  facet normal 1 -0 0
    outer loop
      vertex 2.9 0 30
      vertex 2.9 9.15863 29.691
      vertex 2.9 9.05822 30
    endloop
  endfacet
  facet normal 1 0 0
    outer loop
      vertex 2.9 0 0
      vertex 2.9 9.15863 29.691
      vertex 2.9 0 30
    endloop
  endfacet
  facet normal 1 0 0
    outer loop
      vertex 2.9 9.15863 29.691
      vertex 2.9 0 0
      vertex 2.9 9.15863 0
    endloop
  endfacet
  facet normal -1 0 0
    outer loop
      vertex 5.3 1.84137 0
      vertex 5.3 0 0
      vertex 5.3 1.84137 29.691
    endloop
  endfacet
  facet normal -1 0 0
    outer loop
      vertex 5.3 1.84137 29.691
      vertex 5.3 0 30
      vertex 5.3 1.94178 30
    endloop
  endfacet
  facet normal -1 0 0
    outer loop
      vertex 5.3 0 30
      vertex 5.3 1.84137 29.691
      vertex 5.3 0 0
    endloop
  endfacet
  facet normal -0.295242 -0.908661 -0.295242
    outer loop
      vertex 4.4 9.45106 29.691
      vertex 5.3 9.05822 30
      vertex 4.4 9.35065 30
    endloop
  endfacet
  facet normal -0.295242 -0.908661 -0.295242
    outer loop
      vertex 5.3 9.05822 30
      vertex 4.4 9.45106 29.691
      vertex 5.3 9.15863 29.691
    endloop
  endfacet
  facet normal 0 -0.951057 -0.309017
    outer loop
      vertex 3.8 9.45106 29.691
      vertex 4.4 9.35065 30
      vertex 3.8 9.35065 30
    endloop
  endfacet
  facet normal 0 -0.951057 -0.309017
    outer loop
      vertex 4.4 9.35065 30
      vertex 3.8 9.45106 29.691
      vertex 4.4 9.45106 29.691
    endloop
  endfacet
  facet normal -0.309017 -0.951056 0
    outer loop
      vertex 4.4 9.45106 0
      vertex 5.3 9.15863 29.691
      vertex 4.4 9.45106 29.691
    endloop
  endfacet
  facet normal -0.309017 -0.951056 -0
    outer loop
      vertex 5.3 9.15863 29.691
      vertex 4.4 9.45106 0
      vertex 5.3 9.15863 0
    endloop
  endfacet
  facet normal 0.295242 -0.908661 -0.295242
    outer loop
      vertex 2.9 9.15863 29.691
      vertex 3.8 9.35065 30
      vertex 2.9 9.05822 30
    endloop
  endfacet
  facet normal 0.295242 -0.908661 -0.295242
    outer loop
      vertex 3.8 9.35065 30
      vertex 2.9 9.15863 29.691
      vertex 3.8 9.45106 29.691
    endloop
  endfacet
  facet normal 0 -1 0
    outer loop
      vertex 3.8 9.45106 0
      vertex 4.4 9.45106 29.691
      vertex 3.8 9.45106 29.691
    endloop
  endfacet
  facet normal 0 -1 -0
    outer loop
      vertex 4.4 9.45106 29.691
      vertex 3.8 9.45106 0
      vertex 4.4 9.45106 0
    endloop
  endfacet
  facet normal 0.309017 -0.951056 0
    outer loop
      vertex 35.4366 8.87811 0
      vertex 37.2 9.45106 29.691
      vertex 35.4366 8.87811 29.691
    endloop
  endfacet
  facet normal 0.309017 -0.951056 0
    outer loop
      vertex 37.2 9.45106 29.691
      vertex 35.4366 8.87811 0
      vertex 37.2 9.45106 0
    endloop
  endfacet
  facet normal 0.309017 0.951056 -0
    outer loop
      vertex 36.3 1.84137 0
      vertex 35.4366 2.12189 29.691
      vertex 36.3 1.84137 29.691
    endloop
  endfacet
  facet normal 0.309017 0.951056 0
    outer loop
      vertex 35.4366 2.12189 29.691
      vertex 36.3 1.84137 0
      vertex 35.4366 2.12189 0
    endloop
  endfacet
  facet normal 0.295242 0.90866 -0.295243
    outer loop
      vertex 36.3 1.84137 29.691
      vertex 35.4366 2.2223 30
      vertex 36.3 1.94178 30
    endloop
  endfacet
  facet normal 0.295242 0.90866 -0.295243
    outer loop
      vertex 35.4366 2.2223 30
      vertex 36.3 1.84137 29.691
      vertex 35.4366 2.12189 29.691
    endloop
  endfacet
  facet normal 0.794654 0.57735 -0.187593
    outer loop
      vertex 35.4366 2.2223 30
      vertex 34.3468 3.62189 29.691
      vertex 34.3468 3.7223 30
    endloop
  endfacet
  facet normal 0.794654 0.57735 -0.187593
    outer loop
      vertex 34.3468 3.62189 29.691
      vertex 35.4366 2.2223 30
      vertex 35.4366 2.12189 29.691
    endloop
  endfacet
  facet normal 0.809017 0.587785 0
    outer loop
      vertex 35.4366 2.12189 29.691
      vertex 34.3468 3.62189 0
      vertex 34.3468 3.62189 29.691
    endloop
  endfacet
  facet normal 0.809017 0.587785 0
    outer loop
      vertex 34.3468 3.62189 0
      vertex 35.4366 2.12189 29.691
      vertex 35.4366 2.12189 0
    endloop
  endfacet
  facet normal 1 0 0
    outer loop
      vertex 34.3468 3.62189 29.691
      vertex 34.3468 7.37811 29.691
      vertex 34.3468 7.2777 30
    endloop
  endfacet
  facet normal 1 0 0
    outer loop
      vertex 34.3468 3.62189 29.691
      vertex 34.3468 7.2777 30
      vertex 34.3468 3.7223 30
    endloop
  endfacet
  facet normal 1 0 0
    outer loop
      vertex 34.3468 7.37811 29.691
      vertex 34.3468 3.62189 29.691
      vertex 34.3468 7.37811 0
    endloop
  endfacet
  facet normal 1 0 0
    outer loop
      vertex 34.3468 7.37811 0
      vertex 34.3468 3.62189 29.691
      vertex 34.3468 3.62189 0
    endloop
  endfacet
  facet normal 0.809017 -0.587785 0
    outer loop
      vertex 34.3468 7.37811 29.691
      vertex 35.4366 8.87811 0
      vertex 35.4366 8.87811 29.691
    endloop
  endfacet
  facet normal 0.809017 -0.587785 0
    outer loop
      vertex 35.4366 8.87811 0
      vertex 34.3468 7.37811 29.691
      vertex 34.3468 7.37811 0
    endloop
  endfacet
  facet normal 0 -1 0
    outer loop
      vertex 37.2 9.45106 0
      vertex 37.8 9.45106 29.691
      vertex 37.2 9.45106 29.691
    endloop
  endfacet
  facet normal 0 -1 -0
    outer loop
      vertex 37.8 9.45106 29.691
      vertex 37.2 9.45106 0
      vertex 37.8 9.45106 0
    endloop
  endfacet
  facet normal -1 0 0
    outer loop
      vertex 38.7 0 0
      vertex 38.7 9.15863 29.691
      vertex 38.7 9.15863 0
    endloop
  endfacet
  facet normal -1 0 0
    outer loop
      vertex 38.7 0 30
      vertex 38.7 9.15863 29.691
      vertex 38.7 0 0
    endloop
  endfacet
  facet normal -1 0 0
    outer loop
      vertex 38.7 9.15863 29.691
      vertex 38.7 0 30
      vertex 38.7 9.05822 30
    endloop
  endfacet
  facet normal -0.309017 -0.951056 0
    outer loop
      vertex 37.8 9.45106 0
      vertex 38.7 9.15863 29.691
      vertex 37.8 9.45106 29.691
    endloop
  endfacet
  facet normal -0.309017 -0.951056 -0
    outer loop
      vertex 38.7 9.15863 29.691
      vertex 37.8 9.45106 0
      vertex 38.7 9.15863 0
    endloop
  endfacet
  facet normal 0.794654 -0.57735 -0.187593
    outer loop
      vertex 35.4366 8.7777 30
      vertex 34.3468 7.37811 29.691
      vertex 35.4366 8.87811 29.691
    endloop
  endfacet
  facet normal 0.794654 -0.57735 -0.187593
    outer loop
      vertex 34.3468 7.37811 29.691
      vertex 35.4366 8.7777 30
      vertex 34.3468 7.2777 30
    endloop
  endfacet
  facet normal 0 -0.951056 -0.309019
    outer loop
      vertex 37.2 9.45106 29.691
      vertex 37.8 9.35065 30
      vertex 37.2 9.35065 30
    endloop
  endfacet
  facet normal 0 -0.951056 -0.309019
    outer loop
      vertex 37.8 9.35065 30
      vertex 37.2 9.45106 29.691
      vertex 37.8 9.45106 29.691
    endloop
  endfacet
  facet normal -0.295242 -0.90866 -0.295243
    outer loop
      vertex 37.8 9.45106 29.691
      vertex 38.7 9.05822 30
      vertex 37.8 9.35065 30
    endloop
  endfacet
  facet normal -0.295242 -0.90866 -0.295243
    outer loop
      vertex 38.7 9.05822 30
      vertex 37.8 9.45106 29.691
      vertex 38.7 9.15863 29.691
    endloop
  endfacet
  facet normal 0.295242 -0.90866 -0.295243
    outer loop
      vertex 35.4366 8.87811 29.691
      vertex 37.2 9.35065 30
      vertex 35.4366 8.7777 30
    endloop
  endfacet
  facet normal 0.295242 -0.90866 -0.295243
    outer loop
      vertex 37.2 9.35065 30
      vertex 35.4366 8.87811 29.691
      vertex 37.2 9.45106 29.691
    endloop
  endfacet
  facet normal 1 -0 0
    outer loop
      vertex 36.3 0 30
      vertex 36.3 1.84137 29.691
      vertex 36.3 1.94178 30
    endloop
  endfacet
  facet normal 1 0 0
    outer loop
      vertex 36.3 0 0
      vertex 36.3 1.84137 29.691
      vertex 36.3 0 30
    endloop
  endfacet
  facet normal 1 0 0
    outer loop
      vertex 36.3 1.84137 29.691
      vertex 36.3 0 0
      vertex 36.3 1.84137 0
    endloop
  endfacet
  facet normal -1 0 0
    outer loop
      vertex 0 0 0
      vertex 0 12 30
      vertex 0 12 0
    endloop
  endfacet
  facet normal -1 -0 0
    outer loop
      vertex 0 12 30
      vertex 0 0 0
      vertex 0 0 30
    endloop
  endfacet
  facet normal 0 0 1
    outer loop
      vertex 41 12 30
      vertex 38.7 9.05822 30
      vertex 41 0 30
    endloop
  endfacet
  facet normal 0 0 1
    outer loop
      vertex 41 12 30
      vertex 37.8 9.35065 30
      vertex 38.7 9.05822 30
    endloop
  endfacet
  facet normal 0 0 1
    outer loop
      vertex 41 12 30
      vertex 37.2 9.35065 30
      vertex 37.8 9.35065 30
    endloop
  endfacet
  facet normal 0 0 1
    outer loop
      vertex 41 12 30
      vertex 35.4366 8.7777 30
      vertex 37.2 9.35065 30
    endloop
  endfacet
  facet normal 0 0 1
    outer loop
      vertex 34.3468 7.2777 30
      vertex 7.25317 7.2777 30
      vertex 34.3468 3.7223 30
    endloop
  endfacet
  facet normal 0 0 1
    outer loop
      vertex 35.4366 8.7777 30
      vertex 7.25317 7.2777 30
      vertex 34.3468 7.2777 30
    endloop
  endfacet
  facet normal -0 0 1
    outer loop
      vertex 6.16335 8.7777 30
      vertex 35.4366 8.7777 30
      vertex 41 12 30
    endloop
  endfacet
  facet normal 0 0 1
    outer loop
      vertex 35.4366 8.7777 30
      vertex 6.16335 8.7777 30
      vertex 7.25317 7.2777 30
    endloop
  endfacet
  facet normal -0 0 1
    outer loop
      vertex 0 12 30
      vertex 6.16335 8.7777 30
      vertex 41 12 30
    endloop
  endfacet
  facet normal 0 0 1
    outer loop
      vertex 6.16335 8.7777 30
      vertex 0 12 30
      vertex 5.3 9.05822 30
    endloop
  endfacet
  facet normal 0 0 1
    outer loop
      vertex 5.3 9.05822 30
      vertex 0 12 30
      vertex 4.4 9.35065 30
    endloop
  endfacet
  facet normal 0 0 1
    outer loop
      vertex 4.4 9.35065 30
      vertex 0 12 30
      vertex 3.8 9.35065 30
    endloop
  endfacet
  facet normal 0 0 1
    outer loop
      vertex 0 12 30
      vertex 2.9 9.05822 30
      vertex 3.8 9.35065 30
    endloop
  endfacet
  facet normal 0 0 1
    outer loop
      vertex 0 0 30
      vertex 2.9 9.05822 30
      vertex 0 12 30
    endloop
  endfacet
  facet normal 0 0 1
    outer loop
      vertex 2.9 9.05822 30
      vertex 0 0 30
      vertex 2.9 0 30
    endloop
  endfacet
  facet normal 0 0 1
    outer loop
      vertex 41 0 30
      vertex 38.7 9.05822 30
      vertex 38.7 0 30
    endloop
  endfacet
  facet normal 0 0 1
    outer loop
      vertex 35.4366 2.2223 30
      vertex 36.3 0 30
      vertex 36.3 1.94178 30
    endloop
  endfacet
  facet normal 0 0 1
    outer loop
      vertex 34.3468 3.7223 30
      vertex 36.3 0 30
      vertex 35.4366 2.2223 30
    endloop
  endfacet
  facet normal 0 0 1
    outer loop
      vertex 7.25317 3.7223 30
      vertex 34.3468 3.7223 30
      vertex 7.25317 7.2777 30
    endloop
  endfacet
  facet normal 0 0 1
    outer loop
      vertex 34.3468 3.7223 30
      vertex 7.25317 3.7223 30
      vertex 36.3 0 30
    endloop
  endfacet
  facet normal 0 0 1
    outer loop
      vertex 5.3 0 30
      vertex 7.25317 3.7223 30
      vertex 6.16335 2.2223 30
    endloop
  endfacet
  facet normal 0 0 1
    outer loop
      vertex 5.3 0 30
      vertex 6.16335 2.2223 30
      vertex 5.3 1.94178 30
    endloop
  endfacet
  facet normal 0 0 1
    outer loop
      vertex 7.25317 3.7223 30
      vertex 5.3 0 30
      vertex 36.3 0 30
    endloop
  endfacet
  facet normal 1 -0 0
    outer loop
      vertex 41 0 30
      vertex 41 12 0
      vertex 41 12 30
    endloop
  endfacet
  facet normal 1 0 0
    outer loop
      vertex 41 12 0
      vertex 41 0 30
      vertex 41 0 0
    endloop
  endfacet
  facet normal 0 1 -0
    outer loop
      vertex 41 12 0
      vertex 0 12 30
      vertex 41 12 30
    endloop
  endfacet
  facet normal 0 1 0
    outer loop
      vertex 0 12 30
      vertex 41 12 0
      vertex 0 12 0
    endloop
  endfacet
  facet normal 0 0 -1
    outer loop
      vertex 2.9 0 0
      vertex 0 0 0
      vertex 2.9 9.15863 0
    endloop
  endfacet
  facet normal 0 0 -1
    outer loop
      vertex 36.3 0 0
      vertex 35.4366 2.12189 0
      vertex 36.3 1.84137 0
    endloop
  endfacet
  facet normal 0 0 -1
    outer loop
      vertex 36.3 0 0
      vertex 34.3468 3.62189 0
      vertex 35.4366 2.12189 0
    endloop
  endfacet
  facet normal 0 0 -1
    outer loop
      vertex 34.3468 3.62189 0
      vertex 7.25317 3.62189 0
      vertex 34.3468 7.37811 0
    endloop
  endfacet
  facet normal 0 0 -1
    outer loop
      vertex 36.3 0 0
      vertex 7.25317 3.62189 0
      vertex 34.3468 3.62189 0
    endloop
  endfacet
  facet normal 0 0 -1
    outer loop
      vertex 5.3 0 0
      vertex 7.25317 3.62189 0
      vertex 36.3 0 0
    endloop
  endfacet
  facet normal 0 0 -1
    outer loop
      vertex 7.25317 3.62189 0
      vertex 5.3 0 0
      vertex 6.16335 2.12189 0
    endloop
  endfacet
  facet normal 0 0 -1
    outer loop
      vertex 6.16335 2.12189 0
      vertex 5.3 0 0
      vertex 5.3 1.84137 0
    endloop
  endfacet
  facet normal 0 0 -1
    outer loop
      vertex 38.7 9.15863 0
      vertex 41 0 0
      vertex 38.7 0 0
    endloop
  endfacet
  facet normal 0 0 -1
    outer loop
      vertex 41 0 0
      vertex 38.7 9.15863 0
      vertex 41 12 0
    endloop
  endfacet
  facet normal 0 0 -1
    outer loop
      vertex 37.8 9.45106 0
      vertex 41 12 0
      vertex 38.7 9.15863 0
    endloop
  endfacet
  facet normal 0 0 -1
    outer loop
      vertex 37.2 9.45106 0
      vertex 41 12 0
      vertex 37.8 9.45106 0
    endloop
  endfacet
  facet normal 0 0 -1
    outer loop
      vertex 35.4366 8.87811 0
      vertex 41 12 0
      vertex 37.2 9.45106 0
    endloop
  endfacet
  facet normal 0 0 -1
    outer loop
      vertex 7.25317 7.37811 0
      vertex 34.3468 7.37811 0
      vertex 7.25317 3.62189 0
    endloop
  endfacet
  facet normal 0 0 -1
    outer loop
      vertex 34.3468 7.37811 0
      vertex 7.25317 7.37811 0
      vertex 35.4366 8.87811 0
    endloop
  endfacet
  facet normal 0 0 -1
    outer loop
      vertex 6.16335 8.87811 0
      vertex 35.4366 8.87811 0
      vertex 7.25317 7.37811 0
    endloop
  endfacet
  facet normal 0 0 -1
    outer loop
      vertex 35.4366 8.87811 0
      vertex 6.16335 8.87811 0
      vertex 41 12 0
    endloop
  endfacet
  facet normal 0 0 -1
    outer loop
      vertex 0 12 0
      vertex 6.16335 8.87811 0
      vertex 5.3 9.15863 0
    endloop
  endfacet
  facet normal 0 0 -1
    outer loop
      vertex 0 12 0
      vertex 5.3 9.15863 0
      vertex 4.4 9.45106 0
    endloop
  endfacet
  facet normal 0 0 -1
    outer loop
      vertex 0 12 0
      vertex 4.4 9.45106 0
      vertex 3.8 9.45106 0
    endloop
  endfacet
  facet normal 0 0 -1
    outer loop
      vertex 6.16335 8.87811 0
      vertex 0 12 0
      vertex 41 12 0
    endloop
  endfacet
  facet normal 0 0 -1
    outer loop
      vertex 2.9 9.15863 0
      vertex 0 12 0
      vertex 3.8 9.45106 0
    endloop
  endfacet
  facet normal 0 0 -1
    outer loop
      vertex 0 12 0
      vertex 2.9 9.15863 0
      vertex 0 0 0
    endloop
  endfacet
  facet normal 0 -1 0
    outer loop
      vertex 38.7 0 0
      vertex 41 0 30
      vertex 38.7 0 30
    endloop
  endfacet
  facet normal 0 -1 -0
    outer loop
      vertex 41 0 30
      vertex 38.7 0 0
      vertex 41 0 0
    endloop
  endfacet
  facet normal 0 -1 0
    outer loop
      vertex 0 0 0
      vertex 2.9 0 30
      vertex 0 0 30
    endloop
  endfacet
  facet normal 0 -1 -0
    outer loop
      vertex 2.9 0 30
      vertex 0 0 0
      vertex 2.9 0 0
    endloop
  endfacet
  facet normal 0 -1 0
    outer loop
      vertex 5.3 0 0
      vertex 36.3 0 30
      vertex 5.3 0 30
    endloop
  endfacet
  facet normal 0 -1 -0
    outer loop
      vertex 36.3 0 30
      vertex 5.3 0 0
      vertex 36.3 0 0
    endloop
  endfacet
endsolid OpenSCAD_Model
